<mxfile host="65bd71144e">
    <diagram id="mPoY7NYj23-wrWcc0Xbl" name="Page-1">
        <mxGraphModel dx="1287" dy="693" grid="1" gridSize="10" guides="1" tooltips="1" connect="1" arrows="1" fold="1" page="1" pageScale="1" pageWidth="850" pageHeight="1100" math="0" shadow="0">
            <root>
                <mxCell id="0"/>
                <mxCell id="1" parent="0"/>
                <mxCell id="60" value="" style="rounded=0;whiteSpace=wrap;html=1;fillColor=none;" vertex="1" parent="1">
                    <mxGeometry x="316.69" y="100" width="400" height="330" as="geometry"/>
                </mxCell>
                <mxCell id="19" value="" style="whiteSpace=wrap;html=1;fillColor=#E6E6E6;" vertex="1" parent="1">
                    <mxGeometry x="356.69" y="130" width="130" height="120" as="geometry"/>
                </mxCell>
                <mxCell id="28" style="edgeStyle=orthogonalEdgeStyle;rounded=0;orthogonalLoop=1;jettySize=auto;html=1;fillColor=#dae8fc;strokeColor=#6c8ebf;entryX=0;entryY=0.5;entryDx=0;entryDy=0;" edge="1" parent="1" source="30" target="18">
                    <mxGeometry relative="1" as="geometry">
                        <mxPoint x="291.69" y="290" as="targetPoint"/>
                    </mxGeometry>
                </mxCell>
                <mxCell id="29" style="edgeStyle=orthogonalEdgeStyle;rounded=0;orthogonalLoop=1;jettySize=auto;html=1;fillColor=#dae8fc;strokeColor=#6c8ebf;" edge="1" parent="1" source="30" target="31">
                    <mxGeometry relative="1" as="geometry"/>
                </mxCell>
                <mxCell id="30" value="" style="shape=image;imageAspect=0;aspect=fixed;verticalLabelPosition=bottom;verticalAlign=top;image=data:image/svg+xml,PHN2ZyB4bWxucz0iaHR0cDovL3d3dy53My5vcmcvMjAwMC9zdmciIGlkPSJhMmM4ODMwNi1mYTAzLTRlNWItYjE5Mi00MDFmMGI3NzgwOGIiIHdpZHRoPSIxOC4zMjQwMjYxMDc3ODgwODYiIGhlaWdodD0iMTUuOTUzMzI1MjcxNjA2NDQ1IiB2aWV3Qm94PSItMC4xNjI1Mjk4NzA4Njc3MjkyIDEuMDIzODU5NTAwODg1MDA5OCAxOC4zMjQwMjYxMDc3ODgwODYgMTUuOTUzMzI1MjcxNjA2NDQ1Ij4mI3hhOyAgPGRlZnM+JiN4YTsgICAgPGxpbmVhckdyYWRpZW50IGlkPSJiNDAzYWNhNy1mMzg3LTQ0MzQtOTZiNC1hZTE1N2VkYzgzNWYiIHgxPSItMTc1Ljk5MyIgeTE9Ii0zNDMuNzIzIiB4Mj0iLTE3NS45OTMiIHkyPSItMzU5LjIzMiIgZ3JhZGllbnRUcmFuc2Zvcm09InRyYW5zbGF0ZSgyMTIuNTczIDM3MC41NDgpIHNjYWxlKDEuMTU2IDEuMDI5KSIgZ3JhZGllbnRVbml0cz0idXNlclNwYWNlT25Vc2UiPiYjeGE7ICAgICAgPHN0b3Agb2Zmc2V0PSIwIiBzdG9wLWNvbG9yPSIjZmVhMTFiIi8+JiN4YTsgICAgICA8c3RvcCBvZmZzZXQ9IjAuMjg0IiBzdG9wLWNvbG9yPSIjZmVhNTFhIi8+JiN4YTsgICAgICA8c3RvcCBvZmZzZXQ9IjAuNTQ3IiBzdG9wLWNvbG9yPSIjZmViMDE4Ii8+JiN4YTsgICAgICA8c3RvcCBvZmZzZXQ9IjAuOCIgc3RvcC1jb2xvcj0iI2ZmYzMxNCIvPiYjeGE7ICAgICAgPHN0b3Agb2Zmc2V0PSIxIiBzdG9wLWNvbG9yPSIjZmZkNzBmIi8+JiN4YTsgICAgPC9saW5lYXJHcmFkaWVudD4mI3hhOyAgPC9kZWZzPiYjeGE7ICA8dGl0bGU+SWNvbi1jb21wdXRlLTI5PC90aXRsZT4mI3hhOyAgPGc+JiN4YTsgICAgPHBhdGggZD0iTTIuMzcsNy40NzVIMy4yYS4yNjcuMjY3LDAsMCwxLC4yNjcuMjY3djYuMTQ4YS41MzMuNTMzLDAsMCwxLS41MzMuNTMzSDIuMWEwLDAsMCwwLDEsMCwwVjcuNzQxYS4yNjcuMjY3LDAsMCwxLC4yNjctLjI2N1oiIHRyYW5zZm9ybT0idHJhbnNsYXRlKDEyLjUwNyAxNi43MDUpIHJvdGF0ZSgxMzQuOTE5KSIgZmlsbD0iIzUwZTZmZiIvPiYjeGE7ICAgIDxwYXRoIGQ9Ik0yLjMyNSwzLjZoLjgzM2EuMjY3LjI2NywwLDAsMSwuMjY3LjI2N3Y2LjU4M2EwLDAsMCwwLDEsMCwwSDIuNTkxYS41MzMuNTMzLDAsMCwxLS41MzMtLjUzM1YzLjg2NUEuMjY3LjI2NywwLDAsMSwyLjMyNSwzLjZaIiB0cmFuc2Zvcm09InRyYW5zbGF0ZSg1Ljc1OSAwLjExNCkgcm90YXRlKDQ0LjkxOSkiIGZpbGw9IiMxNDkwZGYiLz4mI3hhOyAgPC9nPiYjeGE7ICA8Zz4mI3hhOyAgICA8cGF0aCBkPSJNMTQuNTMsNy40NzVoLjgzM2EuNTMzLjUzMywwLDAsMSwuNTMzLjUzM3Y2LjE0OGEuMjY3LjI2NywwLDAsMS0uMjY3LjI2N0gxNC44YS4yNjcuMjY3LDAsMCwxLS4yNjctLjI2N1Y3LjQ3NWEwLDAsMCwwLDEsMCwwWiIgdHJhbnNmb3JtPSJ0cmFuc2xhdGUoMTIuMjIzIC03LjU1NSkgcm90YXRlKDQ1LjA4MSkiIGZpbGw9IiM1MGU2ZmYiLz4mI3hhOyAgICA8cGF0aCBkPSJNMTUuMTA4LDMuNmguODMzYTAsMCwwLDAsMSwwLDB2Ni41ODNhLjI2Ny4yNjcsMCwwLDEtLjI2Ny4yNjdoLS44MzNhLjI2Ny4yNjcsMCwwLDEtLjI2Ny0uMjY3VjQuMTMxYS41MzMuNTMzLDAsMCwxLC41MzMtLjUzM1oiIHRyYW5zZm9ybT0idHJhbnNsYXRlKDMxLjAyMiAxLjIyMikgcm90YXRlKDEzNS4wODEpIiBmaWxsPSIjMTQ5MGRmIi8+JiN4YTsgIDwvZz4mI3hhOyAgPHBhdGggZD0iTTguNDU5LDkuOUg0Ljg3YS4xOTMuMTkzLDAsMCwxLS4yLS4xODEuMTY2LjE2NiwwLDAsMSwuMDE4LS4wNzVMOC45OTEsMS4xM2EuMjA2LjIwNiwwLDAsMSwuMTg2LS4xMDZoNC4yNDVhLjE5My4xOTMsMCwwLDEsLjIuMTgxLjE2NS4xNjUsMCwwLDEtLjAzNS4xTDguNTM0LDcuOTY2aDQuOTI4YS4xOTMuMTkzLDAsMCwxLC4yLjE4MS4xNzYuMTc2LDAsMCwxLS4wNTIuMTIyTDUuNDIxLDE2Ljc4OGMtLjA3Ny4wNDYtLjYyNC41LS4zNTYtLjE4OWgwWiIgZmlsbD0idXJsKCNiNDAzYWNhNy1mMzg3LTQ0MzQtOTZiNC1hZTE1N2VkYzgzNWYpIi8+JiN4YTs8L3N2Zz4=;" vertex="1" parent="1">
                    <mxGeometry x="181.69" y="316.21000000000004" width="30" height="26.67" as="geometry"/>
                </mxCell>
                <mxCell id="31" value="" style="shape=image;imageAspect=0;aspect=fixed;verticalLabelPosition=bottom;verticalAlign=top;image=data:image/svg+xml,PHN2ZyB4bWxucz0iaHR0cDovL3d3dy53My5vcmcvMjAwMC9zdmciIGlkPSJiNmY2ZDk5ZS1mMzMwLTQ4MWQtODM2Zi1lYTU4Y2M0MjIxN2YiIHdpZHRoPSIxMS44OTg4Mzg5OTY4ODcyMDciIGhlaWdodD0iMTcuMDAwMjk5NDUzNzM1MzUiIHZpZXdCb3g9IjMuMDUwNTgwNzM5OTc0OTc1NiAwLjQ5OTcwMDI0ODI0MTQyNDU2IDExLjg5ODgzODk5Njg4NzIwNyAxNy4wMDAyOTk0NTM3MzUzNSI+JiN4YTsgIDxkZWZzPiYjeGE7ICAgIDxyYWRpYWxHcmFkaWVudCBpZD0iYTdhMWM0MzEtNmM2ZC00YThmLTlhNjktOGRhNDM3ZTViMGM1IiBjeD0iOSIgY3k9IjcuMzUiIHI9IjYuNDIiIGdyYWRpZW50VW5pdHM9InVzZXJTcGFjZU9uVXNlIj4mI3hhOyAgICAgIDxzdG9wIG9mZnNldD0iMCIgc3RvcC1jb2xvcj0iI2I3N2FmNCIvPiYjeGE7ICAgICAgPHN0b3Agb2Zmc2V0PSIwLjIxIiBzdG9wLWNvbG9yPSIjYjM3OGYyIi8+JiN4YTsgICAgICA8c3RvcCBvZmZzZXQ9IjAuNDMiIHN0b3AtY29sb3I9IiNhNjcyZWQiLz4mI3hhOyAgICAgIDxzdG9wIG9mZnNldD0iMC42NSIgc3RvcC1jb2xvcj0iIzkyNjdlNCIvPiYjeGE7ICAgICAgPHN0b3Agb2Zmc2V0PSIwLjg4IiBzdG9wLWNvbG9yPSIjNzU1OWQ4Ii8+JiN4YTsgICAgICA8c3RvcCBvZmZzZXQ9IjEiIHN0b3AtY29sb3I9IiM2MjRmZDAiLz4mI3hhOyAgICA8L3JhZGlhbEdyYWRpZW50PiYjeGE7ICAgIDxsaW5lYXJHcmFkaWVudCBpZD0iZWMwYzRmMGQtNWM4ZS00ODgyLTk2YTEtODlkNjE4MDhlYjQ5IiB4MT0iOS4wMiIgeTE9IjMuOTEiIHgyPSI5LjA4IiB5Mj0iMTEuNDkiIGdyYWRpZW50VW5pdHM9InVzZXJTcGFjZU9uVXNlIj4mI3hhOyAgICAgIDxzdG9wIG9mZnNldD0iMCIgc3RvcC1jb2xvcj0iI2YyZjJmMiIvPiYjeGE7ICAgICAgPHN0b3Agb2Zmc2V0PSIwLjIzIiBzdG9wLWNvbG9yPSIjZjFmMWYyIiBzdG9wLW9wYWNpdHk9IjAuOTkiLz4mI3hhOyAgICAgIDxzdG9wIG9mZnNldD0iMC4zNyIgc3RvcC1jb2xvcj0iI2VkZWRmMSIgc3RvcC1vcGFjaXR5PSIwLjk1Ii8+JiN4YTsgICAgICA8c3RvcCBvZmZzZXQ9IjAuNDgiIHN0b3AtY29sb3I9IiNlN2U1ZjAiIHN0b3Atb3BhY2l0eT0iMC44OSIvPiYjeGE7ICAgICAgPHN0b3Agb2Zmc2V0PSIwLjU4IiBzdG9wLWNvbG9yPSIjZGVkYmVlIiBzdG9wLW9wYWNpdHk9IjAuODEiLz4mI3hhOyAgICAgIDxzdG9wIG9mZnNldD0iMC42NyIgc3RvcC1jb2xvcj0iI2QzY2VlYiIgc3RvcC1vcGFjaXR5PSIwLjciLz4mI3hhOyAgICAgIDxzdG9wIG9mZnNldD0iMC43NiIgc3RvcC1jb2xvcj0iI2M0YmVlOCIgc3RvcC1vcGFjaXR5PSIwLjU3Ii8+JiN4YTsgICAgICA8c3RvcCBvZmZzZXQ9IjAuODQiIHN0b3AtY29sb3I9IiNiNGFiZTUiIHN0b3Atb3BhY2l0eT0iMC40MSIvPiYjeGE7ICAgICAgPHN0b3Agb2Zmc2V0PSIwLjkyIiBzdG9wLWNvbG9yPSIjYTA5NWUxIiBzdG9wLW9wYWNpdHk9IjAuMjIiLz4mI3hhOyAgICAgIDxzdG9wIG9mZnNldD0iMC45OSIgc3RvcC1jb2xvcj0iIzhiN2RkYyIgc3RvcC1vcGFjaXR5PSIwLjAyIi8+JiN4YTsgICAgICA8c3RvcCBvZmZzZXQ9IjEiIHN0b3AtY29sb3I9IiM4OTdiZGMiIHN0b3Atb3BhY2l0eT0iMCIvPiYjeGE7ICAgIDwvbGluZWFyR3JhZGllbnQ+JiN4YTsgIDwvZGVmcz4mI3hhOyAgPHRpdGxlPkljb24tbWFuYWdlLTMxMDwvdGl0bGU+JiN4YTsgIDxwYXRoIGQ9Ik0xMC4yMywxNy4zOWwuODEtLjg3VjE0LjJIN3YyLjMybC44MS44N0EuMzIuMzIsMCwwLDAsOCwxNy41aDJBLjMyLjMyLDAsMCwwLDEwLjIzLDE3LjM5WiIgZmlsbD0iI2NlY2VjZSIvPiYjeGE7ICA8cGF0aCBkPSJNOSwuNUE1Ljg5LDUuODksMCwwLDAsMy4wOSw3LjA3Yy4yNywyLjQ3LDIuNjIsMy42MiwzLjI5LDYuNzVhLjQ5LjQ5LDAsMCwwLC40Ny4zOGg0LjNhLjQ5LjQ5LDAsMCwwLC40Ny0uMzhjLjY3LTMuMTMsMy00LjI4LDMuMjktNi43NUE1Ljg5LDUuODksMCwwLDAsOSwuNVpNNywxNC4yIiBmaWxsPSJ1cmwoI2E3YTFjNDMxLTZjNmQtNGE4Zi05YTY5LThkYTQzN2U1YjBjNSkiLz4mI3hhOyAgPHBhdGggZD0iTTExLjQ2LDMuNzlhMS40LDEuNCwwLDAsMC0xLjM1LDEuNDRWNkg4VjUuMjNBMS40MSwxLjQxLDAsMCwwLDYuNTksMy43OSwxLjQsMS40LDAsMCwwLDUuMjQsNS4yMywxLjQxLDEuNDEsMCwwLDAsNi41OSw2LjY4aC42NHY2YS4zNi4zNiwwLDAsMCwuNzIsMHYtNmgyLjE2djZhLjM2LjM2LDAsMSwwLC43Miwwdi02aC42M2ExLjQsMS40LDAsMCwwLDEuMzUtMS40NUExLjQsMS40LDAsMCwwLDExLjQ2LDMuNzlaTTcuMjMsNkg2LjU1YS43NC43NCwwLDAsMS0uNjgtLjc3Ljc0Ljc0LDAsMCwxLC42OC0uNzcuNzQuNzQsMCwwLDEsLjY4Ljc3Wm00LjI4LDBoLS42OFY1LjE5YS42OC42OCwwLDEsMSwxLjM1LDBBLjczLjczLDAsMCwxLDExLjUxLDZaIiBmaWxsPSJ1cmwoI2VjMGM0ZjBkLTVjOGUtNDg4Mi05NmExLTg5ZDYxODA4ZWI0OSkiLz4mI3hhOyAgPHBvbHlnb24gcG9pbnRzPSI2Ljk2IDE1LjggMTEuMDQgMTUuMDEgMTEuMDQgMTQuNTYgNi45NiAxNS4zNiA2Ljk2IDE1LjgiIGZpbGw9IiM5OTkiLz4mI3hhOyAgPHBvbHlnb24gcG9pbnRzPSIxMS4wNCAxNi4xMSAxMS4wNCAxNS42NyA2Ljk2IDE2LjQ4IDYuOTYgMTYuNTIgNy4yNyAxNi44NiAxMS4wNCAxNi4xMSIgZmlsbD0iIzk5OSIvPiYjeGE7PC9zdmc+;base64,PHN2ZyB4bWxucz0iaHR0cDovL3d3dy53My5vcmcvMjAwMC9zdmciIGlkPSJhMTYwNmE1Mi1mYjE0LTQ2MzctODdkZS00ZDUyNGJiYTE4MjkiIHdpZHRoPSIxOC41MDMwODAzNjgwNDE5OTIiIGhlaWdodD0iMTEuMDMyODQ0NTQzNDU3MDMxIiB2aWV3Qm94PSItMC4yNTI4MTE4Nzg5MTk2MDE0NCAzLjQ4Mjc3MjExMTg5MjcgMTguNTAzMDgwMzY4MDQxOTkyIDExLjAzMjg0NDU0MzQ1NzAzMSI+JiN4YTsgIDxkZWZzPiYjeGE7ICAgIDxsaW5lYXJHcmFkaWVudCBpZD0iZjAyMGZiN2UtMjI0My00NTAxLTgxNTMtNWQ2OWJkM2MzNGY3IiB4MT0iOS44OCIgeTE9IjguNTkiIHgyPSIxMS41MiIgeTI9IjEwLjIzIiBncmFkaWVudFRyYW5zZm9ybT0idHJhbnNsYXRlKDIuMDMgLTAuNCkgcm90YXRlKC0wLjA4KSIgZ3JhZGllbnRVbml0cz0idXNlclNwYWNlT25Vc2UiPiYjeGE7ICAgICAgPHN0b3Agb2Zmc2V0PSIwIiBzdG9wLWNvbG9yPSIjODZkNjMzIi8+JiN4YTsgICAgICA8c3RvcCBvZmZzZXQ9IjEiIHN0b3AtY29sb3I9IiM1ZTk2MjQiLz4mI3hhOyAgICA8L2xpbmVhckdyYWRpZW50PiYjeGE7ICAgIDxsaW5lYXJHcmFkaWVudCBpZD0iYjNjMmJjOTQtOGM3Yy00OGEyLTk3MTktNmVlODk5YTQzYTk3IiB4MT0iNi4xOCIgeTE9IjguNTkiIHgyPSI3LjgxIiB5Mj0iMTAuMjMiIGdyYWRpZW50VW5pdHM9InVzZXJTcGFjZU9uVXNlIj4mI3hhOyAgICAgIDxzdG9wIG9mZnNldD0iMCIgc3RvcC1jb2xvcj0iIzg2ZDYzMyIvPiYjeGE7ICAgICAgPHN0b3Agb2Zmc2V0PSIxIiBzdG9wLWNvbG9yPSIjNWU5NjI0Ii8+JiN4YTsgICAgPC9saW5lYXJHcmFkaWVudD4mI3hhOyAgICA8bGluZWFyR3JhZGllbnQgaWQ9ImU5MDBjMzVkLTA5NTgtNGQ0Zi1iMjhmLTMwMmVlYWFmNTJmNSIgeDE9IjIuNDgiIHkxPSI4LjU5IiB4Mj0iNC4xMSIgeTI9IjEwLjIzIiBncmFkaWVudFVuaXRzPSJ1c2VyU3BhY2VPblVzZSI+JiN4YTsgICAgICA8c3RvcCBvZmZzZXQ9IjAiIHN0b3AtY29sb3I9IiM4NmQ2MzMiLz4mI3hhOyAgICAgIDxzdG9wIG9mZnNldD0iMSIgc3RvcC1jb2xvcj0iIzVlOTYyNCIvPiYjeGE7ICAgIDwvbGluZWFyR3JhZGllbnQ+JiN4YTsgIDwvZGVmcz4mI3hhOyAgPHRpdGxlPkljb24tbmV0d29ya2luZy02MTwvdGl0bGU+JiN4YTsgIDxjaXJjbGUgY3g9IjEyLjc0IiBjeT0iOC45OSIgcj0iMS4xNiIgZmlsbD0idXJsKCNmMDIwZmI3ZS0yMjQzLTQ1MDEtODE1My01ZDY5YmQzYzM0ZjcpIi8+JiN4YTsgIDxjaXJjbGUgY3g9IjkuMDQiIGN5PSI5IiByPSIxLjE2IiBmaWxsPSJ1cmwoI2IzYzJiYzk0LThjN2MtNDhhMi05NzE5LTZlZTg5OWE0M2E5NykiLz4mI3hhOyAgPGNpcmNsZSBjeD0iNS4zNCIgY3k9IjkiIHI9IjEuMTYiIGZpbGw9InVybCgjZTkwMGMzNWQtMDk1OC00ZDRmLWIyOGYtMzAyZWVhYWY1MmY1KSIvPiYjeGE7ICA8cGF0aCBkPSJNMi42MSw3LjI4aC45NGEuMy4zLDAsMCwxLC4zLjN2Ni45NGEuNi42LDAsMCwxLS42LjZIMi4zMWEwLDAsMCwwLDEsMCwwVjcuNThhLjMuMywwLDAsMSwuMy0uM1oiIHRyYW5zZm9ybT0idHJhbnNsYXRlKDEzLjE4IDE2LjkzKSByb3RhdGUoMTM0LjkyKSIgZmlsbD0iIzUwZTZmZiIvPiYjeGE7ICA8cGF0aCBkPSJNMi41NiwyLjkxSDMuNWEuMy4zLDAsMCwxLC4zLjN2Ny40M2EwLDAsMCwwLDEsMCwwSDIuODZhLjYuNiwwLDAsMS0uNi0uNlYzLjIxYS4zLjMsMCwwLDEsLjMtLjNaIiB0cmFuc2Zvcm09InRyYW5zbGF0ZSg1LjY2IC0wLjE2KSByb3RhdGUoNDQuOTIpIiBmaWxsPSIjMTQ5MGRmIi8+JiN4YTsgIDxwYXRoIGQ9Ik0xNC4xNSw3LjI4aC45NGEuNi42LDAsMCwxLC42LjZ2Ni45NGEuMy4zLDAsMCwxLS4zLjNoLS45NGEuMy4zLDAsMCwxLS4zLS4zVjcuMjhhMCwwLDAsMCwxLDAsMFoiIHRyYW5zZm9ybT0idHJhbnNsYXRlKDEyLjMyIC03LjI4KSByb3RhdGUoNDUuMDgpIiBmaWxsPSIjNTBlNmZmIi8+JiN4YTsgIDxwYXRoIGQ9Ik0xNC44MSwyLjkxaC45NGEwLDAsMCwwLDEsMCwwdjcuNDNhLjMuMywwLDAsMS0uMy4zSDE0LjVhLjMuMywwLDAsMS0uMy0uM1YzLjUxYS42LjYsMCwwLDEsLjYtLjZaIiB0cmFuc2Zvcm09InRyYW5zbGF0ZSgzMC4zNiAwLjk5KSByb3RhdGUoMTM1LjA4KSIgZmlsbD0iIzE0OTBkZiIvPiYjeGE7PC9zdmc+;base64,PHN2ZyB4bWxucz0iaHR0cDovL3d3dy53My5vcmcvMjAwMC9zdmciIHdpZHRoPSIxNy40NjgxMzk2NDg0Mzc1IiBoZWlnaHQ9IjEwLjQwOTgxODY0OTI5MTk5MiIgdmlld0JveD0iMC4yNjYyNTUxOTk5MDkyMTAyIDMuNzk1NjE5NzI2MTgxMDMwMyAxNy40NjgxMzk2NDg0Mzc1IDEwLjQwOTgxODY0OTI5MTk5MiI+JiN4YTsgIDxkZWZzPiYjeGE7ICAgIDxsaW5lYXJHcmFkaWVudCBpZD0iYmNlYjYwZGQtOGI4Yy00MDk4LTk0ZjgtYWViNGRiMmVkYWVmIiB4MT0iOS4wMzMiIHkxPSIxMC4zMDUiIHgyPSI5LjAzMyIgeTI9IjcuNjk1IiBncmFkaWVudFVuaXRzPSJ1c2VyU3BhY2VPblVzZSI+JiN4YTsgICAgICA8c3RvcCBvZmZzZXQ9IjAiIHN0b3AtY29sb3I9IiM1ZTk2MjQiLz4mI3hhOyAgICAgIDxzdG9wIG9mZnNldD0iMC4yNDEiIHN0b3AtY29sb3I9IiM2ZmIwMmEiLz4mI3hhOyAgICAgIDxzdG9wIG9mZnNldD0iMC41MDEiIHN0b3AtY29sb3I9IiM3Y2M1MmYiLz4mI3hhOyAgICAgIDxzdG9wIG9mZnNldD0iMC43NTYiIHN0b3AtY29sb3I9IiM4M2QyMzIiLz4mI3hhOyAgICAgIDxzdG9wIG9mZnNldD0iMSIgc3RvcC1jb2xvcj0iIzg2ZDYzMyIvPiYjeGE7ICAgIDwvbGluZWFyR3JhZGllbnQ+JiN4YTsgIDwvZGVmcz4mI3hhOyAgPGcgaWQ9ImFjNzVjMjFlLTJhOTMtNDY0Zi04MDQ4LWYxNTE4ZGFiOGI3NSI+JiN4YTsgICAgPGc+JiN4YTsgICAgICA8cGF0aCBkPSJNOS4wMzEsNy43QTEuMzA1LDEuMzA1LDAsMSwwLDEwLjMzOCw5LDEuMzA1LDEuMzA1LDAsMCwwLDkuMDMxLDcuN1oiIGZpbGw9InVybCgjYmNlYjYwZGQtOGI4Yy00MDk4LTk0ZjgtYWViNGRiMmVkYWVmKSIvPiYjeGE7ICAgICAgPGc+JiN4YTsgICAgICAgIDxwYXRoIGQ9Ik0yLjk2MSw3LjM3NGguODg4YS4yODQuMjg0LDAsMCwxLC4yODQuMjg0djYuNTUxYS41NjguNTY4LDAsMCwxLS41NjguNTY4SDIuNjc3YTAsMCwwLDAsMSwwLDBWNy42NTlBLjI4NC4yODQsMCwwLDEsMi45NjEsNy4zNzRaIiB0cmFuc2Zvcm09InRyYW5zbGF0ZSgxMy42NTMgMTYuNDg1KSByb3RhdGUoMTM0LjkxOSkiIGZpbGw9IiM1MGU2ZmYiLz4mI3hhOyAgICAgICAgPHBhdGggZD0iTTIuOTEzLDMuMjQ0SDMuOGEuMjg0LjI4NCwwLDAsMSwuMjg0LjI4NHY3LjAxNWEwLDAsMCwwLDEsMCwwSDMuMmEuNTY4LjU2OCwwLDAsMS0uNTY4LS41NjhWMy41MjhhLjI4NC4yODQsMCwwLDEsLjI4NC0uMjg0WiIgdHJhbnNmb3JtPSJ0cmFuc2xhdGUoNS44NDcgLTAuMzU4KSByb3RhdGUoNDQuOTE5KSIgZmlsbD0iIzE0OTBkZiIvPiYjeGE7ICAgICAgICA8cGF0aCBkPSJNMTMuODY3LDcuMzc0aC44ODhhLjU2OC41NjgsMCwwLDEsLjU2OC41Njh2Ni41NTFhLjI4NC4yODQsMCwwLDEtLjI4NC4yODRoLS44ODhhLjI4NC4yODQsMCwwLDEtLjI4NC0uMjg0VjcuMzc0YTAsMCwwLDAsMSwwLDBaIiB0cmFuc2Zvcm09InRyYW5zbGF0ZSgxMi4xMzIgLTcuMDc5KSByb3RhdGUoNDUuMDgxKSIgZmlsbD0iIzUwZTZmZiIvPiYjeGE7ICAgICAgICA8cGF0aCBkPSJNMTQuNDgzLDMuMjQ0aC44ODhhMCwwLDAsMCwxLDAsMHY3LjAxNWEuMjg0LjI4NCwwLDAsMS0uMjg0LjI4NEgxNC4yYS4yODQuMjg0LDAsMCwxLS4yODQtLjI4NFYzLjgxMmEuNTY4LjU2OCwwLDAsMSwuNTY4LS41NjhaIiB0cmFuc2Zvcm09InRyYW5zbGF0ZSgyOS44NzkgMS40MzUpIHJvdGF0ZSgxMzUuMDgxKSIgZmlsbD0iIzE0OTBkZiIvPiYjeGE7ICAgICAgPC9nPiYjeGE7ICAgIDwvZz4mI3hhOyAgPC9nPiYjeGE7PC9zdmc+;base64,PHN2ZyB4bWxucz0iaHR0cDovL3d3dy53My5vcmcvMjAwMC9zdmciIGlkPSJiYzkzMTY5YS0yNGM0LTQ2ODYtOWYzNy1jN2U0ZjUzYjNkMzQiIHdpZHRoPSIxNyIgaGVpZ2h0PSIxNyIgdmlld0JveD0iMC41MDAwMDA0NzY4MzcxNTgyIDAuNSAxNyAxNyI+JiN4YTsgIDxkZWZzPiYjeGE7ICAgIDxyYWRpYWxHcmFkaWVudCBpZD0iZmIxMTRjOTMtN2MxNi00NTQwLTg5OWEtMDc5NjA0MTYyOWU2IiBjeD0iOSIgY3k9IjkiIHI9IjguNSIgZ3JhZGllbnRVbml0cz0idXNlclNwYWNlT25Vc2UiPiYjeGE7ICAgICAgPHN0b3Agb2Zmc2V0PSIwLjE4IiBzdG9wLWNvbG9yPSIjNWVhMGVmIi8+JiN4YTsgICAgICA8c3RvcCBvZmZzZXQ9IjAuNTYiIHN0b3AtY29sb3I9IiM1YzlmZWUiLz4mI3hhOyAgICAgIDxzdG9wIG9mZnNldD0iMC42OSIgc3RvcC1jb2xvcj0iIzU1OWNlZCIvPiYjeGE7ICAgICAgPHN0b3Agb2Zmc2V0PSIwLjc4IiBzdG9wLWNvbG9yPSIjNGE5N2U5Ii8+JiN4YTsgICAgICA8c3RvcCBvZmZzZXQ9IjAuODYiIHN0b3AtY29sb3I9IiMzOTkwZTQiLz4mI3hhOyAgICAgIDxzdG9wIG9mZnNldD0iMC45MyIgc3RvcC1jb2xvcj0iIzIzODdkZSIvPiYjeGE7ICAgICAgPHN0b3Agb2Zmc2V0PSIwLjk5IiBzdG9wLWNvbG9yPSIjMDg3YmQ2Ii8+JiN4YTsgICAgICA8c3RvcCBvZmZzZXQ9IjEiIHN0b3AtY29sb3I9IiMwMDc4ZDQiLz4mI3hhOyAgICA8L3JhZGlhbEdyYWRpZW50PiYjeGE7ICAgIDxyYWRpYWxHcmFkaWVudCBpZD0iZWM0NzhiZDMtNWIzOC00ZTdmLWI2NjEtMTFmMzU1NTc4YmZmIiBjeD0iMzguOTUiIGN5PSIxODIuMDciIHI9IjkuODgiIGdyYWRpZW50VHJhbnNmb3JtPSJ0cmFuc2xhdGUoLTI4LjcxIC0xNjMuMjQpIHNjYWxlKDAuOTQgMC45NCkiIGdyYWRpZW50VW5pdHM9InVzZXJTcGFjZU9uVXNlIj4mI3hhOyAgICAgIDxzdG9wIG9mZnNldD0iMC4yNyIgc3RvcC1jb2xvcj0iI2ZmZDcwZiIvPiYjeGE7ICAgICAgPHN0b3Agb2Zmc2V0PSIwLjQ5IiBzdG9wLWNvbG9yPSIjZmZjYjEyIi8+JiN4YTsgICAgICA8c3RvcCBvZmZzZXQ9IjAuODgiIHN0b3AtY29sb3I9IiNmZWFjMTkiLz4mI3hhOyAgICAgIDxzdG9wIG9mZnNldD0iMSIgc3RvcC1jb2xvcj0iI2ZlYTExYiIvPiYjeGE7ICAgIDwvcmFkaWFsR3JhZGllbnQ+JiN4YTsgIDwvZGVmcz4mI3hhOyAgPHRpdGxlPkljb24tc2VjdXJpdHktMjQ1PC90aXRsZT4mI3hhOyAgPHBhdGggaWQ9ImFhY2Y4MzExLWEzMTctNDAwZi1iNjEzLTc0YmQwMGRhNWNlMyIgZD0iTTksLjVBOC41LDguNSwwLDEsMCwxNy41LDksOC41MSw4LjUxLDAsMCwwLDksLjVaTTksMTYuMzRBNy4zNCw3LjM0LDAsMSwxLDE2LjM0LDksNy4zNCw3LjM0LDAsMCwxLDksMTYuMzRaIiBmaWxsPSJ1cmwoI2ZiMTE0YzkzLTdjMTYtNDU0MC04OTlhLTA3OTYwNDE2MjllNikiLz4mI3hhOyAgPGNpcmNsZSBjeD0iOSIgY3k9IjkiIHI9IjcuMzQiIGZpbGw9IiNmZmYiLz4mI3hhOyAgPGc+JiN4YTsgICAgPHBhdGggaWQ9ImJkOTgzYzQxLWRiNzMtNDBlYy1hNGY0LWRhMTIxM2ZjOTkyNCIgZD0iTTEzLjQ0LDcuMzNhMS44NCwxLjg0LDAsMCwwLDAtMi41OWgwTDEwLjI5LDEuNThhMS44MywxLjgzLDAsMCwwLTIuNTgsMGgwTDQuNTYsNC43NGExLjg0LDEuODQsMCwwLDAsMCwyLjU5TDcuMTgsMTBhLjUxLjUxLDAsMCwxLC4xNS4zNnY0Ljg4YS42My42MywwLDAsMCwuMTguNDRsMS4yLDEuMmEuNDEuNDEsMCwwLDAsLjU4LDBsMS4xNi0xLjE2aDBsLjY4LS42OGEuMjUuMjUsMCwwLDAsMC0uMzRsLS40OS0uNDlhLjI3LjI3LDAsMCwxLDAtLjM3bC40OS0uNDlhLjI1LjI1LDAsMCwwLDAtLjM0bC0uNDktLjQ5YS4yNy4yNywwLDAsMSwwLS4zN2wuNDktLjQ5YS4yNS4yNSwwLDAsMCwwLS4zNGwtLjY4LS42OXYtLjI1Wk05LDIuMzVBMSwxLDAsMCwxLDksNC40MiwxLDEsMCwxLDEsOSwyLjM1WiIgZmlsbD0idXJsKCNlYzQ3OGJkMy01YjM4LTRlN2YtYjY2MS0xMWYzNTU1NzhiZmYpIi8+JiN4YTsgICAgPHBhdGggaWQ9ImFkMmU3ZTQ0LTliZmQtNDc3NS04YmY0LThlZjI2YTU0NDkyMSIgZD0iTTguMTgsMTUuM2gwYS4yMy4yMywwLDAsMCwuMzgtLjE3di00YS4yNC4yNCwwLDAsMC0uMTEtLjJoMGEuMjIuMjIsMCwwLDAtLjM0LjJ2NEEuMjguMjgsMCwwLDAsOC4xOCwxNS4zWiIgZmlsbD0iI2ZmOTMwMCIgb3BhY2l0eT0iMC43NSIvPiYjeGE7ICAgIDxyZWN0IGlkPSJhOTk2ZmJmZi0zOTM2LTRiMjQtYjQwNy0zNjkzMzZjMTQzYmEiIHg9IjYuNDgiIHk9IjUuNzkiIHdpZHRoPSI1LjE3IiBoZWlnaHQ9IjAuNjEiIHJ4PSIwLjI4IiBmaWxsPSIjZmY5MzAwIiBvcGFjaXR5PSIwLjc1Ii8+JiN4YTsgICAgPHJlY3QgaWQ9ImJiMTJkMzFjLTMzNTItNGExOC04N2RkLWExNjlhNGE4NzIxZCIgeD0iNi40OCIgeT0iNi43OCIgd2lkdGg9IjUuMTciIGhlaWdodD0iMC42MSIgcng9IjAuMjgiIGZpbGw9IiNmZjkzMDAiIG9wYWNpdHk9IjAuNzUiLz4mI3hhOyAgPC9nPiYjeGE7PC9zdmc+;base64,PHN2ZyB4bWxucz0iaHR0cDovL3d3dy53My5vcmcvMjAwMC9zdmciIHdpZHRoPSIxOC4wMDM4NjA0NzM2MzI4MTIiIGhlaWdodD0iMTYuNzA3ODA5NDQ4MjQyMTg4IiB2aWV3Qm94PSItMC4wMDQ1NTU5ODA2NzQ5MjI0NjYgMC42NDk5OTk2NzgxMzQ5MTgyIDE4LjAwMzg2MDQ3MzYzMjgxMiAxNi43MDc4MDk0NDgyNDIxODgiPiYjeGE7ICA8ZGVmcz4mI3hhOyAgICA8bGluZWFyR3JhZGllbnQgaWQ9ImZkMDYxMjI4LTIyYmUtNDI1ZS05MTMxLTBiOGNjYTBlNWQxNyIgeDE9IjcuNjk5IiB5MT0iMjU5LjIyIiB4Mj0iNy42OTkiIHkyPSIyNjMuNzExIiBncmFkaWVudFRyYW5zZm9ybT0idHJhbnNsYXRlKDAgLTI1MCkiIGdyYWRpZW50VW5pdHM9InVzZXJTcGFjZU9uVXNlIj4mI3hhOyAgICAgIDxzdG9wIG9mZnNldD0iMC4yMyIgc3RvcC1jb2xvcj0iIzVlYTBlZiIvPiYjeGE7ICAgICAgPHN0b3Agb2Zmc2V0PSIwLjMyIiBzdG9wLWNvbG9yPSIjNWI5ZmVlIi8+JiN4YTsgICAgICA8c3RvcCBvZmZzZXQ9IjAuNDgiIHN0b3AtY29sb3I9IiM1MDlhZWIiLz4mI3hhOyAgICAgIDxzdG9wIG9mZnNldD0iMC41NyIgc3RvcC1jb2xvcj0iIzNmOTJlNiIvPiYjeGE7ICAgICAgPHN0b3Agb2Zmc2V0PSIwLjc1IiBzdG9wLWNvbG9yPSIjMjY4OGRmIi8+JiN4YTsgICAgICA8c3RvcCBvZmZzZXQ9IjAuOTMiIHN0b3AtY29sb3I9IiMxMjdmZDkiLz4mI3hhOyAgICA8L2xpbmVhckdyYWRpZW50PiYjeGE7ICAgIDxsaW5lYXJHcmFkaWVudCBpZD0iZWE5NjQ5YTYtMDRiNS00N2Q2LTgyNDctZWQzYWI5ZmY5ZDA2IiB4MT0iOS45MjciIHkxPSIyNjEuMDkxIiB4Mj0iOS45MjciIHkyPSIyNjUuNTgyIiBncmFkaWVudFRyYW5zZm9ybT0idHJhbnNsYXRlKDAgLTI1MCkiIGdyYWRpZW50VW5pdHM9InVzZXJTcGFjZU9uVXNlIj4mI3hhOyAgICAgIDxzdG9wIG9mZnNldD0iMC4wMiIgc3RvcC1jb2xvcj0iIzVlYTBlZiIvPiYjeGE7ICAgICAgPHN0b3Agb2Zmc2V0PSIwLjE0IiBzdG9wLWNvbG9yPSIjNWI5ZmVlIi8+JiN4YTsgICAgICA8c3RvcCBvZmZzZXQ9IjAuMjMiIHN0b3AtY29sb3I9IiM1YjlmZWUiLz4mI3hhOyAgICAgIDxzdG9wIG9mZnNldD0iMC4zNCIgc3RvcC1jb2xvcj0iIzUwOWFlYiIvPiYjeGE7ICAgICAgPHN0b3Agb2Zmc2V0PSIwLjQ0IiBzdG9wLWNvbG9yPSIjM2Y5MmU2Ii8+JiN4YTsgICAgICA8c3RvcCBvZmZzZXQ9IjAuNjMiIHN0b3AtY29sb3I9IiMyNjg4ZGYiLz4mI3hhOyAgICAgIDxzdG9wIG9mZnNldD0iMC45MyIgc3RvcC1jb2xvcj0iIzEyN2ZkOSIvPiYjeGE7ICAgIDwvbGluZWFyR3JhZGllbnQ+JiN4YTsgIDwvZGVmcz4mI3hhOyAgPHBhdGggZD0iTTguMjUyLDIuNTIxSDkuMzc0VjkuNTk0SDguMjUyWiIgZmlsbD0iIzdhN2E3YSIvPiYjeGE7ICA8cGF0aCBkPSJNMTAuNDU5LDIuM0ExLjY0NywxLjY0NywwLDEsMSw4LjgxMy42NWgwQTEuNjQ2LDEuNjQ2LDAsMCwxLDEwLjQ1OSwyLjNaIiBmaWxsPSIjMTQ5MGRmIi8+JiN4YTsgIDxwYXRoIGQ9Ik04LjU4OCw5LjIyaC0xLjhhMi4yNDYsMi4yNDYsMCwwLDAtLjM0OCw0LjQ2MSwyLjQxNSwyLjQxNSwwLDAsMSwuMDIyLS44MzUsMS40MTgsMS40MTgsMCwwLDEsLjMyNi0yLjhoMS44YTEuNDIyLDEuNDIyLDAsMCwxLDAsMi44NDRIOC4wOTRhMS4wNzgsMS4wNzgsMCwwLDAtLjEuNDUsMS4wMjIsMS4wMjIsMCwwLDAsLjA3MS4zNzRoLjUyN2EyLjI0NiwyLjI0NiwwLDEsMCwwLTQuNDkxWiIgZmlsbD0idXJsKCNmZDA2MTIyOC0yMmJlLTQyNWUtOTEzMS0wYjhjY2EwZTVkMTcpIi8+JiN4YTsgIDxwYXRoIGQ9Ik0xMS4xODIsMTEuMTIxYTIuNjQyLDIuNjQyLDAsMCwxLC4wMjYuMzQ0LDIuMzE3LDIuMzE3LDAsMCwxLS4wNDkuNDkxLDEuNDE4LDEuNDE4LDAsMCwxLS4zMjUsMi44aC0xLjhhMS40MjMsMS40MjMsMCwwLDEsMC0yLjg0NWguNDk0YTEuMDQyLDEuMDQyLDAsMCwwLC4xLS40NDksMS4wMTgsMS4wMTgsMCwwLDAtLjA3MS0uMzc0SDkuMDM3YTIuMjQ2LDIuMjQ2LDAsMCwwLDAsNC40OTFoMS44YTIuMjQ2LDIuMjQ2LDAsMCwwLC4zNDgtNC40NjFaIiBmaWxsPSJ1cmwoI2VhOTY0OWE2LTA0YjUtNDdkNi04MjQ3LWVkM2FiOWZmOWQwNikiLz4mI3hhOyAgPHBhdGggZD0iTTUuNTgsMTYuNTI1bC0uNDEyLjQxNWEuMjguMjgsMCwwLDEtLjQsMGwtNC42MDctNC42YS41NjYuNTY2LDAsMCwxLDAtLjhsLjQxNi0uNDEyLDUsNC45OTJhLjI3Ni4yNzYsMCwwLDEsMCwuMzkxaDBaIiBmaWxsPSIjNTBlNmZmIi8+JiN4YTsgIDxwYXRoIGQ9Ik01LjA4Miw3LjAybC40Ni40NmEuMjgyLjI4MiwwLDAsMSwwLC40TC42MjUsMTIuODA5bC0uNDYxLS40NTdhLjU2Ni41NjYsMCwwLDEsMC0uOEw0LjY4NSw3LjAyQS4yOC4yOCwwLDAsMSw1LjA4Miw3LjAyWiIgZmlsbD0iIzE0OTBkZiIvPiYjeGE7ICA8cGF0aCBkPSJNMTIuNDE3LDE2Ljg1MWEuMjc4LjI3OCwwLDAsMS0uMDA2LS4zOTJoMGwuMDA2LDAsNS00Ljk4OS40MTYuNDE2YS41NjYuNTY2LDAsMCwxLDAsLjhsLTQuNjExLDQuNTg4YS4yNzcuMjc3LDAsMCwxLS4zOTEuMDA2aDBsLS4wMDYtLjAwNVoiIGZpbGw9IiM1MGU2ZmYiLz4mI3hhOyAgPHBhdGggZD0iTTEzLjMxMSw3LjM0OWw0LjUyNSw0LjUzNmEuNTYzLjU2MywwLDAsMSwwLC43OTNsLS40NjEuNDZMMTIuNDU0LDguMjA2YS4yODkuMjg5LDAsMCwxLDAtLjRsLjQ2LS40NTZBLjI4Mi4yODIsMCwwLDEsMTMuMzExLDcuMzQ5WiIgZmlsbD0iIzE0OTBkZiIvPiYjeGE7PC9zdmc+;base64,PHN2ZyB4bWxucz0iaHR0cDovL3d3dy53My5vcmcvMjAwMC9zdmciIHdpZHRoPSIxOC4wMDA4NjAyMTQyMzM0IiBoZWlnaHQ9IjEwLjQyMDkxODQ2NDY2MDY0NSIgdmlld0JveD0iLTAuMDAxNTU1NDk4ODA1ODI4MzkyNSAzLjc5NDMwNDEzMjQ2MTU0OCAxOC4wMDA4NjAyMTQyMzM0IDEwLjQyMDkxODQ2NDY2MDY0NSI+JiN4YTsgIDxkZWZzPiYjeGE7ICAgIDxsaW5lYXJHcmFkaWVudCBpZD0iZWUzOTVkN2QtOWUxMS00MDkzLWI0NTUtOWI2Y2E5ZTE1YTYzIiB4MT0iNy42OTkiIHkxPSI5NTYuMDc2IiB4Mj0iNy42OTkiIHkyPSI5NjAuNTY3IiBncmFkaWVudFRyYW5zZm9ybT0idHJhbnNsYXRlKDAgLTk1MCkiIGdyYWRpZW50VW5pdHM9InVzZXJTcGFjZU9uVXNlIj4mI3hhOyAgICAgIDxzdG9wIG9mZnNldD0iMC4yMyIgc3RvcC1jb2xvcj0iIzVlYTBlZiIvPiYjeGE7ICAgICAgPHN0b3Agb2Zmc2V0PSIwLjkzIiBzdG9wLWNvbG9yPSIjMTI3ZmQ5Ii8+JiN4YTsgICAgPC9saW5lYXJHcmFkaWVudD4mI3hhOyAgICA8bGluZWFyR3JhZGllbnQgaWQ9ImI4MTA1MzI4LWMyYzQtNDkyMy04ZDE4LTZjODQ0ZThhMzg5ZSIgeDE9IjkuOTI3IiB5MT0iOTU3Ljk0NyIgeDI9IjkuOTI3IiB5Mj0iOTYyLjQzOCIgZ3JhZGllbnRUcmFuc2Zvcm09InRyYW5zbGF0ZSgwIC05NTApIiBncmFkaWVudFVuaXRzPSJ1c2VyU3BhY2VPblVzZSI+JiN4YTsgICAgICA8c3RvcCBvZmZzZXQ9IjAuMDIiIHN0b3AtY29sb3I9IiM1ZWEwZWYiLz4mI3hhOyAgICAgIDxzdG9wIG9mZnNldD0iMC45MyIgc3RvcC1jb2xvcj0iIzEyN2ZkOSIvPiYjeGE7ICAgIDwvbGluZWFyR3JhZGllbnQ+JiN4YTsgIDwvZGVmcz4mI3hhOyAgPGcgaWQ9ImE1MjI5ZTdhLTJjNzgtNGRiOS05OWNjLWNhN2ZiZTY0MzY4YiI+JiN4YTsgICAgPGc+JiN4YTsgICAgICA8cGF0aCBkPSJNOC41ODgsNi4wNzZoLTEuOGEyLjI0NiwyLjI0NiwwLDAsMC0uMzQ4LDQuNDYxQTIuNDA5LDIuNDA5LDAsMCwxLDYuNDY2LDkuN2ExLjQxOCwxLjQxOCwwLDAsMSwuMzI2LTIuOGgxLjhhMS40MjIsMS40MjIsMCwwLDEsMCwyLjg0NEg4LjA5NGExLjA3LDEuMDcsMCwwLDAtLjEuNDQ5LDEuMDE4LDEuMDE4LDAsMCwwLC4wNzEuMzc0aC41MjdhMi4yNDYsMi4yNDYsMCwxLDAsMC00LjQ5MVoiIGZpbGw9InVybCgjZWUzOTVkN2QtOWUxMS00MDkzLWI0NTUtOWI2Y2E5ZTE1YTYzKSIvPiYjeGE7ICAgICAgPHBhdGggZD0iTTExLjE4Miw3Ljk3N2EyLjY0NCwyLjY0NCwwLDAsMSwuMDI2LjM0NSwyLjMwOCwyLjMwOCwwLDAsMS0uMDQ5LjQ5LDEuNDE4LDEuNDE4LDAsMCwxLS4zMjUsMi44aC0xLjhhMS40MjIsMS40MjIsMCwwLDEsMC0yLjg0NGguNDk0YTEuMDQ1LDEuMDQ1LDAsMCwwLC4xLS40NDksMS4wMjgsMS4wMjgsMCwwLDAtLjA3MS0uMzc1SDkuMDM3YTIuMjQ2LDIuMjQ2LDAsMCwwLDAsNC40OTFoMS44YTIuMjQ2LDIuMjQ2LDAsMCwwLC4zNDgtNC40NjFaIiBmaWxsPSJ1cmwoI2I4MTA1MzI4LWMyYzQtNDkyMy04ZDE4LTZjODQ0ZThhMzg5ZSkiLz4mI3hhOyAgICAgIDxwYXRoIGQ9Ik01LjU4LDEzLjM4MWwtLjQxMi40MTZhLjI4Mi4yODIsMCwwLDEtLjQsMEwuMTY0LDkuMmEuNTY2LjU2NiwwLDAsMSwwLS44TC41OCw3Ljk5Mmw1LDQuOTkzYS4yNzYuMjc2LDAsMCwxLDAsLjM5MWgwWiIgZmlsbD0iIzUwZTZmZiIvPiYjeGE7ICAgICAgPHBhdGggZD0iTTUuMDgyLDMuODc2bC40Ni40NmEuMjgyLjI4MiwwLDAsMSwwLC40TC42MjUsOS42NjUuMTY0LDkuMjA5YS41NjYuNTY2LDAsMCwxLDAtLjhMNC42ODUsMy44NzZBLjI4Mi4yODIsMCwwLDEsNS4wODIsMy44NzZaIiBmaWxsPSIjMTQ5MGRmIi8+JiN4YTsgICAgICA8cGF0aCBkPSJNMTIuNDE3LDEzLjcwN2EuMjc2LjI3NiwwLDAsMS0uMDA2LS4zOTFoMGwuMDA2LDAsNS00Ljk4OC40MTYuNDE1YS41NjYuNTY2LDAsMCwxLDAsLjhsLTQuNjExLDQuNTg4YS4yNzYuMjc2LDAsMCwxLS4zOTEuMDA2aDBsLS4wMDYtLjAwNVoiIGZpbGw9IiM1MGU2ZmYiLz4mI3hhOyAgICAgIDxwYXRoIGQ9Ik0xMy4zMTEsNC4yMDVsNC41MjUsNC41MzZhLjU2My41NjMsMCwwLDEsMCwuNzkzbC0uNDYxLjQ2TDEyLjQ1NCw1LjA2MmEuMjg3LjI4NywwLDAsMSwwLS40bC40Ni0uNDU3QS4yODIuMjgyLDAsMCwxLDEzLjMxMSw0LjIwNVoiIGZpbGw9IiMxNDkwZGYiLz4mI3hhOyAgICA8L2c+JiN4YTsgIDwvZz4mI3hhOzwvc3ZnPg==;base64,PHN2ZyB4bWxucz0iaHR0cDovL3d3dy53My5vcmcvMjAwMC9zdmciIGlkPSJmMmYwNDM0OS04YWVlLTQ0MTMtODRjOS1hOTA1MzYxMWIzMTkiIHdpZHRoPSIxNyIgaGVpZ2h0PSIxMy42Njk5OTkxMjI2MTk2MjkiIHZpZXdCb3g9IjAuNSAyLjE3MDAwMDA3NjI5Mzk0NTMgMTcgMTMuNjY5OTk5MTIyNjE5NjI5Ij4mI3hhOyAgPGRlZnM+JiN4YTsgICAgPGxpbmVhckdyYWRpZW50IGlkPSJhZDRjNGY5Ni0wOWFhLTRmOTEtYmExMC01Y2I4YWQ1MzBmNzQiIHgxPSI5IiB5MT0iMTUuODMiIHgyPSI5IiB5Mj0iNS43OSIgZ3JhZGllbnRVbml0cz0idXNlclNwYWNlT25Vc2UiPiYjeGE7ICAgICAgPHN0b3Agb2Zmc2V0PSIwIiBzdG9wLWNvbG9yPSIjYjNiM2IzIi8+JiN4YTsgICAgICA8c3RvcCBvZmZzZXQ9IjAuMjYiIHN0b3AtY29sb3I9IiNjMWMxYzEiLz4mI3hhOyAgICAgIDxzdG9wIG9mZnNldD0iMSIgc3RvcC1jb2xvcj0iI2U2ZTZlNiIvPiYjeGE7ICAgIDwvbGluZWFyR3JhZGllbnQ+JiN4YTsgIDwvZGVmcz4mI3hhOyAgPHRpdGxlPkljb24tc3RvcmFnZS04NjwvdGl0bGU+JiN4YTsgIDxwYXRoIGQ9Ik0uNSw1Ljc5aDE3YTAsMCwwLDAsMSwwLDB2OS40OGEuNTcuNTcsMCwwLDEtLjU3LjU3SDEuMDdhLjU3LjU3LDAsMCwxLS41Ny0uNTdWNS43OUEwLDAsMCwwLDEsLjUsNS43OVoiIGZpbGw9InVybCgjYWQ0YzRmOTYtMDlhYS00ZjkxLWJhMTAtNWNiOGFkNTMwZjc0KSIvPiYjeGE7ICA8cGF0aCBkPSJNMS4wNywyLjE3SDE2LjkzYS41Ny41NywwLDAsMSwuNTcuNTdWNS43OWEwLDAsMCwwLDEsMCwwSC41YTAsMCwwLDAsMSwwLDBWMi43M0EuNTcuNTcsMCwwLDEsMS4wNywyLjE3WiIgZmlsbD0iIzM3YzJiMSIvPiYjeGE7ICA8cGF0aCBkPSJNMi44MSw2Ljg5SDE1LjE4YS4yNy4yNywwLDAsMSwuMjYuMjd2MS40YS4yNy4yNywwLDAsMS0uMjYuMjdIMi44MWEuMjcuMjcsMCwwLDEtLjI2LS4yN1Y3LjE2QS4yNy4yNywwLDAsMSwyLjgxLDYuODlaIiBmaWxsPSIjZmZmIi8+JiN4YTsgIDxwYXRoIGQ9Ik0yLjgyLDkuNjhIMTUuMTlhLjI3LjI3LDAsMCwxLC4yNi4yN3YxLjQxYS4yNy4yNywwLDAsMS0uMjYuMjdIMi44MmEuMjcuMjcsMCwwLDEtLjI2LS4yN1YxMEEuMjcuMjcsMCwwLDEsMi44Miw5LjY4WiIgZmlsbD0iIzM3YzJiMSIvPiYjeGE7ICA8cGF0aCBkPSJNMi44MiwxMi41SDE1LjE5YS4yNy4yNywwLDAsMSwuMjYuMjd2MS40MWEuMjcuMjcsMCwwLDEtLjI2LjI3SDIuODJhLjI3LjI3LDAsMCwxLS4yNi0uMjdWMTIuNzdBLjI3LjI3LDAsMCwxLDIuODIsMTIuNVoiIGZpbGw9IiMyNTgyNzciLz4mI3hhOzwvc3ZnPg==;" vertex="1" parent="1">
                    <mxGeometry x="186.69" y="397.65" width="20" height="28.34" as="geometry"/>
                </mxCell>
                <mxCell id="74" style="edgeStyle=orthogonalEdgeStyle;rounded=0;orthogonalLoop=1;jettySize=auto;html=1;exitX=1;exitY=0.5;exitDx=0;exitDy=0;entryX=0;entryY=0.5;entryDx=0;entryDy=0;strokeColor=#0E8088;" edge="1" parent="1" source="33" target="41">
                    <mxGeometry relative="1" as="geometry">
                        <Array as="points">
                            <mxPoint x="258.69" y="233"/>
                        </Array>
                    </mxGeometry>
                </mxCell>
                <mxCell id="33" value="" style="shape=image;imageAspect=0;aspect=fixed;verticalLabelPosition=bottom;verticalAlign=top;image=data:image/svg+xml,PHN2ZyB4bWxucz0iaHR0cDovL3d3dy53My5vcmcvMjAwMC9zdmciIGlkPSJmMmYwNDM0OS04YWVlLTQ0MTMtODRjOS1hOTA1MzYxMWIzMTkiIHdpZHRoPSIxNyIgaGVpZ2h0PSIxMy42Njk5OTkxMjI2MTk2MjkiIHZpZXdCb3g9IjAuNSAyLjE3MDAwMDA3NjI5Mzk0NTMgMTcgMTMuNjY5OTk5MTIyNjE5NjI5Ij4mI3hhOyAgPGRlZnM+JiN4YTsgICAgPGxpbmVhckdyYWRpZW50IGlkPSJhZDRjNGY5Ni0wOWFhLTRmOTEtYmExMC01Y2I4YWQ1MzBmNzQiIHgxPSI5IiB5MT0iMTUuODMiIHgyPSI5IiB5Mj0iNS43OSIgZ3JhZGllbnRVbml0cz0idXNlclNwYWNlT25Vc2UiPiYjeGE7ICAgICAgPHN0b3Agb2Zmc2V0PSIwIiBzdG9wLWNvbG9yPSIjYjNiM2IzIi8+JiN4YTsgICAgICA8c3RvcCBvZmZzZXQ9IjAuMjYiIHN0b3AtY29sb3I9IiNjMWMxYzEiLz4mI3hhOyAgICAgIDxzdG9wIG9mZnNldD0iMSIgc3RvcC1jb2xvcj0iI2U2ZTZlNiIvPiYjeGE7ICAgIDwvbGluZWFyR3JhZGllbnQ+JiN4YTsgIDwvZGVmcz4mI3hhOyAgPHRpdGxlPkljb24tc3RvcmFnZS04NjwvdGl0bGU+JiN4YTsgIDxwYXRoIGQ9Ik0uNSw1Ljc5aDE3YTAsMCwwLDAsMSwwLDB2OS40OGEuNTcuNTcsMCwwLDEtLjU3LjU3SDEuMDdhLjU3LjU3LDAsMCwxLS41Ny0uNTdWNS43OUEwLDAsMCwwLDEsLjUsNS43OVoiIGZpbGw9InVybCgjYWQ0YzRmOTYtMDlhYS00ZjkxLWJhMTAtNWNiOGFkNTMwZjc0KSIvPiYjeGE7ICA8cGF0aCBkPSJNMS4wNywyLjE3SDE2LjkzYS41Ny41NywwLDAsMSwuNTcuNTdWNS43OWEwLDAsMCwwLDEsMCwwSC41YTAsMCwwLDAsMSwwLDBWMi43M0EuNTcuNTcsMCwwLDEsMS4wNywyLjE3WiIgZmlsbD0iIzM3YzJiMSIvPiYjeGE7ICA8cGF0aCBkPSJNMi44MSw2Ljg5SDE1LjE4YS4yNy4yNywwLDAsMSwuMjYuMjd2MS40YS4yNy4yNywwLDAsMS0uMjYuMjdIMi44MWEuMjcuMjcsMCwwLDEtLjI2LS4yN1Y3LjE2QS4yNy4yNywwLDAsMSwyLjgxLDYuODlaIiBmaWxsPSIjZmZmIi8+JiN4YTsgIDxwYXRoIGQ9Ik0yLjgyLDkuNjhIMTUuMTlhLjI3LjI3LDAsMCwxLC4yNi4yN3YxLjQxYS4yNy4yNywwLDAsMS0uMjYuMjdIMi44MmEuMjcuMjcsMCwwLDEtLjI2LS4yN1YxMEEuMjcuMjcsMCwwLDEsMi44Miw5LjY4WiIgZmlsbD0iIzM3YzJiMSIvPiYjeGE7ICA8cGF0aCBkPSJNMi44MiwxMi41SDE1LjE5YS4yNy4yNywwLDAsMSwuMjYuMjd2MS40MWEuMjcuMjcsMCwwLDEtLjI2LjI3SDIuODJhLjI3LjI3LDAsMCwxLS4yNi0uMjdWMTIuNzdBLjI3LjI3LDAsMCwxLDIuODIsMTIuNVoiIGZpbGw9IiMyNTgyNzciLz4mI3hhOzwvc3ZnPg==;" vertex="1" parent="1">
                    <mxGeometry x="219.69" y="219.58999999999997" width="31.75" height="26.15" as="geometry"/>
                </mxCell>
                <mxCell id="73" style="edgeStyle=orthogonalEdgeStyle;rounded=0;orthogonalLoop=1;jettySize=auto;html=1;exitX=1;exitY=0.5;exitDx=0;exitDy=0;entryX=0;entryY=0.75;entryDx=0;entryDy=0;strokeColor=#D6B656;" edge="1" parent="1" source="35" target="21">
                    <mxGeometry relative="1" as="geometry"/>
                </mxCell>
                <mxCell id="35" value="" style="shape=image;imageAspect=0;aspect=fixed;verticalLabelPosition=bottom;verticalAlign=top;image=data:image/svg+xml,PHN2ZyB4bWxucz0iaHR0cDovL3d3dy53My5vcmcvMjAwMC9zdmciIHdpZHRoPSIxOC4wMDA4NjAyMTQyMzM0IiBoZWlnaHQ9IjEwLjQyMDkxODQ2NDY2MDY0NSIgdmlld0JveD0iLTAuMDAxNTU1NDk4ODA1ODI4MzkyNSAzLjc5NDMwNDEzMjQ2MTU0OCAxOC4wMDA4NjAyMTQyMzM0IDEwLjQyMDkxODQ2NDY2MDY0NSI+JiN4YTsgIDxkZWZzPiYjeGE7ICAgIDxsaW5lYXJHcmFkaWVudCBpZD0iZWUzOTVkN2QtOWUxMS00MDkzLWI0NTUtOWI2Y2E5ZTE1YTYzIiB4MT0iNy42OTkiIHkxPSI5NTYuMDc2IiB4Mj0iNy42OTkiIHkyPSI5NjAuNTY3IiBncmFkaWVudFRyYW5zZm9ybT0idHJhbnNsYXRlKDAgLTk1MCkiIGdyYWRpZW50VW5pdHM9InVzZXJTcGFjZU9uVXNlIj4mI3hhOyAgICAgIDxzdG9wIG9mZnNldD0iMC4yMyIgc3RvcC1jb2xvcj0iIzVlYTBlZiIvPiYjeGE7ICAgICAgPHN0b3Agb2Zmc2V0PSIwLjkzIiBzdG9wLWNvbG9yPSIjMTI3ZmQ5Ii8+JiN4YTsgICAgPC9saW5lYXJHcmFkaWVudD4mI3hhOyAgICA8bGluZWFyR3JhZGllbnQgaWQ9ImI4MTA1MzI4LWMyYzQtNDkyMy04ZDE4LTZjODQ0ZThhMzg5ZSIgeDE9IjkuOTI3IiB5MT0iOTU3Ljk0NyIgeDI9IjkuOTI3IiB5Mj0iOTYyLjQzOCIgZ3JhZGllbnRUcmFuc2Zvcm09InRyYW5zbGF0ZSgwIC05NTApIiBncmFkaWVudFVuaXRzPSJ1c2VyU3BhY2VPblVzZSI+JiN4YTsgICAgICA8c3RvcCBvZmZzZXQ9IjAuMDIiIHN0b3AtY29sb3I9IiM1ZWEwZWYiLz4mI3hhOyAgICAgIDxzdG9wIG9mZnNldD0iMC45MyIgc3RvcC1jb2xvcj0iIzEyN2ZkOSIvPiYjeGE7ICAgIDwvbGluZWFyR3JhZGllbnQ+JiN4YTsgIDwvZGVmcz4mI3hhOyAgPGcgaWQ9ImE1MjI5ZTdhLTJjNzgtNGRiOS05OWNjLWNhN2ZiZTY0MzY4YiI+JiN4YTsgICAgPGc+JiN4YTsgICAgICA8cGF0aCBkPSJNOC41ODgsNi4wNzZoLTEuOGEyLjI0NiwyLjI0NiwwLDAsMC0uMzQ4LDQuNDYxQTIuNDA5LDIuNDA5LDAsMCwxLDYuNDY2LDkuN2ExLjQxOCwxLjQxOCwwLDAsMSwuMzI2LTIuOGgxLjhhMS40MjIsMS40MjIsMCwwLDEsMCwyLjg0NEg4LjA5NGExLjA3LDEuMDcsMCwwLDAtLjEuNDQ5LDEuMDE4LDEuMDE4LDAsMCwwLC4wNzEuMzc0aC41MjdhMi4yNDYsMi4yNDYsMCwxLDAsMC00LjQ5MVoiIGZpbGw9InVybCgjZWUzOTVkN2QtOWUxMS00MDkzLWI0NTUtOWI2Y2E5ZTE1YTYzKSIvPiYjeGE7ICAgICAgPHBhdGggZD0iTTExLjE4Miw3Ljk3N2EyLjY0NCwyLjY0NCwwLDAsMSwuMDI2LjM0NSwyLjMwOCwyLjMwOCwwLDAsMS0uMDQ5LjQ5LDEuNDE4LDEuNDE4LDAsMCwxLS4zMjUsMi44aC0xLjhhMS40MjIsMS40MjIsMCwwLDEsMC0yLjg0NGguNDk0YTEuMDQ1LDEuMDQ1LDAsMCwwLC4xLS40NDksMS4wMjgsMS4wMjgsMCwwLDAtLjA3MS0uMzc1SDkuMDM3YTIuMjQ2LDIuMjQ2LDAsMCwwLDAsNC40OTFoMS44YTIuMjQ2LDIuMjQ2LDAsMCwwLC4zNDgtNC40NjFaIiBmaWxsPSJ1cmwoI2I4MTA1MzI4LWMyYzQtNDkyMy04ZDE4LTZjODQ0ZThhMzg5ZSkiLz4mI3hhOyAgICAgIDxwYXRoIGQ9Ik01LjU4LDEzLjM4MWwtLjQxMi40MTZhLjI4Mi4yODIsMCwwLDEtLjQsMEwuMTY0LDkuMmEuNTY2LjU2NiwwLDAsMSwwLS44TC41OCw3Ljk5Mmw1LDQuOTkzYS4yNzYuMjc2LDAsMCwxLDAsLjM5MWgwWiIgZmlsbD0iIzUwZTZmZiIvPiYjeGE7ICAgICAgPHBhdGggZD0iTTUuMDgyLDMuODc2bC40Ni40NmEuMjgyLjI4MiwwLDAsMSwwLC40TC42MjUsOS42NjUuMTY0LDkuMjA5YS41NjYuNTY2LDAsMCwxLDAtLjhMNC42ODUsMy44NzZBLjI4Mi4yODIsMCwwLDEsNS4wODIsMy44NzZaIiBmaWxsPSIjMTQ5MGRmIi8+JiN4YTsgICAgICA8cGF0aCBkPSJNMTIuNDE3LDEzLjcwN2EuMjc2LjI3NiwwLDAsMS0uMDA2LS4zOTFoMGwuMDA2LDAsNS00Ljk4OC40MTYuNDE1YS41NjYuNTY2LDAsMCwxLDAsLjhsLTQuNjExLDQuNTg4YS4yNzYuMjc2LDAsMCwxLS4zOTEuMDA2aDBsLS4wMDYtLjAwNVoiIGZpbGw9IiM1MGU2ZmYiLz4mI3hhOyAgICAgIDxwYXRoIGQ9Ik0xMy4zMTEsNC4yMDVsNC41MjUsNC41MzZhLjU2My41NjMsMCwwLDEsMCwuNzkzbC0uNDYxLjQ2TDEyLjQ1NCw1LjA2MmEuMjg3LjI4NywwLDAsMSwwLS40bC40Ni0uNDU3QS4yODIuMjgyLDAsMCwxLDEzLjMxMSw0LjIwNVoiIGZpbGw9IiMxNDkwZGYiLz4mI3hhOyAgICA8L2c+JiN4YTsgIDwvZz4mI3hhOzwvc3ZnPg==;" vertex="1" parent="1">
                    <mxGeometry x="276.69" y="190.67000000000002" width="30" height="16.67" as="geometry"/>
                </mxCell>
                <mxCell id="36" style="edgeStyle=orthogonalEdgeStyle;rounded=0;orthogonalLoop=1;jettySize=auto;html=1;exitX=1;exitY=0.5;exitDx=0;exitDy=0;fillColor=#fff2cc;strokeColor=#d6b656;entryX=0;entryY=0.5;entryDx=0;entryDy=0;" edge="1" parent="1" source="37" target="35">
                    <mxGeometry relative="1" as="geometry">
                        <mxPoint x="276.69" y="189" as="targetPoint"/>
                    </mxGeometry>
                </mxCell>
                <mxCell id="37" value="" style="shape=image;imageAspect=0;aspect=fixed;verticalLabelPosition=bottom;verticalAlign=top;image=data:image/svg+xml,PHN2ZyB4bWxucz0iaHR0cDovL3d3dy53My5vcmcvMjAwMC9zdmciIGlkPSJiYzkzMTY5YS0yNGM0LTQ2ODYtOWYzNy1jN2U0ZjUzYjNkMzQiIHdpZHRoPSIxNyIgaGVpZ2h0PSIxNyIgdmlld0JveD0iMC41MDAwMDA0NzY4MzcxNTgyIDAuNSAxNyAxNyI+JiN4YTsgIDxkZWZzPiYjeGE7ICAgIDxyYWRpYWxHcmFkaWVudCBpZD0iZmIxMTRjOTMtN2MxNi00NTQwLTg5OWEtMDc5NjA0MTYyOWU2IiBjeD0iOSIgY3k9IjkiIHI9IjguNSIgZ3JhZGllbnRVbml0cz0idXNlclNwYWNlT25Vc2UiPiYjeGE7ICAgICAgPHN0b3Agb2Zmc2V0PSIwLjE4IiBzdG9wLWNvbG9yPSIjNWVhMGVmIi8+JiN4YTsgICAgICA8c3RvcCBvZmZzZXQ9IjAuNTYiIHN0b3AtY29sb3I9IiM1YzlmZWUiLz4mI3hhOyAgICAgIDxzdG9wIG9mZnNldD0iMC42OSIgc3RvcC1jb2xvcj0iIzU1OWNlZCIvPiYjeGE7ICAgICAgPHN0b3Agb2Zmc2V0PSIwLjc4IiBzdG9wLWNvbG9yPSIjNGE5N2U5Ii8+JiN4YTsgICAgICA8c3RvcCBvZmZzZXQ9IjAuODYiIHN0b3AtY29sb3I9IiMzOTkwZTQiLz4mI3hhOyAgICAgIDxzdG9wIG9mZnNldD0iMC45MyIgc3RvcC1jb2xvcj0iIzIzODdkZSIvPiYjeGE7ICAgICAgPHN0b3Agb2Zmc2V0PSIwLjk5IiBzdG9wLWNvbG9yPSIjMDg3YmQ2Ii8+JiN4YTsgICAgICA8c3RvcCBvZmZzZXQ9IjEiIHN0b3AtY29sb3I9IiMwMDc4ZDQiLz4mI3hhOyAgICA8L3JhZGlhbEdyYWRpZW50PiYjeGE7ICAgIDxyYWRpYWxHcmFkaWVudCBpZD0iZWM0NzhiZDMtNWIzOC00ZTdmLWI2NjEtMTFmMzU1NTc4YmZmIiBjeD0iMzguOTUiIGN5PSIxODIuMDciIHI9IjkuODgiIGdyYWRpZW50VHJhbnNmb3JtPSJ0cmFuc2xhdGUoLTI4LjcxIC0xNjMuMjQpIHNjYWxlKDAuOTQgMC45NCkiIGdyYWRpZW50VW5pdHM9InVzZXJTcGFjZU9uVXNlIj4mI3hhOyAgICAgIDxzdG9wIG9mZnNldD0iMC4yNyIgc3RvcC1jb2xvcj0iI2ZmZDcwZiIvPiYjeGE7ICAgICAgPHN0b3Agb2Zmc2V0PSIwLjQ5IiBzdG9wLWNvbG9yPSIjZmZjYjEyIi8+JiN4YTsgICAgICA8c3RvcCBvZmZzZXQ9IjAuODgiIHN0b3AtY29sb3I9IiNmZWFjMTkiLz4mI3hhOyAgICAgIDxzdG9wIG9mZnNldD0iMSIgc3RvcC1jb2xvcj0iI2ZlYTExYiIvPiYjeGE7ICAgIDwvcmFkaWFsR3JhZGllbnQ+JiN4YTsgIDwvZGVmcz4mI3hhOyAgPHRpdGxlPkljb24tc2VjdXJpdHktMjQ1PC90aXRsZT4mI3hhOyAgPHBhdGggaWQ9ImFhY2Y4MzExLWEzMTctNDAwZi1iNjEzLTc0YmQwMGRhNWNlMyIgZD0iTTksLjVBOC41LDguNSwwLDEsMCwxNy41LDksOC41MSw4LjUxLDAsMCwwLDksLjVaTTksMTYuMzRBNy4zNCw3LjM0LDAsMSwxLDE2LjM0LDksNy4zNCw3LjM0LDAsMCwxLDksMTYuMzRaIiBmaWxsPSJ1cmwoI2ZiMTE0YzkzLTdjMTYtNDU0MC04OTlhLTA3OTYwNDE2MjllNikiLz4mI3hhOyAgPGNpcmNsZSBjeD0iOSIgY3k9IjkiIHI9IjcuMzQiIGZpbGw9IiNmZmYiLz4mI3hhOyAgPGc+JiN4YTsgICAgPHBhdGggaWQ9ImJkOTgzYzQxLWRiNzMtNDBlYy1hNGY0LWRhMTIxM2ZjOTkyNCIgZD0iTTEzLjQ0LDcuMzNhMS44NCwxLjg0LDAsMCwwLDAtMi41OWgwTDEwLjI5LDEuNThhMS44MywxLjgzLDAsMCwwLTIuNTgsMGgwTDQuNTYsNC43NGExLjg0LDEuODQsMCwwLDAsMCwyLjU5TDcuMTgsMTBhLjUxLjUxLDAsMCwxLC4xNS4zNnY0Ljg4YS42My42MywwLDAsMCwuMTguNDRsMS4yLDEuMmEuNDEuNDEsMCwwLDAsLjU4LDBsMS4xNi0xLjE2aDBsLjY4LS42OGEuMjUuMjUsMCwwLDAsMC0uMzRsLS40OS0uNDlhLjI3LjI3LDAsMCwxLDAtLjM3bC40OS0uNDlhLjI1LjI1LDAsMCwwLDAtLjM0bC0uNDktLjQ5YS4yNy4yNywwLDAsMSwwLS4zN2wuNDktLjQ5YS4yNS4yNSwwLDAsMCwwLS4zNGwtLjY4LS42OXYtLjI1Wk05LDIuMzVBMSwxLDAsMCwxLDksNC40MiwxLDEsMCwxLDEsOSwyLjM1WiIgZmlsbD0idXJsKCNlYzQ3OGJkMy01YjM4LTRlN2YtYjY2MS0xMWYzNTU1NzhiZmYpIi8+JiN4YTsgICAgPHBhdGggaWQ9ImFkMmU3ZTQ0LTliZmQtNDc3NS04YmY0LThlZjI2YTU0NDkyMSIgZD0iTTguMTgsMTUuM2gwYS4yMy4yMywwLDAsMCwuMzgtLjE3di00YS4yNC4yNCwwLDAsMC0uMTEtLjJoMGEuMjIuMjIsMCwwLDAtLjM0LjJ2NEEuMjguMjgsMCwwLDAsOC4xOCwxNS4zWiIgZmlsbD0iI2ZmOTMwMCIgb3BhY2l0eT0iMC43NSIvPiYjeGE7ICAgIDxyZWN0IGlkPSJhOTk2ZmJmZi0zOTM2LTRiMjQtYjQwNy0zNjkzMzZjMTQzYmEiIHg9IjYuNDgiIHk9IjUuNzkiIHdpZHRoPSI1LjE3IiBoZWlnaHQ9IjAuNjEiIHJ4PSIwLjI4IiBmaWxsPSIjZmY5MzAwIiBvcGFjaXR5PSIwLjc1Ii8+JiN4YTsgICAgPHJlY3QgaWQ9ImJiMTJkMzFjLTMzNTItNGExOC04N2RkLWExNjlhNGE4NzIxZCIgeD0iNi40OCIgeT0iNi43OCIgd2lkdGg9IjUuMTciIGhlaWdodD0iMC42MSIgcng9IjAuMjgiIGZpbGw9IiNmZjkzMDAiIG9wYWNpdHk9IjAuNzUiLz4mI3hhOyAgPC9nPiYjeGE7PC9zdmc+;" vertex="1" parent="1">
                    <mxGeometry x="220.56" y="184" width="30" height="30" as="geometry"/>
                </mxCell>
                <mxCell id="38" value="" style="shape=image;imageAspect=0;aspect=fixed;verticalLabelPosition=bottom;verticalAlign=top;image=data:image/svg+xml,PHN2ZyB4bWxucz0iaHR0cDovL3d3dy53My5vcmcvMjAwMC9zdmciIGlkPSJhMTYwNmE1Mi1mYjE0LTQ2MzctODdkZS00ZDUyNGJiYTE4MjkiIHdpZHRoPSIxOC41MDMwODAzNjgwNDE5OTIiIGhlaWdodD0iMTEuMDMyODQ0NTQzNDU3MDMxIiB2aWV3Qm94PSItMC4yNTI4MTE4Nzg5MTk2MDE0NCAzLjQ4Mjc3MjExMTg5MjcgMTguNTAzMDgwMzY4MDQxOTkyIDExLjAzMjg0NDU0MzQ1NzAzMSI+JiN4YTsgIDxkZWZzPiYjeGE7ICAgIDxsaW5lYXJHcmFkaWVudCBpZD0iZjAyMGZiN2UtMjI0My00NTAxLTgxNTMtNWQ2OWJkM2MzNGY3IiB4MT0iOS44OCIgeTE9IjguNTkiIHgyPSIxMS41MiIgeTI9IjEwLjIzIiBncmFkaWVudFRyYW5zZm9ybT0idHJhbnNsYXRlKDIuMDMgLTAuNCkgcm90YXRlKC0wLjA4KSIgZ3JhZGllbnRVbml0cz0idXNlclNwYWNlT25Vc2UiPiYjeGE7ICAgICAgPHN0b3Agb2Zmc2V0PSIwIiBzdG9wLWNvbG9yPSIjODZkNjMzIi8+JiN4YTsgICAgICA8c3RvcCBvZmZzZXQ9IjEiIHN0b3AtY29sb3I9IiM1ZTk2MjQiLz4mI3hhOyAgICA8L2xpbmVhckdyYWRpZW50PiYjeGE7ICAgIDxsaW5lYXJHcmFkaWVudCBpZD0iYjNjMmJjOTQtOGM3Yy00OGEyLTk3MTktNmVlODk5YTQzYTk3IiB4MT0iNi4xOCIgeTE9IjguNTkiIHgyPSI3LjgxIiB5Mj0iMTAuMjMiIGdyYWRpZW50VW5pdHM9InVzZXJTcGFjZU9uVXNlIj4mI3hhOyAgICAgIDxzdG9wIG9mZnNldD0iMCIgc3RvcC1jb2xvcj0iIzg2ZDYzMyIvPiYjeGE7ICAgICAgPHN0b3Agb2Zmc2V0PSIxIiBzdG9wLWNvbG9yPSIjNWU5NjI0Ii8+JiN4YTsgICAgPC9saW5lYXJHcmFkaWVudD4mI3hhOyAgICA8bGluZWFyR3JhZGllbnQgaWQ9ImU5MDBjMzVkLTA5NTgtNGQ0Zi1iMjhmLTMwMmVlYWFmNTJmNSIgeDE9IjIuNDgiIHkxPSI4LjU5IiB4Mj0iNC4xMSIgeTI9IjEwLjIzIiBncmFkaWVudFVuaXRzPSJ1c2VyU3BhY2VPblVzZSI+JiN4YTsgICAgICA8c3RvcCBvZmZzZXQ9IjAiIHN0b3AtY29sb3I9IiM4NmQ2MzMiLz4mI3hhOyAgICAgIDxzdG9wIG9mZnNldD0iMSIgc3RvcC1jb2xvcj0iIzVlOTYyNCIvPiYjeGE7ICAgIDwvbGluZWFyR3JhZGllbnQ+JiN4YTsgIDwvZGVmcz4mI3hhOyAgPHRpdGxlPkljb24tbmV0d29ya2luZy02MTwvdGl0bGU+JiN4YTsgIDxjaXJjbGUgY3g9IjEyLjc0IiBjeT0iOC45OSIgcj0iMS4xNiIgZmlsbD0idXJsKCNmMDIwZmI3ZS0yMjQzLTQ1MDEtODE1My01ZDY5YmQzYzM0ZjcpIi8+JiN4YTsgIDxjaXJjbGUgY3g9IjkuMDQiIGN5PSI5IiByPSIxLjE2IiBmaWxsPSJ1cmwoI2IzYzJiYzk0LThjN2MtNDhhMi05NzE5LTZlZTg5OWE0M2E5NykiLz4mI3hhOyAgPGNpcmNsZSBjeD0iNS4zNCIgY3k9IjkiIHI9IjEuMTYiIGZpbGw9InVybCgjZTkwMGMzNWQtMDk1OC00ZDRmLWIyOGYtMzAyZWVhYWY1MmY1KSIvPiYjeGE7ICA8cGF0aCBkPSJNMi42MSw3LjI4aC45NGEuMy4zLDAsMCwxLC4zLjN2Ni45NGEuNi42LDAsMCwxLS42LjZIMi4zMWEwLDAsMCwwLDEsMCwwVjcuNThhLjMuMywwLDAsMSwuMy0uM1oiIHRyYW5zZm9ybT0idHJhbnNsYXRlKDEzLjE4IDE2LjkzKSByb3RhdGUoMTM0LjkyKSIgZmlsbD0iIzUwZTZmZiIvPiYjeGE7ICA8cGF0aCBkPSJNMi41NiwyLjkxSDMuNWEuMy4zLDAsMCwxLC4zLjN2Ny40M2EwLDAsMCwwLDEsMCwwSDIuODZhLjYuNiwwLDAsMS0uNi0uNlYzLjIxYS4zLjMsMCwwLDEsLjMtLjNaIiB0cmFuc2Zvcm09InRyYW5zbGF0ZSg1LjY2IC0wLjE2KSByb3RhdGUoNDQuOTIpIiBmaWxsPSIjMTQ5MGRmIi8+JiN4YTsgIDxwYXRoIGQ9Ik0xNC4xNSw3LjI4aC45NGEuNi42LDAsMCwxLC42LjZ2Ni45NGEuMy4zLDAsMCwxLS4zLjNoLS45NGEuMy4zLDAsMCwxLS4zLS4zVjcuMjhhMCwwLDAsMCwxLDAsMFoiIHRyYW5zZm9ybT0idHJhbnNsYXRlKDEyLjMyIC03LjI4KSByb3RhdGUoNDUuMDgpIiBmaWxsPSIjNTBlNmZmIi8+JiN4YTsgIDxwYXRoIGQ9Ik0xNC44MSwyLjkxaC45NGEwLDAsMCwwLDEsMCwwdjcuNDNhLjMuMywwLDAsMS0uMy4zSDE0LjVhLjMuMywwLDAsMS0uMy0uM1YzLjUxYS42LjYsMCwwLDEsLjYtLjZaIiB0cmFuc2Zvcm09InRyYW5zbGF0ZSgzMC4zNiAwLjk5KSByb3RhdGUoMTM1LjA4KSIgZmlsbD0iIzE0OTBkZiIvPiYjeGE7PC9zdmc+;" vertex="1" parent="1">
                    <mxGeometry x="316.69" y="430" width="30" height="17.37" as="geometry"/>
                </mxCell>
                <mxCell id="39" value="" style="shape=image;imageAspect=0;aspect=fixed;verticalLabelPosition=bottom;verticalAlign=top;image=data:image/svg+xml,PHN2ZyB4bWxucz0iaHR0cDovL3d3dy53My5vcmcvMjAwMC9zdmciIHdpZHRoPSIxNy40NjgxMzk2NDg0Mzc1IiBoZWlnaHQ9IjEwLjQwOTgxODY0OTI5MTk5MiIgdmlld0JveD0iMC4yNjYyNTUxOTk5MDkyMTAyIDMuNzk1NjE5NzI2MTgxMDMwMyAxNy40NjgxMzk2NDg0Mzc1IDEwLjQwOTgxODY0OTI5MTk5MiI+JiN4YTsgIDxkZWZzPiYjeGE7ICAgIDxsaW5lYXJHcmFkaWVudCBpZD0iYmNlYjYwZGQtOGI4Yy00MDk4LTk0ZjgtYWViNGRiMmVkYWVmIiB4MT0iOS4wMzMiIHkxPSIxMC4zMDUiIHgyPSI5LjAzMyIgeTI9IjcuNjk1IiBncmFkaWVudFVuaXRzPSJ1c2VyU3BhY2VPblVzZSI+JiN4YTsgICAgICA8c3RvcCBvZmZzZXQ9IjAiIHN0b3AtY29sb3I9IiM1ZTk2MjQiLz4mI3hhOyAgICAgIDxzdG9wIG9mZnNldD0iMC4yNDEiIHN0b3AtY29sb3I9IiM2ZmIwMmEiLz4mI3hhOyAgICAgIDxzdG9wIG9mZnNldD0iMC41MDEiIHN0b3AtY29sb3I9IiM3Y2M1MmYiLz4mI3hhOyAgICAgIDxzdG9wIG9mZnNldD0iMC43NTYiIHN0b3AtY29sb3I9IiM4M2QyMzIiLz4mI3hhOyAgICAgIDxzdG9wIG9mZnNldD0iMSIgc3RvcC1jb2xvcj0iIzg2ZDYzMyIvPiYjeGE7ICAgIDwvbGluZWFyR3JhZGllbnQ+JiN4YTsgIDwvZGVmcz4mI3hhOyAgPGcgaWQ9ImFjNzVjMjFlLTJhOTMtNDY0Zi04MDQ4LWYxNTE4ZGFiOGI3NSI+JiN4YTsgICAgPGc+JiN4YTsgICAgICA8cGF0aCBkPSJNOS4wMzEsNy43QTEuMzA1LDEuMzA1LDAsMSwwLDEwLjMzOCw5LDEuMzA1LDEuMzA1LDAsMCwwLDkuMDMxLDcuN1oiIGZpbGw9InVybCgjYmNlYjYwZGQtOGI4Yy00MDk4LTk0ZjgtYWViNGRiMmVkYWVmKSIvPiYjeGE7ICAgICAgPGc+JiN4YTsgICAgICAgIDxwYXRoIGQ9Ik0yLjk2MSw3LjM3NGguODg4YS4yODQuMjg0LDAsMCwxLC4yODQuMjg0djYuNTUxYS41NjguNTY4LDAsMCwxLS41NjguNTY4SDIuNjc3YTAsMCwwLDAsMSwwLDBWNy42NTlBLjI4NC4yODQsMCwwLDEsMi45NjEsNy4zNzRaIiB0cmFuc2Zvcm09InRyYW5zbGF0ZSgxMy42NTMgMTYuNDg1KSByb3RhdGUoMTM0LjkxOSkiIGZpbGw9IiM1MGU2ZmYiLz4mI3hhOyAgICAgICAgPHBhdGggZD0iTTIuOTEzLDMuMjQ0SDMuOGEuMjg0LjI4NCwwLDAsMSwuMjg0LjI4NHY3LjAxNWEwLDAsMCwwLDEsMCwwSDMuMmEuNTY4LjU2OCwwLDAsMS0uNTY4LS41NjhWMy41MjhhLjI4NC4yODQsMCwwLDEsLjI4NC0uMjg0WiIgdHJhbnNmb3JtPSJ0cmFuc2xhdGUoNS44NDcgLTAuMzU4KSByb3RhdGUoNDQuOTE5KSIgZmlsbD0iIzE0OTBkZiIvPiYjeGE7ICAgICAgICA8cGF0aCBkPSJNMTMuODY3LDcuMzc0aC44ODhhLjU2OC41NjgsMCwwLDEsLjU2OC41Njh2Ni41NTFhLjI4NC4yODQsMCwwLDEtLjI4NC4yODRoLS44ODhhLjI4NC4yODQsMCwwLDEtLjI4NC0uMjg0VjcuMzc0YTAsMCwwLDAsMSwwLDBaIiB0cmFuc2Zvcm09InRyYW5zbGF0ZSgxMi4xMzIgLTcuMDc5KSByb3RhdGUoNDUuMDgxKSIgZmlsbD0iIzUwZTZmZiIvPiYjeGE7ICAgICAgICA8cGF0aCBkPSJNMTQuNDgzLDMuMjQ0aC44ODhhMCwwLDAsMCwxLDAsMHY3LjAxNWEuMjg0LjI4NCwwLDAsMS0uMjg0LjI4NEgxNC4yYS4yODQuMjg0LDAsMCwxLS4yODQtLjI4NFYzLjgxMmEuNTY4LjU2OCwwLDAsMSwuNTY4LS41NjhaIiB0cmFuc2Zvcm09InRyYW5zbGF0ZSgyOS44NzkgMS40MzUpIHJvdGF0ZSgxMzUuMDgxKSIgZmlsbD0iIzE0OTBkZiIvPiYjeGE7ICAgICAgPC9nPiYjeGE7ICAgIDwvZz4mI3hhOyAgPC9nPiYjeGE7PC9zdmc+;" vertex="1" parent="1">
                    <mxGeometry x="357.97999999999996" y="250" width="30" height="17.65" as="geometry"/>
                </mxCell>
                <mxCell id="40" style="edgeStyle=orthogonalEdgeStyle;rounded=0;orthogonalLoop=1;jettySize=auto;html=1;exitX=1;exitY=0.5;exitDx=0;exitDy=0;fillColor=#b0e3e6;strokeColor=#0e8088;entryX=0;entryY=0.5;entryDx=0;entryDy=0;" edge="1" parent="1" source="41" target="25">
                    <mxGeometry relative="1" as="geometry">
                        <mxPoint x="706.98" y="336" as="targetPoint"/>
                    </mxGeometry>
                </mxCell>
                <mxCell id="41" value="" style="shape=image;imageAspect=0;aspect=fixed;verticalLabelPosition=bottom;verticalAlign=top;image=data:image/svg+xml,PHN2ZyB4bWxucz0iaHR0cDovL3d3dy53My5vcmcvMjAwMC9zdmciIHdpZHRoPSIxOC4wMDA4NjAyMTQyMzM0IiBoZWlnaHQ9IjEwLjQyMDkxODQ2NDY2MDY0NSIgdmlld0JveD0iLTAuMDAxNTU1NDk4ODA1ODI4MzkyNSAzLjc5NDMwNDEzMjQ2MTU0OCAxOC4wMDA4NjAyMTQyMzM0IDEwLjQyMDkxODQ2NDY2MDY0NSI+JiN4YTsgIDxkZWZzPiYjeGE7ICAgIDxsaW5lYXJHcmFkaWVudCBpZD0iZWUzOTVkN2QtOWUxMS00MDkzLWI0NTUtOWI2Y2E5ZTE1YTYzIiB4MT0iNy42OTkiIHkxPSI5NTYuMDc2IiB4Mj0iNy42OTkiIHkyPSI5NjAuNTY3IiBncmFkaWVudFRyYW5zZm9ybT0idHJhbnNsYXRlKDAgLTk1MCkiIGdyYWRpZW50VW5pdHM9InVzZXJTcGFjZU9uVXNlIj4mI3hhOyAgICAgIDxzdG9wIG9mZnNldD0iMC4yMyIgc3RvcC1jb2xvcj0iIzVlYTBlZiIvPiYjeGE7ICAgICAgPHN0b3Agb2Zmc2V0PSIwLjkzIiBzdG9wLWNvbG9yPSIjMTI3ZmQ5Ii8+JiN4YTsgICAgPC9saW5lYXJHcmFkaWVudD4mI3hhOyAgICA8bGluZWFyR3JhZGllbnQgaWQ9ImI4MTA1MzI4LWMyYzQtNDkyMy04ZDE4LTZjODQ0ZThhMzg5ZSIgeDE9IjkuOTI3IiB5MT0iOTU3Ljk0NyIgeDI9IjkuOTI3IiB5Mj0iOTYyLjQzOCIgZ3JhZGllbnRUcmFuc2Zvcm09InRyYW5zbGF0ZSgwIC05NTApIiBncmFkaWVudFVuaXRzPSJ1c2VyU3BhY2VPblVzZSI+JiN4YTsgICAgICA8c3RvcCBvZmZzZXQ9IjAuMDIiIHN0b3AtY29sb3I9IiM1ZWEwZWYiLz4mI3hhOyAgICAgIDxzdG9wIG9mZnNldD0iMC45MyIgc3RvcC1jb2xvcj0iIzEyN2ZkOSIvPiYjeGE7ICAgIDwvbGluZWFyR3JhZGllbnQ+JiN4YTsgIDwvZGVmcz4mI3hhOyAgPGcgaWQ9ImE1MjI5ZTdhLTJjNzgtNGRiOS05OWNjLWNhN2ZiZTY0MzY4YiI+JiN4YTsgICAgPGc+JiN4YTsgICAgICA8cGF0aCBkPSJNOC41ODgsNi4wNzZoLTEuOGEyLjI0NiwyLjI0NiwwLDAsMC0uMzQ4LDQuNDYxQTIuNDA5LDIuNDA5LDAsMCwxLDYuNDY2LDkuN2ExLjQxOCwxLjQxOCwwLDAsMSwuMzI2LTIuOGgxLjhhMS40MjIsMS40MjIsMCwwLDEsMCwyLjg0NEg4LjA5NGExLjA3LDEuMDcsMCwwLDAtLjEuNDQ5LDEuMDE4LDEuMDE4LDAsMCwwLC4wNzEuMzc0aC41MjdhMi4yNDYsMi4yNDYsMCwxLDAsMC00LjQ5MVoiIGZpbGw9InVybCgjZWUzOTVkN2QtOWUxMS00MDkzLWI0NTUtOWI2Y2E5ZTE1YTYzKSIvPiYjeGE7ICAgICAgPHBhdGggZD0iTTExLjE4Miw3Ljk3N2EyLjY0NCwyLjY0NCwwLDAsMSwuMDI2LjM0NSwyLjMwOCwyLjMwOCwwLDAsMS0uMDQ5LjQ5LDEuNDE4LDEuNDE4LDAsMCwxLS4zMjUsMi44aC0xLjhhMS40MjIsMS40MjIsMCwwLDEsMC0yLjg0NGguNDk0YTEuMDQ1LDEuMDQ1LDAsMCwwLC4xLS40NDksMS4wMjgsMS4wMjgsMCwwLDAtLjA3MS0uMzc1SDkuMDM3YTIuMjQ2LDIuMjQ2LDAsMCwwLDAsNC40OTFoMS44YTIuMjQ2LDIuMjQ2LDAsMCwwLC4zNDgtNC40NjFaIiBmaWxsPSJ1cmwoI2I4MTA1MzI4LWMyYzQtNDkyMy04ZDE4LTZjODQ0ZThhMzg5ZSkiLz4mI3hhOyAgICAgIDxwYXRoIGQ9Ik01LjU4LDEzLjM4MWwtLjQxMi40MTZhLjI4Mi4yODIsMCwwLDEtLjQsMEwuMTY0LDkuMmEuNTY2LjU2NiwwLDAsMSwwLS44TC41OCw3Ljk5Mmw1LDQuOTkzYS4yNzYuMjc2LDAsMCwxLDAsLjM5MWgwWiIgZmlsbD0iIzUwZTZmZiIvPiYjeGE7ICAgICAgPHBhdGggZD0iTTUuMDgyLDMuODc2bC40Ni40NmEuMjgyLjI4MiwwLDAsMSwwLC40TC42MjUsOS42NjUuMTY0LDkuMjA5YS41NjYuNTY2LDAsMCwxLDAtLjhMNC42ODUsMy44NzZBLjI4Mi4yODIsMCwwLDEsNS4wODIsMy44NzZaIiBmaWxsPSIjMTQ5MGRmIi8+JiN4YTsgICAgICA8cGF0aCBkPSJNMTIuNDE3LDEzLjcwN2EuMjc2LjI3NiwwLDAsMS0uMDA2LS4zOTFoMGwuMDA2LDAsNS00Ljk4OC40MTYuNDE1YS41NjYuNTY2LDAsMCwxLDAsLjhsLTQuNjExLDQuNTg4YS4yNzYuMjc2LDAsMCwxLS4zOTEuMDA2aDBsLS4wMDYtLjAwNVoiIGZpbGw9IiM1MGU2ZmYiLz4mI3hhOyAgICAgIDxwYXRoIGQ9Ik0xMy4zMTEsNC4yMDVsNC41MjUsNC41MzZhLjU2My41NjMsMCwwLDEsMCwuNzkzbC0uNDYxLjQ2TDEyLjQ1NCw1LjA2MmEuMjg3LjI4NywwLDAsMSwwLS40bC40Ni0uNDU3QS4yODIuMjgyLDAsMCwxLDEzLjMxMSw0LjIwNVoiIGZpbGw9IiMxNDkwZGYiLz4mI3hhOyAgICA8L2c+JiN4YTsgIDwvZz4mI3hhOzwvc3ZnPg==;" vertex="1" parent="1">
                    <mxGeometry x="276.69" y="224.58999999999997" width="30" height="16.67" as="geometry"/>
                </mxCell>
                <mxCell id="44" style="edgeStyle=orthogonalEdgeStyle;rounded=0;orthogonalLoop=1;jettySize=auto;html=1;entryX=1;entryY=0.5;entryDx=0;entryDy=0;" edge="1" parent="1" target="27">
                    <mxGeometry relative="1" as="geometry">
                        <mxPoint x="755" y="299.9142857142857" as="sourcePoint"/>
                    </mxGeometry>
                </mxCell>
                <mxCell id="49" style="edgeStyle=orthogonalEdgeStyle;rounded=0;orthogonalLoop=1;jettySize=auto;html=1;exitX=1;exitY=0.5;exitDx=0;exitDy=0;" edge="1" parent="1" source="47" target="48">
                    <mxGeometry relative="1" as="geometry"/>
                </mxCell>
                <mxCell id="47" value="" style="shape=image;verticalLabelPosition=bottom;labelBackgroundColor=#ffffff;verticalAlign=top;aspect=fixed;imageAspect=0;image=data:image/svg+xml,PHN2ZyB4bWxucz0iaHR0cDovL3d3dy53My5vcmcvMjAwMC9zdmciIGlkPSJlMjQ2NzFmNi1mNTAxLTQ5NTItYTJkYi04YjBiMWQzMjljMTciIHdpZHRoPSIxNi4zNTYyMDMwNzkyMjM2MzMiIGhlaWdodD0iMTgiIHZpZXdCb3g9IjAuODIxNTQ3MzI5NDI1ODExOCAwIDE2LjM1NjIwMzA3OTIyMzYzMyAxOCI+CiAgPGRlZnM+CiAgICA8bGluZWFyR3JhZGllbnQgaWQ9ImJlOTI5MDFiLWVjMzMtNGM2NS1hZGYxLTliMGVlZDA2ZDY3NyIgeDE9IjkiIHkxPSI2Ljg4IiB4Mj0iOSIgeTI9IjIwLjQ1IiBncmFkaWVudFVuaXRzPSJ1c2VyU3BhY2VPblVzZSI+CiAgICAgIDxzdG9wIG9mZnNldD0iMC4yMiIgc3RvcC1jb2xvcj0iIzMyZDRmNSIvPgogICAgICA8c3RvcCBvZmZzZXQ9IjEiIHN0b3AtY29sb3I9IiMxOThhYjMiLz4KICAgIDwvbGluZWFyR3JhZGllbnQ+CiAgICA8bGluZWFyR3JhZGllbnQgaWQ9ImI0NmZjMjQ2LTI1ZDgtNDM5OC04Nzc5LTEwNDJlOGNhY2FlNyIgeDE9IjguNjEiIHkxPSItMC40IiB4Mj0iOS42IiB5Mj0iMTEuOTIiIGdyYWRpZW50VW5pdHM9InVzZXJTcGFjZU9uVXNlIj4KICAgICAgPHN0b3Agb2Zmc2V0PSIwLjIyIiBzdG9wLWNvbG9yPSIjMzJkNGY1Ii8+CiAgICAgIDxzdG9wIG9mZnNldD0iMSIgc3RvcC1jb2xvcj0iIzE5OGFiMyIvPgogICAgPC9saW5lYXJHcmFkaWVudD4KICA8L2RlZnM+CiAgPHRpdGxlPkljb24taWRlbnRpdHktMjMwPC90aXRsZT4KICA8cGF0aCBkPSJNMTUuNzIsMThhMS40NSwxLjQ1LDAsMCwwLDEuNDUtMS40NS40Ny40NywwLDAsMCwwLS4xN0MxNi41OSwxMS44MSwxNCw4LjA5LDksOC4wOVMxLjM0LDExLjI0LjgzLDE2LjM5QTEuNDYsMS40NiwwLDAsMCwyLjE0LDE4SDE1LjcyWiIgZmlsbD0idXJsKCNiZTkyOTAxYi1lYzMzLTRjNjUtYWRmMS05YjBlZWQwNmQ2NzcpIi8+CiAgPHBhdGggZD0iTTksOS4xN2E0LjU5LDQuNTksMCwwLDEtMi40OC0uNzNMOSwxNC44NmwyLjQ0LTYuMzhBNC41Myw0LjUzLDAsMCwxLDksOS4xN1oiIGZpbGw9IiNmZmYiIG9wYWNpdHk9IjAuOCIvPgogIDxjaXJjbGUgY3g9IjkuMDEiIGN5PSI0LjU4IiByPSI0LjU4IiBmaWxsPSJ1cmwoI2I0NmZjMjQ2LTI1ZDgtNDM5OC04Nzc5LTEwNDJlOGNhY2FlNykiLz4KPC9zdmc+;" vertex="1" parent="1">
                    <mxGeometry x="56.69" y="313.65" width="26.62" height="30" as="geometry"/>
                </mxCell>
                <mxCell id="68" style="edgeStyle=orthogonalEdgeStyle;rounded=0;orthogonalLoop=1;jettySize=auto;html=1;exitX=1;exitY=0.5;exitDx=0;exitDy=0;entryX=0;entryY=0.5;entryDx=0;entryDy=0;" edge="1" parent="1" source="48" target="30">
                    <mxGeometry relative="1" as="geometry"/>
                </mxCell>
                <mxCell id="48" value="" style="shape=image;verticalLabelPosition=bottom;labelBackgroundColor=#ffffff;verticalAlign=top;aspect=fixed;imageAspect=0;image=data:image/svg+xml,PHN2ZyB4bWxucz0iaHR0cDovL3d3dy53My5vcmcvMjAwMC9zdmciIGlkPSJhZDYwNzFkNy1lYjc0LTQ2N2UtODFlZS1lYjRlYTY0MTM3M2IiIHdpZHRoPSIxNiIgaGVpZ2h0PSIxNiIgdmlld0JveD0iMCAwIDE2IDE2Ij4KICA8Y2lyY2xlIGN4PSI4IiBjeT0iOCIgcj0iOCIgZmlsbD0iI2E0MjYyYyIvPgogIDxwYXRoIGQ9Ik0xMyw5LjJWNi44SDNWOS4yWiIgZmlsbD0iI2ZmZiIvPgo8L3N2Zz4=;" vertex="1" parent="1">
                    <mxGeometry x="113.69" y="314.2" width="30" height="30" as="geometry"/>
                </mxCell>
                <mxCell id="18" value="" style="whiteSpace=wrap;html=1;fillColor=#E6E6E6;" vertex="1" parent="1">
                    <mxGeometry x="356.69" y="310" width="130" height="40" as="geometry"/>
                </mxCell>
                <mxCell id="6" value="" style="shape=image;imageAspect=0;aspect=fixed;verticalLabelPosition=bottom;verticalAlign=top;image=data:image/svg+xml,PHN2ZyB4bWxucz0iaHR0cDovL3d3dy53My5vcmcvMjAwMC9zdmciIGlkPSJhNTQyY2YzOS0yYmE2LTQyMDYtODI3OC02YTRmMWMyNDUyZjUiIHdpZHRoPSIxNi45Njc2MjQ2NjQzMDY2NCIgaGVpZ2h0PSIxNi45NzE1MTk0NzAyMTQ4NDQiIHZpZXdCb3g9IjAuNDk2OTEyNzQ3NjIxNTM2MjUgMC41MzE1Njk0MjEyOTEzNTEzIDE2Ljk2NzYyNDY2NDMwNjY0IDE2Ljk3MTUxOTQ3MDIxNDg0NCI+JiN4YTsgIDxkZWZzPiYjeGE7ICAgIDxyYWRpYWxHcmFkaWVudCBpZD0iZTc1NzlmNGQtMzZhMy00NjkzLWE3MjYtN2E2MDUwYWM1NjcxIiBjeD0iLTY4MTEuNCIgY3k9IjY3MjkuNjkiIHI9IjE3IiBncmFkaWVudFRyYW5zZm9ybT0ibWF0cml4KDAuNSwgMCwgMCwgLTAuNSwgMzQxNC45MSwgMzM3NC4wNSkiIGdyYWRpZW50VW5pdHM9InVzZXJTcGFjZU9uVXNlIj4mI3hhOyAgICAgIDxzdG9wIG9mZnNldD0iMC4xOCIgc3RvcC1jb2xvcj0iIzVlYTBlZiIvPiYjeGE7ICAgICAgPHN0b3Agb2Zmc2V0PSIxIiBzdG9wLWNvbG9yPSIjMDA3OGQ0Ii8+JiN4YTsgICAgPC9yYWRpYWxHcmFkaWVudD4mI3hhOyAgPC9kZWZzPiYjeGE7ICA8dGl0bGU+SWNvbi1uZXR3b3JraW5nLTY0PC90aXRsZT4mI3hhOyAgPHBhdGggaWQ9ImY1N2UxMDVkLTZkMmQtNGFkNy1iOGMzLWMxMDY4NGM5ZjliOCIgZD0iTTE0LjIxLDE1LjcyQTguNSw4LjUsMCwwLDEsMy43OSwyLjI4bC4wOS0uMDZhOC41LDguNSwwLDAsMSwxMC4zMywxMy41IiBmaWxsPSJ1cmwoI2U3NTc5ZjRkLTM2YTMtNDY5My1hNzI2LTdhNjA1MGFjNTY3MSkiLz4mI3hhOyAgPHBhdGggZD0iTTksMS4zMUE3LjY5LDcuNjksMCwxLDAsMTYuNjksOSw3LjcsNy43LDAsMCwwLDksMS4zMVpNMTQuMTUsMy45QTcuMzcsNy4zNywwLDAsMSwxMiw0LjcsOC44Myw4LjgzLDAsMCwwLDEwLjc1LDIsNy4yLDcuMiwwLDAsMSwxNC4xNSwzLjlaTTksMS43NGE2LjU5LDYuNTksMCwwLDEsMS4wOS4wOWgwYTcuNDgsNy40OCwwLDAsMSwxLjUzLDMsMTUuMTIsMTUuMTIsMCwwLDEtNS40NSwwQTcuMzgsNy4zOCwwLDAsMSw3LjY4LDEuODlsMCwwQTcuMzQsNy4zNCwwLDAsMSw5LDEuNzRaTTcsMkE4LjcyLDguNzIsMCwwLDAsNS43Myw0LjY4YTUuNTgsNS41OCwwLDAsMS0xLjktLjc3QTcuMzUsNy4zNSwwLDAsMSw3LDJaTTMuNzIsMTRhNS4yNyw1LjI3LDAsMCwxLDEuNzgtLjc2LDcuMDgsNy4wOCwwLDAsMCwxLjM1LDIuNzJBNy4yNSw3LjI1LDAsMCwxLDMuNzIsMTRabTYuNDEsMi4yQTcuMDgsNy4wOCwwLDAsMSw5LDE2LjI2YTYuODMsNi44MywwLDAsMS0xLjQ0LS4xNWwwLDBhNiw2LDAsMCwxLTEuNjctMywxNC43MywxNC43MywwLDAsMSw1Ljg4LDAsNiw2LDAsMCwxLTEuNjksM1ptLjczLS4xNmE3LjEzLDcuMTMsMCwwLDAsMS4zOC0yLjgsNi42OCw2LjY4LDAsMCwxLDIsLjgzQTcuMTMsNy4xMywwLDAsMSwxMC44NiwxNlptMS40OC0zLjIyYy4wOC0uMzYuMTUtLjczLjItMS4xMmwtLjQ2LjExYy0uMDUuMzEtLjEuNjItLjE3LjkxYTE1LjIzLDE1LjIzLDAsMCwwLTYuMDksMGMtLjA3LS4yNy0uMTItLjU2LS4xNy0uODZhLjI4LjI4LDAsMCwxLDAtLjA5bC0uNDYtLjEzYTIuMzYsMi4zNiwwLDAsMCwwLC4yOGMwLC4zMi4xMS42Mi4xNy45MWE1LjksNS45LDAsMCwwLTIsLjg1LDcuMjQsNy4yNCwwLDAsMSwuMTEtOS40LDYuMjksNi4yOSwwLDAsMCwyLjA4Ljg2Yy0uMDcuMjQtLjEzLjUtLjE4Ljc2czAsLjI1LS4wOC4zN2wuNDctLjExLDAtLjE3Yy4wNi0uMjYuMTItLjUxLjE5LS43NUExNC44OSwxNC44OSwwLDAsMCw5LDUuNDhhMTUsMTUsMCwwLDAsMi43OC0uMjZjLjA3LjI3LjE0LjU2LjIuODVsLjQ2LjExcS0uMTEtLjU0LS4yNC0xYTcuNzMsNy43MywwLDAsMCwyLjMtLjkxLDcuMjIsNy4yMiwwLDAsMSwuMDYsOS40OUE3LjI4LDcuMjgsMCwwLDAsMTIuMzQsMTIuNzlaIiBmaWxsPSIjNWVhMGVmIi8+JiN4YTsgIDxwYXRoIGQ9Ik0zLjY5LDdhNy45Miw3LjkyLDAsMCwxLDEuMTYtLjA4LDIuNDQsMi40NCwwLDAsMSwxLjcxLjUyQTIsMiwwLDAsMSw3LjE1LDguOWEyLjIxLDIuMjEsMCwwLDEtLjYxLDEuNjQsMi42LDIuNiwwLDAsMS0xLjg2LjYxLDkuMTcsOS4xNywwLDAsMS0xLS4wNVptLjU1LDMuNzNhNCw0LDAsMCwwLC41NSwwQTEuNjIsMS42MiwwLDAsMCw2LjU4LDguOTIsMS41LDEuNSwwLDAsMCw0Ljg3LDcuM2EzLjE3LDMuMTcsMCwwLDAtLjYzLDBaIiBmaWxsPSIjZmZmIi8+JiN4YTsgIDxwYXRoIGQ9Ik03Ljg2LDExLjExVjYuOWguNTlMOS44LDlhMTIuMTgsMTIuMTgsMCwwLDEsLjc2LDEuMzdoMGMtLjA1LS41Ni0uMDYtMS4wNy0uMDYtMS43M1Y2LjlIMTF2NC4yMWgtLjU1TDkuMTMsOWMtLjI5LS40Ny0uNTctMS0uNzktMS40aDBjMCwuNTMsMCwxLDAsMS43NHYxLjhaIiBmaWxsPSIjZmZmIi8+JiN4YTsgIDxwYXRoIGQ9Ik0xMS44OSwxMC40NWEyLDIsMCwwLDAsMSwuMjdjLjU2LDAsLjg4LS4yOS44OC0uNzJzLS4yMi0uNjItLjc5LS44My0xLjEyLS42LTEuMTItMS4yYTEuMjIsMS4yMiwwLDAsMSwxLjM3LTEuMTQsMiwyLDAsMCwxLC45My4yTDE0LDcuNDhhMS42MywxLjYzLDAsMCwwLS44LS4yYy0uNTgsMC0uOC4zNC0uOC42M3MuMjYuNTkuODQuODEsMS4wOC42MiwxLjA4LDEuMjQtLjQ4LDEuMjEtMS40OCwxLjIxYTIuMTYsMi4xNiwwLDAsMS0xLjA3LS4yN1oiIGZpbGw9IiNmZmYiLz4mI3hhOzwvc3ZnPg==;" vertex="1" parent="1">
                    <mxGeometry x="659.3999999999999" y="390" width="20" height="20" as="geometry"/>
                </mxCell>
                <mxCell id="14" value="&lt;font style=&quot;font-size: 5px&quot;&gt;privatelink.table.core.window.net&lt;/font&gt;" style="text;html=1;resizable=0;autosize=1;align=center;verticalAlign=middle;points=[];fillColor=none;strokeColor=none;rounded=0;" vertex="1" parent="1">
                    <mxGeometry x="624.4000000000001" y="410" width="90" height="20" as="geometry"/>
                </mxCell>
                <mxCell id="11" value="" style="shape=image;imageAspect=0;aspect=fixed;verticalLabelPosition=bottom;verticalAlign=top;image=data:image/svg+xml,PHN2ZyB4bWxucz0iaHR0cDovL3d3dy53My5vcmcvMjAwMC9zdmciIGlkPSJhNTQyY2YzOS0yYmE2LTQyMDYtODI3OC02YTRmMWMyNDUyZjUiIHdpZHRoPSIxNi45Njc2MjQ2NjQzMDY2NCIgaGVpZ2h0PSIxNi45NzE1MTk0NzAyMTQ4NDQiIHZpZXdCb3g9IjAuNDk2OTEyNzQ3NjIxNTM2MjUgMC41MzE1Njk0MjEyOTEzNTEzIDE2Ljk2NzYyNDY2NDMwNjY0IDE2Ljk3MTUxOTQ3MDIxNDg0NCI+JiN4YTsgIDxkZWZzPiYjeGE7ICAgIDxyYWRpYWxHcmFkaWVudCBpZD0iZTc1NzlmNGQtMzZhMy00NjkzLWE3MjYtN2E2MDUwYWM1NjcxIiBjeD0iLTY4MTEuNCIgY3k9IjY3MjkuNjkiIHI9IjE3IiBncmFkaWVudFRyYW5zZm9ybT0ibWF0cml4KDAuNSwgMCwgMCwgLTAuNSwgMzQxNC45MSwgMzM3NC4wNSkiIGdyYWRpZW50VW5pdHM9InVzZXJTcGFjZU9uVXNlIj4mI3hhOyAgICAgIDxzdG9wIG9mZnNldD0iMC4xOCIgc3RvcC1jb2xvcj0iIzVlYTBlZiIvPiYjeGE7ICAgICAgPHN0b3Agb2Zmc2V0PSIxIiBzdG9wLWNvbG9yPSIjMDA3OGQ0Ii8+JiN4YTsgICAgPC9yYWRpYWxHcmFkaWVudD4mI3hhOyAgPC9kZWZzPiYjeGE7ICA8dGl0bGU+SWNvbi1uZXR3b3JraW5nLTY0PC90aXRsZT4mI3hhOyAgPHBhdGggaWQ9ImY1N2UxMDVkLTZkMmQtNGFkNy1iOGMzLWMxMDY4NGM5ZjliOCIgZD0iTTE0LjIxLDE1LjcyQTguNSw4LjUsMCwwLDEsMy43OSwyLjI4bC4wOS0uMDZhOC41LDguNSwwLDAsMSwxMC4zMywxMy41IiBmaWxsPSJ1cmwoI2U3NTc5ZjRkLTM2YTMtNDY5My1hNzI2LTdhNjA1MGFjNTY3MSkiLz4mI3hhOyAgPHBhdGggZD0iTTksMS4zMUE3LjY5LDcuNjksMCwxLDAsMTYuNjksOSw3LjcsNy43LDAsMCwwLDksMS4zMVpNMTQuMTUsMy45QTcuMzcsNy4zNywwLDAsMSwxMiw0LjcsOC44Myw4LjgzLDAsMCwwLDEwLjc1LDIsNy4yLDcuMiwwLDAsMSwxNC4xNSwzLjlaTTksMS43NGE2LjU5LDYuNTksMCwwLDEsMS4wOS4wOWgwYTcuNDgsNy40OCwwLDAsMSwxLjUzLDMsMTUuMTIsMTUuMTIsMCwwLDEtNS40NSwwQTcuMzgsNy4zOCwwLDAsMSw3LjY4LDEuODlsMCwwQTcuMzQsNy4zNCwwLDAsMSw5LDEuNzRaTTcsMkE4LjcyLDguNzIsMCwwLDAsNS43Myw0LjY4YTUuNTgsNS41OCwwLDAsMS0xLjktLjc3QTcuMzUsNy4zNSwwLDAsMSw3LDJaTTMuNzIsMTRhNS4yNyw1LjI3LDAsMCwxLDEuNzgtLjc2LDcuMDgsNy4wOCwwLDAsMCwxLjM1LDIuNzJBNy4yNSw3LjI1LDAsMCwxLDMuNzIsMTRabTYuNDEsMi4yQTcuMDgsNy4wOCwwLDAsMSw5LDE2LjI2YTYuODMsNi44MywwLDAsMS0xLjQ0LS4xNWwwLDBhNiw2LDAsMCwxLTEuNjctMywxNC43MywxNC43MywwLDAsMSw1Ljg4LDAsNiw2LDAsMCwxLTEuNjksM1ptLjczLS4xNmE3LjEzLDcuMTMsMCwwLDAsMS4zOC0yLjgsNi42OCw2LjY4LDAsMCwxLDIsLjgzQTcuMTMsNy4xMywwLDAsMSwxMC44NiwxNlptMS40OC0zLjIyYy4wOC0uMzYuMTUtLjczLjItMS4xMmwtLjQ2LjExYy0uMDUuMzEtLjEuNjItLjE3LjkxYTE1LjIzLDE1LjIzLDAsMCwwLTYuMDksMGMtLjA3LS4yNy0uMTItLjU2LS4xNy0uODZhLjI4LjI4LDAsMCwxLDAtLjA5bC0uNDYtLjEzYTIuMzYsMi4zNiwwLDAsMCwwLC4yOGMwLC4zMi4xMS42Mi4xNy45MWE1LjksNS45LDAsMCwwLTIsLjg1LDcuMjQsNy4yNCwwLDAsMSwuMTEtOS40LDYuMjksNi4yOSwwLDAsMCwyLjA4Ljg2Yy0uMDcuMjQtLjEzLjUtLjE4Ljc2czAsLjI1LS4wOC4zN2wuNDctLjExLDAtLjE3Yy4wNi0uMjYuMTItLjUxLjE5LS43NUExNC44OSwxNC44OSwwLDAsMCw5LDUuNDhhMTUsMTUsMCwwLDAsMi43OC0uMjZjLjA3LjI3LjE0LjU2LjIuODVsLjQ2LjExcS0uMTEtLjU0LS4yNC0xYTcuNzMsNy43MywwLDAsMCwyLjMtLjkxLDcuMjIsNy4yMiwwLDAsMSwuMDYsOS40OUE3LjI4LDcuMjgsMCwwLDAsMTIuMzQsMTIuNzlaIiBmaWxsPSIjNWVhMGVmIi8+JiN4YTsgIDxwYXRoIGQ9Ik0zLjY5LDdhNy45Miw3LjkyLDAsMCwxLDEuMTYtLjA4LDIuNDQsMi40NCwwLDAsMSwxLjcxLjUyQTIsMiwwLDAsMSw3LjE1LDguOWEyLjIxLDIuMjEsMCwwLDEtLjYxLDEuNjQsMi42LDIuNiwwLDAsMS0xLjg2LjYxLDkuMTcsOS4xNywwLDAsMS0xLS4wNVptLjU1LDMuNzNhNCw0LDAsMCwwLC41NSwwQTEuNjIsMS42MiwwLDAsMCw2LjU4LDguOTIsMS41LDEuNSwwLDAsMCw0Ljg3LDcuM2EzLjE3LDMuMTcsMCwwLDAtLjYzLDBaIiBmaWxsPSIjZmZmIi8+JiN4YTsgIDxwYXRoIGQ9Ik03Ljg2LDExLjExVjYuOWguNTlMOS44LDlhMTIuMTgsMTIuMTgsMCwwLDEsLjc2LDEuMzdoMGMtLjA1LS41Ni0uMDYtMS4wNy0uMDYtMS43M1Y2LjlIMTF2NC4yMWgtLjU1TDkuMTMsOWMtLjI5LS40Ny0uNTctMS0uNzktMS40aDBjMCwuNTMsMCwxLDAsMS43NHYxLjhaIiBmaWxsPSIjZmZmIi8+JiN4YTsgIDxwYXRoIGQ9Ik0xMS44OSwxMC40NWEyLDIsMCwwLDAsMSwuMjdjLjU2LDAsLjg4LS4yOS44OC0uNzJzLS4yMi0uNjItLjc5LS44My0xLjEyLS42LTEuMTItMS4yYTEuMjIsMS4yMiwwLDAsMSwxLjM3LTEuMTQsMiwyLDAsMCwxLC45My4yTDE0LDcuNDhhMS42MywxLjYzLDAsMCwwLS44LS4yYy0uNTgsMC0uOC4zNC0uOC42M3MuMjYuNTkuODQuODEsMS4wOC42MiwxLjA4LDEuMjQtLjQ4LDEuMjEtMS40OCwxLjIxYTIuMTYsMi4xNiwwLDAsMS0xLjA3LS4yN1oiIGZpbGw9IiNmZmYiLz4mI3hhOzwvc3ZnPg==;" vertex="1" parent="1">
                    <mxGeometry x="576.28" y="390" width="20" height="20" as="geometry"/>
                </mxCell>
                <mxCell id="13" value="&lt;font style=&quot;font-size: 5px&quot;&gt;privatelink.queue.core.window.net&lt;/font&gt;" style="text;html=1;resizable=0;autosize=1;align=center;verticalAlign=middle;points=[];fillColor=none;strokeColor=none;rounded=0;" vertex="1" parent="1">
                    <mxGeometry x="541.28" y="410" width="90" height="20" as="geometry"/>
                </mxCell>
                <mxCell id="5" value="" style="shape=image;imageAspect=0;aspect=fixed;verticalLabelPosition=bottom;verticalAlign=top;image=data:image/svg+xml,PHN2ZyB4bWxucz0iaHR0cDovL3d3dy53My5vcmcvMjAwMC9zdmciIGlkPSJhNTQyY2YzOS0yYmE2LTQyMDYtODI3OC02YTRmMWMyNDUyZjUiIHdpZHRoPSIxNi45Njc2MjQ2NjQzMDY2NCIgaGVpZ2h0PSIxNi45NzE1MTk0NzAyMTQ4NDQiIHZpZXdCb3g9IjAuNDk2OTEyNzQ3NjIxNTM2MjUgMC41MzE1Njk0MjEyOTEzNTEzIDE2Ljk2NzYyNDY2NDMwNjY0IDE2Ljk3MTUxOTQ3MDIxNDg0NCI+JiN4YTsgIDxkZWZzPiYjeGE7ICAgIDxyYWRpYWxHcmFkaWVudCBpZD0iZTc1NzlmNGQtMzZhMy00NjkzLWE3MjYtN2E2MDUwYWM1NjcxIiBjeD0iLTY4MTEuNCIgY3k9IjY3MjkuNjkiIHI9IjE3IiBncmFkaWVudFRyYW5zZm9ybT0ibWF0cml4KDAuNSwgMCwgMCwgLTAuNSwgMzQxNC45MSwgMzM3NC4wNSkiIGdyYWRpZW50VW5pdHM9InVzZXJTcGFjZU9uVXNlIj4mI3hhOyAgICAgIDxzdG9wIG9mZnNldD0iMC4xOCIgc3RvcC1jb2xvcj0iIzVlYTBlZiIvPiYjeGE7ICAgICAgPHN0b3Agb2Zmc2V0PSIxIiBzdG9wLWNvbG9yPSIjMDA3OGQ0Ii8+JiN4YTsgICAgPC9yYWRpYWxHcmFkaWVudD4mI3hhOyAgPC9kZWZzPiYjeGE7ICA8dGl0bGU+SWNvbi1uZXR3b3JraW5nLTY0PC90aXRsZT4mI3hhOyAgPHBhdGggaWQ9ImY1N2UxMDVkLTZkMmQtNGFkNy1iOGMzLWMxMDY4NGM5ZjliOCIgZD0iTTE0LjIxLDE1LjcyQTguNSw4LjUsMCwwLDEsMy43OSwyLjI4bC4wOS0uMDZhOC41LDguNSwwLDAsMSwxMC4zMywxMy41IiBmaWxsPSJ1cmwoI2U3NTc5ZjRkLTM2YTMtNDY5My1hNzI2LTdhNjA1MGFjNTY3MSkiLz4mI3hhOyAgPHBhdGggZD0iTTksMS4zMUE3LjY5LDcuNjksMCwxLDAsMTYuNjksOSw3LjcsNy43LDAsMCwwLDksMS4zMVpNMTQuMTUsMy45QTcuMzcsNy4zNywwLDAsMSwxMiw0LjcsOC44Myw4LjgzLDAsMCwwLDEwLjc1LDIsNy4yLDcuMiwwLDAsMSwxNC4xNSwzLjlaTTksMS43NGE2LjU5LDYuNTksMCwwLDEsMS4wOS4wOWgwYTcuNDgsNy40OCwwLDAsMSwxLjUzLDMsMTUuMTIsMTUuMTIsMCwwLDEtNS40NSwwQTcuMzgsNy4zOCwwLDAsMSw3LjY4LDEuODlsMCwwQTcuMzQsNy4zNCwwLDAsMSw5LDEuNzRaTTcsMkE4LjcyLDguNzIsMCwwLDAsNS43Myw0LjY4YTUuNTgsNS41OCwwLDAsMS0xLjktLjc3QTcuMzUsNy4zNSwwLDAsMSw3LDJaTTMuNzIsMTRhNS4yNyw1LjI3LDAsMCwxLDEuNzgtLjc2LDcuMDgsNy4wOCwwLDAsMCwxLjM1LDIuNzJBNy4yNSw3LjI1LDAsMCwxLDMuNzIsMTRabTYuNDEsMi4yQTcuMDgsNy4wOCwwLDAsMSw5LDE2LjI2YTYuODMsNi44MywwLDAsMS0xLjQ0LS4xNWwwLDBhNiw2LDAsMCwxLTEuNjctMywxNC43MywxNC43MywwLDAsMSw1Ljg4LDAsNiw2LDAsMCwxLTEuNjksM1ptLjczLS4xNmE3LjEzLDcuMTMsMCwwLDAsMS4zOC0yLjgsNi42OCw2LjY4LDAsMCwxLDIsLjgzQTcuMTMsNy4xMywwLDAsMSwxMC44NiwxNlptMS40OC0zLjIyYy4wOC0uMzYuMTUtLjczLjItMS4xMmwtLjQ2LjExYy0uMDUuMzEtLjEuNjItLjE3LjkxYTE1LjIzLDE1LjIzLDAsMCwwLTYuMDksMGMtLjA3LS4yNy0uMTItLjU2LS4xNy0uODZhLjI4LjI4LDAsMCwxLDAtLjA5bC0uNDYtLjEzYTIuMzYsMi4zNiwwLDAsMCwwLC4yOGMwLC4zMi4xMS42Mi4xNy45MWE1LjksNS45LDAsMCwwLTIsLjg1LDcuMjQsNy4yNCwwLDAsMSwuMTEtOS40LDYuMjksNi4yOSwwLDAsMCwyLjA4Ljg2Yy0uMDcuMjQtLjEzLjUtLjE4Ljc2czAsLjI1LS4wOC4zN2wuNDctLjExLDAtLjE3Yy4wNi0uMjYuMTItLjUxLjE5LS43NUExNC44OSwxNC44OSwwLDAsMCw5LDUuNDhhMTUsMTUsMCwwLDAsMi43OC0uMjZjLjA3LjI3LjE0LjU2LjIuODVsLjQ2LjExcS0uMTEtLjU0LS4yNC0xYTcuNzMsNy43MywwLDAsMCwyLjMtLjkxLDcuMjIsNy4yMiwwLDAsMSwuMDYsOS40OUE3LjI4LDcuMjgsMCwwLDAsMTIuMzQsMTIuNzlaIiBmaWxsPSIjNWVhMGVmIi8+JiN4YTsgIDxwYXRoIGQ9Ik0zLjY5LDdhNy45Miw3LjkyLDAsMCwxLDEuMTYtLjA4LDIuNDQsMi40NCwwLDAsMSwxLjcxLjUyQTIsMiwwLDAsMSw3LjE1LDguOWEyLjIxLDIuMjEsMCwwLDEtLjYxLDEuNjQsMi42LDIuNiwwLDAsMS0xLjg2LjYxLDkuMTcsOS4xNywwLDAsMS0xLS4wNVptLjU1LDMuNzNhNCw0LDAsMCwwLC41NSwwQTEuNjIsMS42MiwwLDAsMCw2LjU4LDguOTIsMS41LDEuNSwwLDAsMCw0Ljg3LDcuM2EzLjE3LDMuMTcsMCwwLDAtLjYzLDBaIiBmaWxsPSIjZmZmIi8+JiN4YTsgIDxwYXRoIGQ9Ik03Ljg2LDExLjExVjYuOWguNTlMOS44LDlhMTIuMTgsMTIuMTgsMCwwLDEsLjc2LDEuMzdoMGMtLjA1LS41Ni0uMDYtMS4wNy0uMDYtMS43M1Y2LjlIMTF2NC4yMWgtLjU1TDkuMTMsOWMtLjI5LS40Ny0uNTctMS0uNzktMS40aDBjMCwuNTMsMCwxLDAsMS43NHYxLjhaIiBmaWxsPSIjZmZmIi8+JiN4YTsgIDxwYXRoIGQ9Ik0xMS44OSwxMC40NWEyLDIsMCwwLDAsMSwuMjdjLjU2LDAsLjg4LS4yOS44OC0uNzJzLS4yMi0uNjItLjc5LS44My0xLjEyLS42LTEuMTItMS4yYTEuMjIsMS4yMiwwLDAsMSwxLjM3LTEuMTQsMiwyLDAsMCwxLC45My4yTDE0LDcuNDhhMS42MywxLjYzLDAsMCwwLS44LS4yYy0uNTgsMC0uOC4zNC0uOC42M3MuMjYuNTkuODQuODEsMS4wOC42MiwxLjA4LDEuMjQtLjQ4LDEuMjEtMS40OCwxLjIxYTIuMTYsMi4xNiwwLDAsMS0xLjA3LS4yN1oiIGZpbGw9IiNmZmYiLz4mI3hhOzwvc3ZnPg==;" vertex="1" parent="1">
                    <mxGeometry x="496.69" y="390" width="20" height="20" as="geometry"/>
                </mxCell>
                <mxCell id="15" value="&lt;font style=&quot;font-size: 5px&quot;&gt;privatelink.blob.core.window.net&lt;/font&gt;" style="text;html=1;resizable=0;autosize=1;align=center;verticalAlign=middle;points=[];fillColor=none;strokeColor=none;rounded=0;" vertex="1" parent="1">
                    <mxGeometry x="385.69000000000005" y="410" width="90" height="20" as="geometry"/>
                </mxCell>
                <mxCell id="7" value="" style="shape=image;imageAspect=0;aspect=fixed;verticalLabelPosition=bottom;verticalAlign=top;image=data:image/svg+xml,PHN2ZyB4bWxucz0iaHR0cDovL3d3dy53My5vcmcvMjAwMC9zdmciIGlkPSJhNTQyY2YzOS0yYmE2LTQyMDYtODI3OC02YTRmMWMyNDUyZjUiIHdpZHRoPSIxNi45Njc2MjQ2NjQzMDY2NCIgaGVpZ2h0PSIxNi45NzE1MTk0NzAyMTQ4NDQiIHZpZXdCb3g9IjAuNDk2OTEyNzQ3NjIxNTM2MjUgMC41MzE1Njk0MjEyOTEzNTEzIDE2Ljk2NzYyNDY2NDMwNjY0IDE2Ljk3MTUxOTQ3MDIxNDg0NCI+JiN4YTsgIDxkZWZzPiYjeGE7ICAgIDxyYWRpYWxHcmFkaWVudCBpZD0iZTc1NzlmNGQtMzZhMy00NjkzLWE3MjYtN2E2MDUwYWM1NjcxIiBjeD0iLTY4MTEuNCIgY3k9IjY3MjkuNjkiIHI9IjE3IiBncmFkaWVudFRyYW5zZm9ybT0ibWF0cml4KDAuNSwgMCwgMCwgLTAuNSwgMzQxNC45MSwgMzM3NC4wNSkiIGdyYWRpZW50VW5pdHM9InVzZXJTcGFjZU9uVXNlIj4mI3hhOyAgICAgIDxzdG9wIG9mZnNldD0iMC4xOCIgc3RvcC1jb2xvcj0iIzVlYTBlZiIvPiYjeGE7ICAgICAgPHN0b3Agb2Zmc2V0PSIxIiBzdG9wLWNvbG9yPSIjMDA3OGQ0Ii8+JiN4YTsgICAgPC9yYWRpYWxHcmFkaWVudD4mI3hhOyAgPC9kZWZzPiYjeGE7ICA8dGl0bGU+SWNvbi1uZXR3b3JraW5nLTY0PC90aXRsZT4mI3hhOyAgPHBhdGggaWQ9ImY1N2UxMDVkLTZkMmQtNGFkNy1iOGMzLWMxMDY4NGM5ZjliOCIgZD0iTTE0LjIxLDE1LjcyQTguNSw4LjUsMCwwLDEsMy43OSwyLjI4bC4wOS0uMDZhOC41LDguNSwwLDAsMSwxMC4zMywxMy41IiBmaWxsPSJ1cmwoI2U3NTc5ZjRkLTM2YTMtNDY5My1hNzI2LTdhNjA1MGFjNTY3MSkiLz4mI3hhOyAgPHBhdGggZD0iTTksMS4zMUE3LjY5LDcuNjksMCwxLDAsMTYuNjksOSw3LjcsNy43LDAsMCwwLDksMS4zMVpNMTQuMTUsMy45QTcuMzcsNy4zNywwLDAsMSwxMiw0LjcsOC44Myw4LjgzLDAsMCwwLDEwLjc1LDIsNy4yLDcuMiwwLDAsMSwxNC4xNSwzLjlaTTksMS43NGE2LjU5LDYuNTksMCwwLDEsMS4wOS4wOWgwYTcuNDgsNy40OCwwLDAsMSwxLjUzLDMsMTUuMTIsMTUuMTIsMCwwLDEtNS40NSwwQTcuMzgsNy4zOCwwLDAsMSw3LjY4LDEuODlsMCwwQTcuMzQsNy4zNCwwLDAsMSw5LDEuNzRaTTcsMkE4LjcyLDguNzIsMCwwLDAsNS43Myw0LjY4YTUuNTgsNS41OCwwLDAsMS0xLjktLjc3QTcuMzUsNy4zNSwwLDAsMSw3LDJaTTMuNzIsMTRhNS4yNyw1LjI3LDAsMCwxLDEuNzgtLjc2LDcuMDgsNy4wOCwwLDAsMCwxLjM1LDIuNzJBNy4yNSw3LjI1LDAsMCwxLDMuNzIsMTRabTYuNDEsMi4yQTcuMDgsNy4wOCwwLDAsMSw5LDE2LjI2YTYuODMsNi44MywwLDAsMS0xLjQ0LS4xNWwwLDBhNiw2LDAsMCwxLTEuNjctMywxNC43MywxNC43MywwLDAsMSw1Ljg4LDAsNiw2LDAsMCwxLTEuNjksM1ptLjczLS4xNmE3LjEzLDcuMTMsMCwwLDAsMS4zOC0yLjgsNi42OCw2LjY4LDAsMCwxLDIsLjgzQTcuMTMsNy4xMywwLDAsMSwxMC44NiwxNlptMS40OC0zLjIyYy4wOC0uMzYuMTUtLjczLjItMS4xMmwtLjQ2LjExYy0uMDUuMzEtLjEuNjItLjE3LjkxYTE1LjIzLDE1LjIzLDAsMCwwLTYuMDksMGMtLjA3LS4yNy0uMTItLjU2LS4xNy0uODZhLjI4LjI4LDAsMCwxLDAtLjA5bC0uNDYtLjEzYTIuMzYsMi4zNiwwLDAsMCwwLC4yOGMwLC4zMi4xMS42Mi4xNy45MWE1LjksNS45LDAsMCwwLTIsLjg1LDcuMjQsNy4yNCwwLDAsMSwuMTEtOS40LDYuMjksNi4yOSwwLDAsMCwyLjA4Ljg2Yy0uMDcuMjQtLjEzLjUtLjE4Ljc2czAsLjI1LS4wOC4zN2wuNDctLjExLDAtLjE3Yy4wNi0uMjYuMTItLjUxLjE5LS43NUExNC44OSwxNC44OSwwLDAsMCw5LDUuNDhhMTUsMTUsMCwwLDAsMi43OC0uMjZjLjA3LjI3LjE0LjU2LjIuODVsLjQ2LjExcS0uMTEtLjU0LS4yNC0xYTcuNzMsNy43MywwLDAsMCwyLjMtLjkxLDcuMjIsNy4yMiwwLDAsMSwuMDYsOS40OUE3LjI4LDcuMjgsMCwwLDAsMTIuMzQsMTIuNzlaIiBmaWxsPSIjNWVhMGVmIi8+JiN4YTsgIDxwYXRoIGQ9Ik0zLjY5LDdhNy45Miw3LjkyLDAsMCwxLDEuMTYtLjA4LDIuNDQsMi40NCwwLDAsMSwxLjcxLjUyQTIsMiwwLDAsMSw3LjE1LDguOWEyLjIxLDIuMjEsMCwwLDEtLjYxLDEuNjQsMi42LDIuNiwwLDAsMS0xLjg2LjYxLDkuMTcsOS4xNywwLDAsMS0xLS4wNVptLjU1LDMuNzNhNCw0LDAsMCwwLC41NSwwQTEuNjIsMS42MiwwLDAsMCw2LjU4LDguOTIsMS41LDEuNSwwLDAsMCw0Ljg3LDcuM2EzLjE3LDMuMTcsMCwwLDAtLjYzLDBaIiBmaWxsPSIjZmZmIi8+JiN4YTsgIDxwYXRoIGQ9Ik03Ljg2LDExLjExVjYuOWguNTlMOS44LDlhMTIuMTgsMTIuMTgsMCwwLDEsLjc2LDEuMzdoMGMtLjA1LS41Ni0uMDYtMS4wNy0uMDYtMS43M1Y2LjlIMTF2NC4yMWgtLjU1TDkuMTMsOWMtLjI5LS40Ny0uNTctMS0uNzktMS40aDBjMCwuNTMsMCwxLDAsMS43NHYxLjhaIiBmaWxsPSIjZmZmIi8+JiN4YTsgIDxwYXRoIGQ9Ik0xMS44OSwxMC40NWEyLDIsMCwwLDAsMSwuMjdjLjU2LDAsLjg4LS4yOS44OC0uNzJzLS4yMi0uNjItLjc5LS44My0xLjEyLS42LTEuMTItMS4yYTEuMjIsMS4yMiwwLDAsMSwxLjM3LTEuMTQsMiwyLDAsMCwxLC45My4yTDE0LDcuNDhhMS42MywxLjYzLDAsMCwwLS44LS4yYy0uNTgsMC0uOC4zNC0uOC42M3MuMjYuNTkuODQuODEsMS4wOC42MiwxLjA4LDEuMjQtLjQ4LDEuMjEtMS40OCwxLjIxYTIuMTYsMi4xNiwwLDAsMS0xLjA3LS4yN1oiIGZpbGw9IiNmZmYiLz4mI3hhOzwvc3ZnPg==;" vertex="1" parent="1">
                    <mxGeometry x="420.69" y="390" width="20" height="20" as="geometry"/>
                </mxCell>
                <mxCell id="10" value="" style="shape=image;imageAspect=0;aspect=fixed;verticalLabelPosition=bottom;verticalAlign=top;image=data:image/svg+xml,PHN2ZyB4bWxucz0iaHR0cDovL3d3dy53My5vcmcvMjAwMC9zdmciIGlkPSJhNTQyY2YzOS0yYmE2LTQyMDYtODI3OC02YTRmMWMyNDUyZjUiIHdpZHRoPSIxNi45Njc2MjQ2NjQzMDY2NCIgaGVpZ2h0PSIxNi45NzE1MTk0NzAyMTQ4NDQiIHZpZXdCb3g9IjAuNDk2OTEyNzQ3NjIxNTM2MjUgMC41MzE1Njk0MjEyOTEzNTEzIDE2Ljk2NzYyNDY2NDMwNjY0IDE2Ljk3MTUxOTQ3MDIxNDg0NCI+JiN4YTsgIDxkZWZzPiYjeGE7ICAgIDxyYWRpYWxHcmFkaWVudCBpZD0iZTc1NzlmNGQtMzZhMy00NjkzLWE3MjYtN2E2MDUwYWM1NjcxIiBjeD0iLTY4MTEuNCIgY3k9IjY3MjkuNjkiIHI9IjE3IiBncmFkaWVudFRyYW5zZm9ybT0ibWF0cml4KDAuNSwgMCwgMCwgLTAuNSwgMzQxNC45MSwgMzM3NC4wNSkiIGdyYWRpZW50VW5pdHM9InVzZXJTcGFjZU9uVXNlIj4mI3hhOyAgICAgIDxzdG9wIG9mZnNldD0iMC4xOCIgc3RvcC1jb2xvcj0iIzVlYTBlZiIvPiYjeGE7ICAgICAgPHN0b3Agb2Zmc2V0PSIxIiBzdG9wLWNvbG9yPSIjMDA3OGQ0Ii8+JiN4YTsgICAgPC9yYWRpYWxHcmFkaWVudD4mI3hhOyAgPC9kZWZzPiYjeGE7ICA8dGl0bGU+SWNvbi1uZXR3b3JraW5nLTY0PC90aXRsZT4mI3hhOyAgPHBhdGggaWQ9ImY1N2UxMDVkLTZkMmQtNGFkNy1iOGMzLWMxMDY4NGM5ZjliOCIgZD0iTTE0LjIxLDE1LjcyQTguNSw4LjUsMCwwLDEsMy43OSwyLjI4bC4wOS0uMDZhOC41LDguNSwwLDAsMSwxMC4zMywxMy41IiBmaWxsPSJ1cmwoI2U3NTc5ZjRkLTM2YTMtNDY5My1hNzI2LTdhNjA1MGFjNTY3MSkiLz4mI3hhOyAgPHBhdGggZD0iTTksMS4zMUE3LjY5LDcuNjksMCwxLDAsMTYuNjksOSw3LjcsNy43LDAsMCwwLDksMS4zMVpNMTQuMTUsMy45QTcuMzcsNy4zNywwLDAsMSwxMiw0LjcsOC44Myw4LjgzLDAsMCwwLDEwLjc1LDIsNy4yLDcuMiwwLDAsMSwxNC4xNSwzLjlaTTksMS43NGE2LjU5LDYuNTksMCwwLDEsMS4wOS4wOWgwYTcuNDgsNy40OCwwLDAsMSwxLjUzLDMsMTUuMTIsMTUuMTIsMCwwLDEtNS40NSwwQTcuMzgsNy4zOCwwLDAsMSw3LjY4LDEuODlsMCwwQTcuMzQsNy4zNCwwLDAsMSw5LDEuNzRaTTcsMkE4LjcyLDguNzIsMCwwLDAsNS43Myw0LjY4YTUuNTgsNS41OCwwLDAsMS0xLjktLjc3QTcuMzUsNy4zNSwwLDAsMSw3LDJaTTMuNzIsMTRhNS4yNyw1LjI3LDAsMCwxLDEuNzgtLjc2LDcuMDgsNy4wOCwwLDAsMCwxLjM1LDIuNzJBNy4yNSw3LjI1LDAsMCwxLDMuNzIsMTRabTYuNDEsMi4yQTcuMDgsNy4wOCwwLDAsMSw5LDE2LjI2YTYuODMsNi44MywwLDAsMS0xLjQ0LS4xNWwwLDBhNiw2LDAsMCwxLTEuNjctMywxNC43MywxNC43MywwLDAsMSw1Ljg4LDAsNiw2LDAsMCwxLTEuNjksM1ptLjczLS4xNmE3LjEzLDcuMTMsMCwwLDAsMS4zOC0yLjgsNi42OCw2LjY4LDAsMCwxLDIsLjgzQTcuMTMsNy4xMywwLDAsMSwxMC44NiwxNlptMS40OC0zLjIyYy4wOC0uMzYuMTUtLjczLjItMS4xMmwtLjQ2LjExYy0uMDUuMzEtLjEuNjItLjE3LjkxYTE1LjIzLDE1LjIzLDAsMCwwLTYuMDksMGMtLjA3LS4yNy0uMTItLjU2LS4xNy0uODZhLjI4LjI4LDAsMCwxLDAtLjA5bC0uNDYtLjEzYTIuMzYsMi4zNiwwLDAsMCwwLC4yOGMwLC4zMi4xMS42Mi4xNy45MWE1LjksNS45LDAsMCwwLTIsLjg1LDcuMjQsNy4yNCwwLDAsMSwuMTEtOS40LDYuMjksNi4yOSwwLDAsMCwyLjA4Ljg2Yy0uMDcuMjQtLjEzLjUtLjE4Ljc2czAsLjI1LS4wOC4zN2wuNDctLjExLDAtLjE3Yy4wNi0uMjYuMTItLjUxLjE5LS43NUExNC44OSwxNC44OSwwLDAsMCw5LDUuNDhhMTUsMTUsMCwwLDAsMi43OC0uMjZjLjA3LjI3LjE0LjU2LjIuODVsLjQ2LjExcS0uMTEtLjU0LS4yNC0xYTcuNzMsNy43MywwLDAsMCwyLjMtLjkxLDcuMjIsNy4yMiwwLDAsMSwuMDYsOS40OUE3LjI4LDcuMjgsMCwwLDAsMTIuMzQsMTIuNzlaIiBmaWxsPSIjNWVhMGVmIi8+JiN4YTsgIDxwYXRoIGQ9Ik0zLjY5LDdhNy45Miw3LjkyLDAsMCwxLDEuMTYtLjA4LDIuNDQsMi40NCwwLDAsMSwxLjcxLjUyQTIsMiwwLDAsMSw3LjE1LDguOWEyLjIxLDIuMjEsMCwwLDEtLjYxLDEuNjQsMi42LDIuNiwwLDAsMS0xLjg2LjYxLDkuMTcsOS4xNywwLDAsMS0xLS4wNVptLjU1LDMuNzNhNCw0LDAsMCwwLC41NSwwQTEuNjIsMS42MiwwLDAsMCw2LjU4LDguOTIsMS41LDEuNSwwLDAsMCw0Ljg3LDcuM2EzLjE3LDMuMTcsMCwwLDAtLjYzLDBaIiBmaWxsPSIjZmZmIi8+JiN4YTsgIDxwYXRoIGQ9Ik03Ljg2LDExLjExVjYuOWguNTlMOS44LDlhMTIuMTgsMTIuMTgsMCwwLDEsLjc2LDEuMzdoMGMtLjA1LS41Ni0uMDYtMS4wNy0uMDYtMS43M1Y2LjlIMTF2NC4yMWgtLjU1TDkuMTMsOWMtLjI5LS40Ny0uNTctMS0uNzktMS40aDBjMCwuNTMsMCwxLDAsMS43NHYxLjhaIiBmaWxsPSIjZmZmIi8+JiN4YTsgIDxwYXRoIGQ9Ik0xMS44OSwxMC40NWEyLDIsMCwwLDAsMSwuMjdjLjU2LDAsLjg4LS4yOS44OC0uNzJzLS4yMi0uNjItLjc5LS44My0xLjEyLS42LTEuMTItMS4yYTEuMjIsMS4yMiwwLDAsMSwxLjM3LTEuMTQsMiwyLDAsMCwxLC45My4yTDE0LDcuNDhhMS42MywxLjYzLDAsMCwwLS44LS4yYy0uNTgsMC0uOC4zNC0uOC42M3MuMjYuNTkuODQuODEsMS4wOC42MiwxLjA4LDEuMjQtLjQ4LDEuMjEtMS40OCwxLjIxYTIuMTYsMi4xNiwwLDAsMS0xLjA3LS4yN1oiIGZpbGw9IiNmZmYiLz4mI3hhOzwvc3ZnPg==;" vertex="1" parent="1">
                    <mxGeometry x="341.69" y="390" width="20" height="20" as="geometry"/>
                </mxCell>
                <mxCell id="12" value="&lt;font style=&quot;font-size: 5px&quot;&gt;privatelink.vaultcore.azure.net&lt;/font&gt;" style="text;html=1;resizable=0;autosize=1;align=center;verticalAlign=middle;points=[];fillColor=none;strokeColor=none;rounded=0;" vertex="1" parent="1">
                    <mxGeometry x="311.69000000000005" y="410" width="80" height="20" as="geometry"/>
                </mxCell>
                <mxCell id="9" value="&lt;font style=&quot;font-size: 8px&quot;&gt;&lt;b&gt;Private Endpoint Subnet&lt;/b&gt;&lt;/font&gt;" style="text;html=1;resizable=0;autosize=1;align=center;verticalAlign=middle;points=[];fillColor=none;strokeColor=none;rounded=0;" vertex="1" parent="1">
                    <mxGeometry x="361.68" y="109.99999999999997" width="110" height="20" as="geometry"/>
                </mxCell>
                <mxCell id="8" value="&lt;font style=&quot;font-size: 8px&quot;&gt;&lt;b&gt;Azure Functions Subnet&lt;/b&gt;&lt;/font&gt;" style="text;html=1;resizable=0;autosize=1;align=center;verticalAlign=middle;points=[];fillColor=none;strokeColor=none;rounded=0;" vertex="1" parent="1">
                    <mxGeometry x="361.69" y="290" width="110" height="20" as="geometry"/>
                </mxCell>
                <mxCell id="21" value="" style="shape=image;imageAspect=0;aspect=fixed;verticalLabelPosition=bottom;verticalAlign=top;image=data:image/svg+xml,PHN2ZyB4bWxucz0iaHR0cDovL3d3dy53My5vcmcvMjAwMC9zdmciIHdpZHRoPSIxOC4wMDM4NjA0NzM2MzI4MTIiIGhlaWdodD0iMTYuNzA3ODA5NDQ4MjQyMTg4IiB2aWV3Qm94PSItMC4wMDQ1NTU5ODA2NzQ5MjI0NjYgMC42NDk5OTk2NzgxMzQ5MTgyIDE4LjAwMzg2MDQ3MzYzMjgxMiAxNi43MDc4MDk0NDgyNDIxODgiPiYjeGE7ICA8ZGVmcz4mI3hhOyAgICA8bGluZWFyR3JhZGllbnQgaWQ9ImZkMDYxMjI4LTIyYmUtNDI1ZS05MTMxLTBiOGNjYTBlNWQxNyIgeDE9IjcuNjk5IiB5MT0iMjU5LjIyIiB4Mj0iNy42OTkiIHkyPSIyNjMuNzExIiBncmFkaWVudFRyYW5zZm9ybT0idHJhbnNsYXRlKDAgLTI1MCkiIGdyYWRpZW50VW5pdHM9InVzZXJTcGFjZU9uVXNlIj4mI3hhOyAgICAgIDxzdG9wIG9mZnNldD0iMC4yMyIgc3RvcC1jb2xvcj0iIzVlYTBlZiIvPiYjeGE7ICAgICAgPHN0b3Agb2Zmc2V0PSIwLjMyIiBzdG9wLWNvbG9yPSIjNWI5ZmVlIi8+JiN4YTsgICAgICA8c3RvcCBvZmZzZXQ9IjAuNDgiIHN0b3AtY29sb3I9IiM1MDlhZWIiLz4mI3hhOyAgICAgIDxzdG9wIG9mZnNldD0iMC41NyIgc3RvcC1jb2xvcj0iIzNmOTJlNiIvPiYjeGE7ICAgICAgPHN0b3Agb2Zmc2V0PSIwLjc1IiBzdG9wLWNvbG9yPSIjMjY4OGRmIi8+JiN4YTsgICAgICA8c3RvcCBvZmZzZXQ9IjAuOTMiIHN0b3AtY29sb3I9IiMxMjdmZDkiLz4mI3hhOyAgICA8L2xpbmVhckdyYWRpZW50PiYjeGE7ICAgIDxsaW5lYXJHcmFkaWVudCBpZD0iZWE5NjQ5YTYtMDRiNS00N2Q2LTgyNDctZWQzYWI5ZmY5ZDA2IiB4MT0iOS45MjciIHkxPSIyNjEuMDkxIiB4Mj0iOS45MjciIHkyPSIyNjUuNTgyIiBncmFkaWVudFRyYW5zZm9ybT0idHJhbnNsYXRlKDAgLTI1MCkiIGdyYWRpZW50VW5pdHM9InVzZXJTcGFjZU9uVXNlIj4mI3hhOyAgICAgIDxzdG9wIG9mZnNldD0iMC4wMiIgc3RvcC1jb2xvcj0iIzVlYTBlZiIvPiYjeGE7ICAgICAgPHN0b3Agb2Zmc2V0PSIwLjE0IiBzdG9wLWNvbG9yPSIjNWI5ZmVlIi8+JiN4YTsgICAgICA8c3RvcCBvZmZzZXQ9IjAuMjMiIHN0b3AtY29sb3I9IiM1YjlmZWUiLz4mI3hhOyAgICAgIDxzdG9wIG9mZnNldD0iMC4zNCIgc3RvcC1jb2xvcj0iIzUwOWFlYiIvPiYjeGE7ICAgICAgPHN0b3Agb2Zmc2V0PSIwLjQ0IiBzdG9wLWNvbG9yPSIjM2Y5MmU2Ii8+JiN4YTsgICAgICA8c3RvcCBvZmZzZXQ9IjAuNjMiIHN0b3AtY29sb3I9IiMyNjg4ZGYiLz4mI3hhOyAgICAgIDxzdG9wIG9mZnNldD0iMC45MyIgc3RvcC1jb2xvcj0iIzEyN2ZkOSIvPiYjeGE7ICAgIDwvbGluZWFyR3JhZGllbnQ+JiN4YTsgIDwvZGVmcz4mI3hhOyAgPHBhdGggZD0iTTguMjUyLDIuNTIxSDkuMzc0VjkuNTk0SDguMjUyWiIgZmlsbD0iIzdhN2E3YSIvPiYjeGE7ICA8cGF0aCBkPSJNMTAuNDU5LDIuM0ExLjY0NywxLjY0NywwLDEsMSw4LjgxMy42NWgwQTEuNjQ2LDEuNjQ2LDAsMCwxLDEwLjQ1OSwyLjNaIiBmaWxsPSIjMTQ5MGRmIi8+JiN4YTsgIDxwYXRoIGQ9Ik04LjU4OCw5LjIyaC0xLjhhMi4yNDYsMi4yNDYsMCwwLDAtLjM0OCw0LjQ2MSwyLjQxNSwyLjQxNSwwLDAsMSwuMDIyLS44MzUsMS40MTgsMS40MTgsMCwwLDEsLjMyNi0yLjhoMS44YTEuNDIyLDEuNDIyLDAsMCwxLDAsMi44NDRIOC4wOTRhMS4wNzgsMS4wNzgsMCwwLDAtLjEuNDUsMS4wMjIsMS4wMjIsMCwwLDAsLjA3MS4zNzRoLjUyN2EyLjI0NiwyLjI0NiwwLDEsMCwwLTQuNDkxWiIgZmlsbD0idXJsKCNmZDA2MTIyOC0yMmJlLTQyNWUtOTEzMS0wYjhjY2EwZTVkMTcpIi8+JiN4YTsgIDxwYXRoIGQ9Ik0xMS4xODIsMTEuMTIxYTIuNjQyLDIuNjQyLDAsMCwxLC4wMjYuMzQ0LDIuMzE3LDIuMzE3LDAsMCwxLS4wNDkuNDkxLDEuNDE4LDEuNDE4LDAsMCwxLS4zMjUsMi44aC0xLjhhMS40MjMsMS40MjMsMCwwLDEsMC0yLjg0NWguNDk0YTEuMDQyLDEuMDQyLDAsMCwwLC4xLS40NDksMS4wMTgsMS4wMTgsMCwwLDAtLjA3MS0uMzc0SDkuMDM3YTIuMjQ2LDIuMjQ2LDAsMCwwLDAsNC40OTFoMS44YTIuMjQ2LDIuMjQ2LDAsMCwwLC4zNDgtNC40NjFaIiBmaWxsPSJ1cmwoI2VhOTY0OWE2LTA0YjUtNDdkNi04MjQ3LWVkM2FiOWZmOWQwNikiLz4mI3hhOyAgPHBhdGggZD0iTTUuNTgsMTYuNTI1bC0uNDEyLjQxNWEuMjguMjgsMCwwLDEtLjQsMGwtNC42MDctNC42YS41NjYuNTY2LDAsMCwxLDAtLjhsLjQxNi0uNDEyLDUsNC45OTJhLjI3Ni4yNzYsMCwwLDEsMCwuMzkxaDBaIiBmaWxsPSIjNTBlNmZmIi8+JiN4YTsgIDxwYXRoIGQ9Ik01LjA4Miw3LjAybC40Ni40NmEuMjgyLjI4MiwwLDAsMSwwLC40TC42MjUsMTIuODA5bC0uNDYxLS40NTdhLjU2Ni41NjYsMCwwLDEsMC0uOEw0LjY4NSw3LjAyQS4yOC4yOCwwLDAsMSw1LjA4Miw3LjAyWiIgZmlsbD0iIzE0OTBkZiIvPiYjeGE7ICA8cGF0aCBkPSJNMTIuNDE3LDE2Ljg1MWEuMjc4LjI3OCwwLDAsMS0uMDA2LS4zOTJoMGwuMDA2LDAsNS00Ljk4OS40MTYuNDE2YS41NjYuNTY2LDAsMCwxLDAsLjhsLTQuNjExLDQuNTg4YS4yNzcuMjc3LDAsMCwxLS4zOTEuMDA2aDBsLS4wMDYtLjAwNVoiIGZpbGw9IiM1MGU2ZmYiLz4mI3hhOyAgPHBhdGggZD0iTTEzLjMxMSw3LjM0OWw0LjUyNSw0LjUzNmEuNTYzLjU2MywwLDAsMSwwLC43OTNsLS40NjEuNDZMMTIuNDU0LDguMjA2YS4yODkuMjg5LDAsMCwxLDAtLjRsLjQ2LS40NTZBLjI4Mi4yODIsMCwwLDEsMTMuMzExLDcuMzQ5WiIgZmlsbD0iIzE0OTBkZiIvPiYjeGE7PC9zdmc+;" vertex="1" parent="1">
                    <mxGeometry x="403.97999999999996" y="180.55" width="25.41" height="24" as="geometry"/>
                </mxCell>
                <mxCell id="22" value="" style="shape=image;imageAspect=0;aspect=fixed;verticalLabelPosition=bottom;verticalAlign=top;image=data:image/svg+xml,PHN2ZyB4bWxucz0iaHR0cDovL3d3dy53My5vcmcvMjAwMC9zdmciIHdpZHRoPSIxOC4wMDM4NjA0NzM2MzI4MTIiIGhlaWdodD0iMTYuNzA3ODA5NDQ4MjQyMTg4IiB2aWV3Qm94PSItMC4wMDQ1NTU5ODA2NzQ5MjI0NjYgMC42NDk5OTk2NzgxMzQ5MTgyIDE4LjAwMzg2MDQ3MzYzMjgxMiAxNi43MDc4MDk0NDgyNDIxODgiPiYjeGE7ICA8ZGVmcz4mI3hhOyAgICA8bGluZWFyR3JhZGllbnQgaWQ9ImZkMDYxMjI4LTIyYmUtNDI1ZS05MTMxLTBiOGNjYTBlNWQxNyIgeDE9IjcuNjk5IiB5MT0iMjU5LjIyIiB4Mj0iNy42OTkiIHkyPSIyNjMuNzExIiBncmFkaWVudFRyYW5zZm9ybT0idHJhbnNsYXRlKDAgLTI1MCkiIGdyYWRpZW50VW5pdHM9InVzZXJTcGFjZU9uVXNlIj4mI3hhOyAgICAgIDxzdG9wIG9mZnNldD0iMC4yMyIgc3RvcC1jb2xvcj0iIzVlYTBlZiIvPiYjeGE7ICAgICAgPHN0b3Agb2Zmc2V0PSIwLjMyIiBzdG9wLWNvbG9yPSIjNWI5ZmVlIi8+JiN4YTsgICAgICA8c3RvcCBvZmZzZXQ9IjAuNDgiIHN0b3AtY29sb3I9IiM1MDlhZWIiLz4mI3hhOyAgICAgIDxzdG9wIG9mZnNldD0iMC41NyIgc3RvcC1jb2xvcj0iIzNmOTJlNiIvPiYjeGE7ICAgICAgPHN0b3Agb2Zmc2V0PSIwLjc1IiBzdG9wLWNvbG9yPSIjMjY4OGRmIi8+JiN4YTsgICAgICA8c3RvcCBvZmZzZXQ9IjAuOTMiIHN0b3AtY29sb3I9IiMxMjdmZDkiLz4mI3hhOyAgICA8L2xpbmVhckdyYWRpZW50PiYjeGE7ICAgIDxsaW5lYXJHcmFkaWVudCBpZD0iZWE5NjQ5YTYtMDRiNS00N2Q2LTgyNDctZWQzYWI5ZmY5ZDA2IiB4MT0iOS45MjciIHkxPSIyNjEuMDkxIiB4Mj0iOS45MjciIHkyPSIyNjUuNTgyIiBncmFkaWVudFRyYW5zZm9ybT0idHJhbnNsYXRlKDAgLTI1MCkiIGdyYWRpZW50VW5pdHM9InVzZXJTcGFjZU9uVXNlIj4mI3hhOyAgICAgIDxzdG9wIG9mZnNldD0iMC4wMiIgc3RvcC1jb2xvcj0iIzVlYTBlZiIvPiYjeGE7ICAgICAgPHN0b3Agb2Zmc2V0PSIwLjE0IiBzdG9wLWNvbG9yPSIjNWI5ZmVlIi8+JiN4YTsgICAgICA8c3RvcCBvZmZzZXQ9IjAuMjMiIHN0b3AtY29sb3I9IiM1YjlmZWUiLz4mI3hhOyAgICAgIDxzdG9wIG9mZnNldD0iMC4zNCIgc3RvcC1jb2xvcj0iIzUwOWFlYiIvPiYjeGE7ICAgICAgPHN0b3Agb2Zmc2V0PSIwLjQ0IiBzdG9wLWNvbG9yPSIjM2Y5MmU2Ii8+JiN4YTsgICAgICA8c3RvcCBvZmZzZXQ9IjAuNjMiIHN0b3AtY29sb3I9IiMyNjg4ZGYiLz4mI3hhOyAgICAgIDxzdG9wIG9mZnNldD0iMC45MyIgc3RvcC1jb2xvcj0iIzEyN2ZkOSIvPiYjeGE7ICAgIDwvbGluZWFyR3JhZGllbnQ+JiN4YTsgIDwvZGVmcz4mI3hhOyAgPHBhdGggZD0iTTguMjUyLDIuNTIxSDkuMzc0VjkuNTk0SDguMjUyWiIgZmlsbD0iIzdhN2E3YSIvPiYjeGE7ICA8cGF0aCBkPSJNMTAuNDU5LDIuM0ExLjY0NywxLjY0NywwLDEsMSw4LjgxMy42NWgwQTEuNjQ2LDEuNjQ2LDAsMCwxLDEwLjQ1OSwyLjNaIiBmaWxsPSIjMTQ5MGRmIi8+JiN4YTsgIDxwYXRoIGQ9Ik04LjU4OCw5LjIyaC0xLjhhMi4yNDYsMi4yNDYsMCwwLDAtLjM0OCw0LjQ2MSwyLjQxNSwyLjQxNSwwLDAsMSwuMDIyLS44MzUsMS40MTgsMS40MTgsMCwwLDEsLjMyNi0yLjhoMS44YTEuNDIyLDEuNDIyLDAsMCwxLDAsMi44NDRIOC4wOTRhMS4wNzgsMS4wNzgsMCwwLDAtLjEuNDUsMS4wMjIsMS4wMjIsMCwwLDAsLjA3MS4zNzRoLjUyN2EyLjI0NiwyLjI0NiwwLDEsMCwwLTQuNDkxWiIgZmlsbD0idXJsKCNmZDA2MTIyOC0yMmJlLTQyNWUtOTEzMS0wYjhjY2EwZTVkMTcpIi8+JiN4YTsgIDxwYXRoIGQ9Ik0xMS4xODIsMTEuMTIxYTIuNjQyLDIuNjQyLDAsMCwxLC4wMjYuMzQ0LDIuMzE3LDIuMzE3LDAsMCwxLS4wNDkuNDkxLDEuNDE4LDEuNDE4LDAsMCwxLS4zMjUsMi44aC0xLjhhMS40MjMsMS40MjMsMCwwLDEsMC0yLjg0NWguNDk0YTEuMDQyLDEuMDQyLDAsMCwwLC4xLS40NDksMS4wMTgsMS4wMTgsMCwwLDAtLjA3MS0uMzc0SDkuMDM3YTIuMjQ2LDIuMjQ2LDAsMCwwLDAsNC40OTFoMS44YTIuMjQ2LDIuMjQ2LDAsMCwwLC4zNDgtNC40NjFaIiBmaWxsPSJ1cmwoI2VhOTY0OWE2LTA0YjUtNDdkNi04MjQ3LWVkM2FiOWZmOWQwNikiLz4mI3hhOyAgPHBhdGggZD0iTTUuNTgsMTYuNTI1bC0uNDEyLjQxNWEuMjguMjgsMCwwLDEtLjQsMGwtNC42MDctNC42YS41NjYuNTY2LDAsMCwxLDAtLjhsLjQxNi0uNDEyLDUsNC45OTJhLjI3Ni4yNzYsMCwwLDEsMCwuMzkxaDBaIiBmaWxsPSIjNTBlNmZmIi8+JiN4YTsgIDxwYXRoIGQ9Ik01LjA4Miw3LjAybC40Ni40NmEuMjgyLjI4MiwwLDAsMSwwLC40TC42MjUsMTIuODA5bC0uNDYxLS40NTdhLjU2Ni41NjYsMCwwLDEsMC0uOEw0LjY4NSw3LjAyQS4yOC4yOCwwLDAsMSw1LjA4Miw3LjAyWiIgZmlsbD0iIzE0OTBkZiIvPiYjeGE7ICA8cGF0aCBkPSJNMTIuNDE3LDE2Ljg1MWEuMjc4LjI3OCwwLDAsMS0uMDA2LS4zOTJoMGwuMDA2LDAsNS00Ljk4OS40MTYuNDE2YS41NjYuNTY2LDAsMCwxLDAsLjhsLTQuNjExLDQuNTg4YS4yNzcuMjc3LDAsMCwxLS4zOTEuMDA2aDBsLS4wMDYtLjAwNVoiIGZpbGw9IiM1MGU2ZmYiLz4mI3hhOyAgPHBhdGggZD0iTTEzLjMxMSw3LjM0OWw0LjUyNSw0LjUzNmEuNTYzLjU2MywwLDAsMSwwLC43OTNsLS40NjEuNDZMMTIuNDU0LDguMjA2YS4yODkuMjg5LDAsMCwxLDAtLjRsLjQ2LS40NTZBLjI4Mi4yODIsMCwwLDEsMTMuMzExLDcuMzQ5WiIgZmlsbD0iIzE0OTBkZiIvPiYjeGE7PC9zdmc+;" vertex="1" parent="1">
                    <mxGeometry x="442.5700000000001" y="220" width="25.41" height="24" as="geometry"/>
                </mxCell>
                <mxCell id="23" value="" style="shape=image;imageAspect=0;aspect=fixed;verticalLabelPosition=bottom;verticalAlign=top;image=data:image/svg+xml,PHN2ZyB4bWxucz0iaHR0cDovL3d3dy53My5vcmcvMjAwMC9zdmciIHdpZHRoPSIxOC4wMDM4NjA0NzM2MzI4MTIiIGhlaWdodD0iMTYuNzA3ODA5NDQ4MjQyMTg4IiB2aWV3Qm94PSItMC4wMDQ1NTU5ODA2NzQ5MjI0NjYgMC42NDk5OTk2NzgxMzQ5MTgyIDE4LjAwMzg2MDQ3MzYzMjgxMiAxNi43MDc4MDk0NDgyNDIxODgiPiYjeGE7ICA8ZGVmcz4mI3hhOyAgICA8bGluZWFyR3JhZGllbnQgaWQ9ImZkMDYxMjI4LTIyYmUtNDI1ZS05MTMxLTBiOGNjYTBlNWQxNyIgeDE9IjcuNjk5IiB5MT0iMjU5LjIyIiB4Mj0iNy42OTkiIHkyPSIyNjMuNzExIiBncmFkaWVudFRyYW5zZm9ybT0idHJhbnNsYXRlKDAgLTI1MCkiIGdyYWRpZW50VW5pdHM9InVzZXJTcGFjZU9uVXNlIj4mI3hhOyAgICAgIDxzdG9wIG9mZnNldD0iMC4yMyIgc3RvcC1jb2xvcj0iIzVlYTBlZiIvPiYjeGE7ICAgICAgPHN0b3Agb2Zmc2V0PSIwLjMyIiBzdG9wLWNvbG9yPSIjNWI5ZmVlIi8+JiN4YTsgICAgICA8c3RvcCBvZmZzZXQ9IjAuNDgiIHN0b3AtY29sb3I9IiM1MDlhZWIiLz4mI3hhOyAgICAgIDxzdG9wIG9mZnNldD0iMC41NyIgc3RvcC1jb2xvcj0iIzNmOTJlNiIvPiYjeGE7ICAgICAgPHN0b3Agb2Zmc2V0PSIwLjc1IiBzdG9wLWNvbG9yPSIjMjY4OGRmIi8+JiN4YTsgICAgICA8c3RvcCBvZmZzZXQ9IjAuOTMiIHN0b3AtY29sb3I9IiMxMjdmZDkiLz4mI3hhOyAgICA8L2xpbmVhckdyYWRpZW50PiYjeGE7ICAgIDxsaW5lYXJHcmFkaWVudCBpZD0iZWE5NjQ5YTYtMDRiNS00N2Q2LTgyNDctZWQzYWI5ZmY5ZDA2IiB4MT0iOS45MjciIHkxPSIyNjEuMDkxIiB4Mj0iOS45MjciIHkyPSIyNjUuNTgyIiBncmFkaWVudFRyYW5zZm9ybT0idHJhbnNsYXRlKDAgLTI1MCkiIGdyYWRpZW50VW5pdHM9InVzZXJTcGFjZU9uVXNlIj4mI3hhOyAgICAgIDxzdG9wIG9mZnNldD0iMC4wMiIgc3RvcC1jb2xvcj0iIzVlYTBlZiIvPiYjeGE7ICAgICAgPHN0b3Agb2Zmc2V0PSIwLjE0IiBzdG9wLWNvbG9yPSIjNWI5ZmVlIi8+JiN4YTsgICAgICA8c3RvcCBvZmZzZXQ9IjAuMjMiIHN0b3AtY29sb3I9IiM1YjlmZWUiLz4mI3hhOyAgICAgIDxzdG9wIG9mZnNldD0iMC4zNCIgc3RvcC1jb2xvcj0iIzUwOWFlYiIvPiYjeGE7ICAgICAgPHN0b3Agb2Zmc2V0PSIwLjQ0IiBzdG9wLWNvbG9yPSIjM2Y5MmU2Ii8+JiN4YTsgICAgICA8c3RvcCBvZmZzZXQ9IjAuNjMiIHN0b3AtY29sb3I9IiMyNjg4ZGYiLz4mI3hhOyAgICAgIDxzdG9wIG9mZnNldD0iMC45MyIgc3RvcC1jb2xvcj0iIzEyN2ZkOSIvPiYjeGE7ICAgIDwvbGluZWFyR3JhZGllbnQ+JiN4YTsgIDwvZGVmcz4mI3hhOyAgPHBhdGggZD0iTTguMjUyLDIuNTIxSDkuMzc0VjkuNTk0SDguMjUyWiIgZmlsbD0iIzdhN2E3YSIvPiYjeGE7ICA8cGF0aCBkPSJNMTAuNDU5LDIuM0ExLjY0NywxLjY0NywwLDEsMSw4LjgxMy42NWgwQTEuNjQ2LDEuNjQ2LDAsMCwxLDEwLjQ1OSwyLjNaIiBmaWxsPSIjMTQ5MGRmIi8+JiN4YTsgIDxwYXRoIGQ9Ik04LjU4OCw5LjIyaC0xLjhhMi4yNDYsMi4yNDYsMCwwLDAtLjM0OCw0LjQ2MSwyLjQxNSwyLjQxNSwwLDAsMSwuMDIyLS44MzUsMS40MTgsMS40MTgsMCwwLDEsLjMyNi0yLjhoMS44YTEuNDIyLDEuNDIyLDAsMCwxLDAsMi44NDRIOC4wOTRhMS4wNzgsMS4wNzgsMCwwLDAtLjEuNDUsMS4wMjIsMS4wMjIsMCwwLDAsLjA3MS4zNzRoLjUyN2EyLjI0NiwyLjI0NiwwLDEsMCwwLTQuNDkxWiIgZmlsbD0idXJsKCNmZDA2MTIyOC0yMmJlLTQyNWUtOTEzMS0wYjhjY2EwZTVkMTcpIi8+JiN4YTsgIDxwYXRoIGQ9Ik0xMS4xODIsMTEuMTIxYTIuNjQyLDIuNjQyLDAsMCwxLC4wMjYuMzQ0LDIuMzE3LDIuMzE3LDAsMCwxLS4wNDkuNDkxLDEuNDE4LDEuNDE4LDAsMCwxLS4zMjUsMi44aC0xLjhhMS40MjMsMS40MjMsMCwwLDEsMC0yLjg0NWguNDk0YTEuMDQyLDEuMDQyLDAsMCwwLC4xLS40NDksMS4wMTgsMS4wMTgsMCwwLDAtLjA3MS0uMzc0SDkuMDM3YTIuMjQ2LDIuMjQ2LDAsMCwwLDAsNC40OTFoMS44YTIuMjQ2LDIuMjQ2LDAsMCwwLC4zNDgtNC40NjFaIiBmaWxsPSJ1cmwoI2VhOTY0OWE2LTA0YjUtNDdkNi04MjQ3LWVkM2FiOWZmOWQwNikiLz4mI3hhOyAgPHBhdGggZD0iTTUuNTgsMTYuNTI1bC0uNDEyLjQxNWEuMjguMjgsMCwwLDEtLjQsMGwtNC42MDctNC42YS41NjYuNTY2LDAsMCwxLDAtLjhsLjQxNi0uNDEyLDUsNC45OTJhLjI3Ni4yNzYsMCwwLDEsMCwuMzkxaDBaIiBmaWxsPSIjNTBlNmZmIi8+JiN4YTsgIDxwYXRoIGQ9Ik01LjA4Miw3LjAybC40Ni40NmEuMjgyLjI4MiwwLDAsMSwwLC40TC42MjUsMTIuODA5bC0uNDYxLS40NTdhLjU2Ni41NjYsMCwwLDEsMC0uOEw0LjY4NSw3LjAyQS4yOC4yOCwwLDAsMSw1LjA4Miw3LjAyWiIgZmlsbD0iIzE0OTBkZiIvPiYjeGE7ICA8cGF0aCBkPSJNMTIuNDE3LDE2Ljg1MWEuMjc4LjI3OCwwLDAsMS0uMDA2LS4zOTJoMGwuMDA2LDAsNS00Ljk4OS40MTYuNDE2YS41NjYuNTY2LDAsMCwxLDAsLjhsLTQuNjExLDQuNTg4YS4yNzcuMjc3LDAsMCwxLS4zOTEuMDA2aDBsLS4wMDYtLjAwNVoiIGZpbGw9IiM1MGU2ZmYiLz4mI3hhOyAgPHBhdGggZD0iTTEzLjMxMSw3LjM0OWw0LjUyNSw0LjUzNmEuNTYzLjU2MywwLDAsMSwwLC43OTNsLS40NjEuNDZMMTIuNDU0LDguMjA2YS4yODkuMjg5LDAsMCwxLDAtLjRsLjQ2LS40NTZBLjI4Mi4yODIsMCwwLDEsMTMuMzExLDcuMzQ5WiIgZmlsbD0iIzE0OTBkZiIvPiYjeGE7PC9zdmc+;" vertex="1" parent="1">
                    <mxGeometry x="417.16" y="220" width="25.41" height="24" as="geometry"/>
                </mxCell>
                <mxCell id="24" value="" style="shape=image;imageAspect=0;aspect=fixed;verticalLabelPosition=bottom;verticalAlign=top;image=data:image/svg+xml,PHN2ZyB4bWxucz0iaHR0cDovL3d3dy53My5vcmcvMjAwMC9zdmciIHdpZHRoPSIxOC4wMDM4NjA0NzM2MzI4MTIiIGhlaWdodD0iMTYuNzA3ODA5NDQ4MjQyMTg4IiB2aWV3Qm94PSItMC4wMDQ1NTU5ODA2NzQ5MjI0NjYgMC42NDk5OTk2NzgxMzQ5MTgyIDE4LjAwMzg2MDQ3MzYzMjgxMiAxNi43MDc4MDk0NDgyNDIxODgiPiYjeGE7ICA8ZGVmcz4mI3hhOyAgICA8bGluZWFyR3JhZGllbnQgaWQ9ImZkMDYxMjI4LTIyYmUtNDI1ZS05MTMxLTBiOGNjYTBlNWQxNyIgeDE9IjcuNjk5IiB5MT0iMjU5LjIyIiB4Mj0iNy42OTkiIHkyPSIyNjMuNzExIiBncmFkaWVudFRyYW5zZm9ybT0idHJhbnNsYXRlKDAgLTI1MCkiIGdyYWRpZW50VW5pdHM9InVzZXJTcGFjZU9uVXNlIj4mI3hhOyAgICAgIDxzdG9wIG9mZnNldD0iMC4yMyIgc3RvcC1jb2xvcj0iIzVlYTBlZiIvPiYjeGE7ICAgICAgPHN0b3Agb2Zmc2V0PSIwLjMyIiBzdG9wLWNvbG9yPSIjNWI5ZmVlIi8+JiN4YTsgICAgICA8c3RvcCBvZmZzZXQ9IjAuNDgiIHN0b3AtY29sb3I9IiM1MDlhZWIiLz4mI3hhOyAgICAgIDxzdG9wIG9mZnNldD0iMC41NyIgc3RvcC1jb2xvcj0iIzNmOTJlNiIvPiYjeGE7ICAgICAgPHN0b3Agb2Zmc2V0PSIwLjc1IiBzdG9wLWNvbG9yPSIjMjY4OGRmIi8+JiN4YTsgICAgICA8c3RvcCBvZmZzZXQ9IjAuOTMiIHN0b3AtY29sb3I9IiMxMjdmZDkiLz4mI3hhOyAgICA8L2xpbmVhckdyYWRpZW50PiYjeGE7ICAgIDxsaW5lYXJHcmFkaWVudCBpZD0iZWE5NjQ5YTYtMDRiNS00N2Q2LTgyNDctZWQzYWI5ZmY5ZDA2IiB4MT0iOS45MjciIHkxPSIyNjEuMDkxIiB4Mj0iOS45MjciIHkyPSIyNjUuNTgyIiBncmFkaWVudFRyYW5zZm9ybT0idHJhbnNsYXRlKDAgLTI1MCkiIGdyYWRpZW50VW5pdHM9InVzZXJTcGFjZU9uVXNlIj4mI3hhOyAgICAgIDxzdG9wIG9mZnNldD0iMC4wMiIgc3RvcC1jb2xvcj0iIzVlYTBlZiIvPiYjeGE7ICAgICAgPHN0b3Agb2Zmc2V0PSIwLjE0IiBzdG9wLWNvbG9yPSIjNWI5ZmVlIi8+JiN4YTsgICAgICA8c3RvcCBvZmZzZXQ9IjAuMjMiIHN0b3AtY29sb3I9IiM1YjlmZWUiLz4mI3hhOyAgICAgIDxzdG9wIG9mZnNldD0iMC4zNCIgc3RvcC1jb2xvcj0iIzUwOWFlYiIvPiYjeGE7ICAgICAgPHN0b3Agb2Zmc2V0PSIwLjQ0IiBzdG9wLWNvbG9yPSIjM2Y5MmU2Ii8+JiN4YTsgICAgICA8c3RvcCBvZmZzZXQ9IjAuNjMiIHN0b3AtY29sb3I9IiMyNjg4ZGYiLz4mI3hhOyAgICAgIDxzdG9wIG9mZnNldD0iMC45MyIgc3RvcC1jb2xvcj0iIzEyN2ZkOSIvPiYjeGE7ICAgIDwvbGluZWFyR3JhZGllbnQ+JiN4YTsgIDwvZGVmcz4mI3hhOyAgPHBhdGggZD0iTTguMjUyLDIuNTIxSDkuMzc0VjkuNTk0SDguMjUyWiIgZmlsbD0iIzdhN2E3YSIvPiYjeGE7ICA8cGF0aCBkPSJNMTAuNDU5LDIuM0ExLjY0NywxLjY0NywwLDEsMSw4LjgxMy42NWgwQTEuNjQ2LDEuNjQ2LDAsMCwxLDEwLjQ1OSwyLjNaIiBmaWxsPSIjMTQ5MGRmIi8+JiN4YTsgIDxwYXRoIGQ9Ik04LjU4OCw5LjIyaC0xLjhhMi4yNDYsMi4yNDYsMCwwLDAtLjM0OCw0LjQ2MSwyLjQxNSwyLjQxNSwwLDAsMSwuMDIyLS44MzUsMS40MTgsMS40MTgsMCwwLDEsLjMyNi0yLjhoMS44YTEuNDIyLDEuNDIyLDAsMCwxLDAsMi44NDRIOC4wOTRhMS4wNzgsMS4wNzgsMCwwLDAtLjEuNDUsMS4wMjIsMS4wMjIsMCwwLDAsLjA3MS4zNzRoLjUyN2EyLjI0NiwyLjI0NiwwLDEsMCwwLTQuNDkxWiIgZmlsbD0idXJsKCNmZDA2MTIyOC0yMmJlLTQyNWUtOTEzMS0wYjhjY2EwZTVkMTcpIi8+JiN4YTsgIDxwYXRoIGQ9Ik0xMS4xODIsMTEuMTIxYTIuNjQyLDIuNjQyLDAsMCwxLC4wMjYuMzQ0LDIuMzE3LDIuMzE3LDAsMCwxLS4wNDkuNDkxLDEuNDE4LDEuNDE4LDAsMCwxLS4zMjUsMi44aC0xLjhhMS40MjMsMS40MjMsMCwwLDEsMC0yLjg0NWguNDk0YTEuMDQyLDEuMDQyLDAsMCwwLC4xLS40NDksMS4wMTgsMS4wMTgsMCwwLDAtLjA3MS0uMzc0SDkuMDM3YTIuMjQ2LDIuMjQ2LDAsMCwwLDAsNC40OTFoMS44YTIuMjQ2LDIuMjQ2LDAsMCwwLC4zNDgtNC40NjFaIiBmaWxsPSJ1cmwoI2VhOTY0OWE2LTA0YjUtNDdkNi04MjQ3LWVkM2FiOWZmOWQwNikiLz4mI3hhOyAgPHBhdGggZD0iTTUuNTgsMTYuNTI1bC0uNDEyLjQxNWEuMjguMjgsMCwwLDEtLjQsMGwtNC42MDctNC42YS41NjYuNTY2LDAsMCwxLDAtLjhsLjQxNi0uNDEyLDUsNC45OTJhLjI3Ni4yNzYsMCwwLDEsMCwuMzkxaDBaIiBmaWxsPSIjNTBlNmZmIi8+JiN4YTsgIDxwYXRoIGQ9Ik01LjA4Miw3LjAybC40Ni40NmEuMjgyLjI4MiwwLDAsMSwwLC40TC42MjUsMTIuODA5bC0uNDYxLS40NTdhLjU2Ni41NjYsMCwwLDEsMC0uOEw0LjY4NSw3LjAyQS4yOC4yOCwwLDAsMSw1LjA4Miw3LjAyWiIgZmlsbD0iIzE0OTBkZiIvPiYjeGE7ICA8cGF0aCBkPSJNMTIuNDE3LDE2Ljg1MWEuMjc4LjI3OCwwLDAsMS0uMDA2LS4zOTJoMGwuMDA2LDAsNS00Ljk4OS40MTYuNDE2YS41NjYuNTY2LDAsMCwxLDAsLjhsLTQuNjExLDQuNTg4YS4yNzcuMjc3LDAsMCwxLS4zOTEuMDA2aDBsLS4wMDYtLjAwNVoiIGZpbGw9IiM1MGU2ZmYiLz4mI3hhOyAgPHBhdGggZD0iTTEzLjMxMSw3LjM0OWw0LjUyNSw0LjUzNmEuNTYzLjU2MywwLDAsMSwwLC43OTNsLS40NjEuNDZMMTIuNDU0LDguMjA2YS4yODkuMjg5LDAsMCwxLDAtLjRsLjQ2LS40NTZBLjI4Mi4yODIsMCwwLDEsMTMuMzExLDcuMzQ5WiIgZmlsbD0iIzE0OTBkZiIvPiYjeGE7PC9zdmc+;" vertex="1" parent="1">
                    <mxGeometry x="391.75000000000006" y="220" width="25.41" height="24" as="geometry"/>
                </mxCell>
                <mxCell id="25" value="" style="shape=image;imageAspect=0;aspect=fixed;verticalLabelPosition=bottom;verticalAlign=top;image=data:image/svg+xml,PHN2ZyB4bWxucz0iaHR0cDovL3d3dy53My5vcmcvMjAwMC9zdmciIHdpZHRoPSIxOC4wMDM4NjA0NzM2MzI4MTIiIGhlaWdodD0iMTYuNzA3ODA5NDQ4MjQyMTg4IiB2aWV3Qm94PSItMC4wMDQ1NTU5ODA2NzQ5MjI0NjYgMC42NDk5OTk2NzgxMzQ5MTgyIDE4LjAwMzg2MDQ3MzYzMjgxMiAxNi43MDc4MDk0NDgyNDIxODgiPiYjeGE7ICA8ZGVmcz4mI3hhOyAgICA8bGluZWFyR3JhZGllbnQgaWQ9ImZkMDYxMjI4LTIyYmUtNDI1ZS05MTMxLTBiOGNjYTBlNWQxNyIgeDE9IjcuNjk5IiB5MT0iMjU5LjIyIiB4Mj0iNy42OTkiIHkyPSIyNjMuNzExIiBncmFkaWVudFRyYW5zZm9ybT0idHJhbnNsYXRlKDAgLTI1MCkiIGdyYWRpZW50VW5pdHM9InVzZXJTcGFjZU9uVXNlIj4mI3hhOyAgICAgIDxzdG9wIG9mZnNldD0iMC4yMyIgc3RvcC1jb2xvcj0iIzVlYTBlZiIvPiYjeGE7ICAgICAgPHN0b3Agb2Zmc2V0PSIwLjMyIiBzdG9wLWNvbG9yPSIjNWI5ZmVlIi8+JiN4YTsgICAgICA8c3RvcCBvZmZzZXQ9IjAuNDgiIHN0b3AtY29sb3I9IiM1MDlhZWIiLz4mI3hhOyAgICAgIDxzdG9wIG9mZnNldD0iMC41NyIgc3RvcC1jb2xvcj0iIzNmOTJlNiIvPiYjeGE7ICAgICAgPHN0b3Agb2Zmc2V0PSIwLjc1IiBzdG9wLWNvbG9yPSIjMjY4OGRmIi8+JiN4YTsgICAgICA8c3RvcCBvZmZzZXQ9IjAuOTMiIHN0b3AtY29sb3I9IiMxMjdmZDkiLz4mI3hhOyAgICA8L2xpbmVhckdyYWRpZW50PiYjeGE7ICAgIDxsaW5lYXJHcmFkaWVudCBpZD0iZWE5NjQ5YTYtMDRiNS00N2Q2LTgyNDctZWQzYWI5ZmY5ZDA2IiB4MT0iOS45MjciIHkxPSIyNjEuMDkxIiB4Mj0iOS45MjciIHkyPSIyNjUuNTgyIiBncmFkaWVudFRyYW5zZm9ybT0idHJhbnNsYXRlKDAgLTI1MCkiIGdyYWRpZW50VW5pdHM9InVzZXJTcGFjZU9uVXNlIj4mI3hhOyAgICAgIDxzdG9wIG9mZnNldD0iMC4wMiIgc3RvcC1jb2xvcj0iIzVlYTBlZiIvPiYjeGE7ICAgICAgPHN0b3Agb2Zmc2V0PSIwLjE0IiBzdG9wLWNvbG9yPSIjNWI5ZmVlIi8+JiN4YTsgICAgICA8c3RvcCBvZmZzZXQ9IjAuMjMiIHN0b3AtY29sb3I9IiM1YjlmZWUiLz4mI3hhOyAgICAgIDxzdG9wIG9mZnNldD0iMC4zNCIgc3RvcC1jb2xvcj0iIzUwOWFlYiIvPiYjeGE7ICAgICAgPHN0b3Agb2Zmc2V0PSIwLjQ0IiBzdG9wLWNvbG9yPSIjM2Y5MmU2Ii8+JiN4YTsgICAgICA8c3RvcCBvZmZzZXQ9IjAuNjMiIHN0b3AtY29sb3I9IiMyNjg4ZGYiLz4mI3hhOyAgICAgIDxzdG9wIG9mZnNldD0iMC45MyIgc3RvcC1jb2xvcj0iIzEyN2ZkOSIvPiYjeGE7ICAgIDwvbGluZWFyR3JhZGllbnQ+JiN4YTsgIDwvZGVmcz4mI3hhOyAgPHBhdGggZD0iTTguMjUyLDIuNTIxSDkuMzc0VjkuNTk0SDguMjUyWiIgZmlsbD0iIzdhN2E3YSIvPiYjeGE7ICA8cGF0aCBkPSJNMTAuNDU5LDIuM0ExLjY0NywxLjY0NywwLDEsMSw4LjgxMy42NWgwQTEuNjQ2LDEuNjQ2LDAsMCwxLDEwLjQ1OSwyLjNaIiBmaWxsPSIjMTQ5MGRmIi8+JiN4YTsgIDxwYXRoIGQ9Ik04LjU4OCw5LjIyaC0xLjhhMi4yNDYsMi4yNDYsMCwwLDAtLjM0OCw0LjQ2MSwyLjQxNSwyLjQxNSwwLDAsMSwuMDIyLS44MzUsMS40MTgsMS40MTgsMCwwLDEsLjMyNi0yLjhoMS44YTEuNDIyLDEuNDIyLDAsMCwxLDAsMi44NDRIOC4wOTRhMS4wNzgsMS4wNzgsMCwwLDAtLjEuNDUsMS4wMjIsMS4wMjIsMCwwLDAsLjA3MS4zNzRoLjUyN2EyLjI0NiwyLjI0NiwwLDEsMCwwLTQuNDkxWiIgZmlsbD0idXJsKCNmZDA2MTIyOC0yMmJlLTQyNWUtOTEzMS0wYjhjY2EwZTVkMTcpIi8+JiN4YTsgIDxwYXRoIGQ9Ik0xMS4xODIsMTEuMTIxYTIuNjQyLDIuNjQyLDAsMCwxLC4wMjYuMzQ0LDIuMzE3LDIuMzE3LDAsMCwxLS4wNDkuNDkxLDEuNDE4LDEuNDE4LDAsMCwxLS4zMjUsMi44aC0xLjhhMS40MjMsMS40MjMsMCwwLDEsMC0yLjg0NWguNDk0YTEuMDQyLDEuMDQyLDAsMCwwLC4xLS40NDksMS4wMTgsMS4wMTgsMCwwLDAtLjA3MS0uMzc0SDkuMDM3YTIuMjQ2LDIuMjQ2LDAsMCwwLDAsNC40OTFoMS44YTIuMjQ2LDIuMjQ2LDAsMCwwLC4zNDgtNC40NjFaIiBmaWxsPSJ1cmwoI2VhOTY0OWE2LTA0YjUtNDdkNi04MjQ3LWVkM2FiOWZmOWQwNikiLz4mI3hhOyAgPHBhdGggZD0iTTUuNTgsMTYuNTI1bC0uNDEyLjQxNWEuMjguMjgsMCwwLDEtLjQsMGwtNC42MDctNC42YS41NjYuNTY2LDAsMCwxLDAtLjhsLjQxNi0uNDEyLDUsNC45OTJhLjI3Ni4yNzYsMCwwLDEsMCwuMzkxaDBaIiBmaWxsPSIjNTBlNmZmIi8+JiN4YTsgIDxwYXRoIGQ9Ik01LjA4Miw3LjAybC40Ni40NmEuMjgyLjI4MiwwLDAsMSwwLC40TC42MjUsMTIuODA5bC0uNDYxLS40NTdhLjU2Ni41NjYsMCwwLDEsMC0uOEw0LjY4NSw3LjAyQS4yOC4yOCwwLDAsMSw1LjA4Miw3LjAyWiIgZmlsbD0iIzE0OTBkZiIvPiYjeGE7ICA8cGF0aCBkPSJNMTIuNDE3LDE2Ljg1MWEuMjc4LjI3OCwwLDAsMS0uMDA2LS4zOTJoMGwuMDA2LDAsNS00Ljk4OS40MTYuNDE2YS41NjYuNTY2LDAsMCwxLDAsLjhsLTQuNjExLDQuNTg4YS4yNzcuMjc3LDAsMCwxLS4zOTEuMDA2aDBsLS4wMDYtLjAwNVoiIGZpbGw9IiM1MGU2ZmYiLz4mI3hhOyAgPHBhdGggZD0iTTEzLjMxMSw3LjM0OWw0LjUyNSw0LjUzNmEuNTYzLjU2MywwLDAsMSwwLC43OTNsLS40NjEuNDZMMTIuNDU0LDguMjA2YS4yODkuMjg5LDAsMCwxLDAtLjRsLjQ2LS40NTZBLjI4Mi4yODIsMCwwLDEsMTMuMzExLDcuMzQ5WiIgZmlsbD0iIzE0OTBkZiIvPiYjeGE7PC9zdmc+;" vertex="1" parent="1">
                    <mxGeometry x="366.3400000000001" y="220" width="25.41" height="24" as="geometry"/>
                </mxCell>
                <mxCell id="17" value="&lt;font style=&quot;font-size: 5px&quot;&gt;privatelink.file.core.window.net&lt;/font&gt;" style="text;html=1;resizable=0;autosize=1;align=center;verticalAlign=middle;points=[];fillColor=none;strokeColor=none;rounded=0;" vertex="1" parent="1">
                    <mxGeometry x="466.69000000000005" y="410" width="80" height="20" as="geometry"/>
                </mxCell>
                <mxCell id="3" value="" style="shape=image;imageAspect=0;aspect=fixed;verticalLabelPosition=bottom;verticalAlign=top;image=data:image/svg+xml,PHN2ZyB4bWxucz0iaHR0cDovL3d3dy53My5vcmcvMjAwMC9zdmciIHdpZHRoPSIxNy40NjgxMzk2NDg0Mzc1IiBoZWlnaHQ9IjEwLjQwOTgxODY0OTI5MTk5MiIgdmlld0JveD0iMC4yNjYyNTUxOTk5MDkyMTAyIDMuNzk1NjE5NzI2MTgxMDMwMyAxNy40NjgxMzk2NDg0Mzc1IDEwLjQwOTgxODY0OTI5MTk5MiI+JiN4YTsgIDxkZWZzPiYjeGE7ICAgIDxsaW5lYXJHcmFkaWVudCBpZD0iYmNlYjYwZGQtOGI4Yy00MDk4LTk0ZjgtYWViNGRiMmVkYWVmIiB4MT0iOS4wMzMiIHkxPSIxMC4zMDUiIHgyPSI5LjAzMyIgeTI9IjcuNjk1IiBncmFkaWVudFVuaXRzPSJ1c2VyU3BhY2VPblVzZSI+JiN4YTsgICAgICA8c3RvcCBvZmZzZXQ9IjAiIHN0b3AtY29sb3I9IiM1ZTk2MjQiLz4mI3hhOyAgICAgIDxzdG9wIG9mZnNldD0iMC4yNDEiIHN0b3AtY29sb3I9IiM2ZmIwMmEiLz4mI3hhOyAgICAgIDxzdG9wIG9mZnNldD0iMC41MDEiIHN0b3AtY29sb3I9IiM3Y2M1MmYiLz4mI3hhOyAgICAgIDxzdG9wIG9mZnNldD0iMC43NTYiIHN0b3AtY29sb3I9IiM4M2QyMzIiLz4mI3hhOyAgICAgIDxzdG9wIG9mZnNldD0iMSIgc3RvcC1jb2xvcj0iIzg2ZDYzMyIvPiYjeGE7ICAgIDwvbGluZWFyR3JhZGllbnQ+JiN4YTsgIDwvZGVmcz4mI3hhOyAgPGcgaWQ9ImFjNzVjMjFlLTJhOTMtNDY0Zi04MDQ4LWYxNTE4ZGFiOGI3NSI+JiN4YTsgICAgPGc+JiN4YTsgICAgICA8cGF0aCBkPSJNOS4wMzEsNy43QTEuMzA1LDEuMzA1LDAsMSwwLDEwLjMzOCw5LDEuMzA1LDEuMzA1LDAsMCwwLDkuMDMxLDcuN1oiIGZpbGw9InVybCgjYmNlYjYwZGQtOGI4Yy00MDk4LTk0ZjgtYWViNGRiMmVkYWVmKSIvPiYjeGE7ICAgICAgPGc+JiN4YTsgICAgICAgIDxwYXRoIGQ9Ik0yLjk2MSw3LjM3NGguODg4YS4yODQuMjg0LDAsMCwxLC4yODQuMjg0djYuNTUxYS41NjguNTY4LDAsMCwxLS41NjguNTY4SDIuNjc3YTAsMCwwLDAsMSwwLDBWNy42NTlBLjI4NC4yODQsMCwwLDEsMi45NjEsNy4zNzRaIiB0cmFuc2Zvcm09InRyYW5zbGF0ZSgxMy42NTMgMTYuNDg1KSByb3RhdGUoMTM0LjkxOSkiIGZpbGw9IiM1MGU2ZmYiLz4mI3hhOyAgICAgICAgPHBhdGggZD0iTTIuOTEzLDMuMjQ0SDMuOGEuMjg0LjI4NCwwLDAsMSwuMjg0LjI4NHY3LjAxNWEwLDAsMCwwLDEsMCwwSDMuMmEuNTY4LjU2OCwwLDAsMS0uNTY4LS41NjhWMy41MjhhLjI4NC4yODQsMCwwLDEsLjI4NC0uMjg0WiIgdHJhbnNmb3JtPSJ0cmFuc2xhdGUoNS44NDcgLTAuMzU4KSByb3RhdGUoNDQuOTE5KSIgZmlsbD0iIzE0OTBkZiIvPiYjeGE7ICAgICAgICA8cGF0aCBkPSJNMTMuODY3LDcuMzc0aC44ODhhLjU2OC41NjgsMCwwLDEsLjU2OC41Njh2Ni41NTFhLjI4NC4yODQsMCwwLDEtLjI4NC4yODRoLS44ODhhLjI4NC4yODQsMCwwLDEtLjI4NC0uMjg0VjcuMzc0YTAsMCwwLDAsMSwwLDBaIiB0cmFuc2Zvcm09InRyYW5zbGF0ZSgxMi4xMzIgLTcuMDc5KSByb3RhdGUoNDUuMDgxKSIgZmlsbD0iIzUwZTZmZiIvPiYjeGE7ICAgICAgICA8cGF0aCBkPSJNMTQuNDgzLDMuMjQ0aC44ODhhMCwwLDAsMCwxLDAsMHY3LjAxNWEuMjg0LjI4NCwwLDAsMS0uMjg0LjI4NEgxNC4yYS4yODQuMjg0LDAsMCwxLS4yODQtLjI4NFYzLjgxMmEuNTY4LjU2OCwwLDAsMSwuNTY4LS41NjhaIiB0cmFuc2Zvcm09InRyYW5zbGF0ZSgyOS44NzkgMS40MzUpIHJvdGF0ZSgxMzUuMDgxKSIgZmlsbD0iIzE0OTBkZiIvPiYjeGE7ICAgICAgPC9nPiYjeGE7ICAgIDwvZz4mI3hhOyAgPC9nPiYjeGE7PC9zdmc+;" vertex="1" parent="1">
                    <mxGeometry x="356.69" y="350" width="30" height="17.65" as="geometry"/>
                </mxCell>
                <mxCell id="62" value="&lt;font style=&quot;font-size: 8px&quot;&gt;&lt;b&gt;Internet User&lt;/b&gt;&lt;/font&gt;" style="text;html=1;resizable=0;autosize=1;align=center;verticalAlign=middle;points=[];fillColor=none;strokeColor=none;rounded=0;" vertex="1" parent="1">
                    <mxGeometry x="40" y="340.24" width="60" height="20" as="geometry"/>
                </mxCell>
                <mxCell id="63" value="&lt;font style=&quot;font-size: 8px&quot;&gt;&lt;b&gt;Virtual Network&lt;br&gt;Integration&lt;/b&gt;&lt;/font&gt;" style="text;html=1;resizable=0;autosize=1;align=center;verticalAlign=middle;points=[];fillColor=none;strokeColor=none;rounded=0;" vertex="1" parent="1">
                    <mxGeometry x="226.69000000000003" y="291.65" width="70" height="40" as="geometry"/>
                </mxCell>
                <mxCell id="67" style="edgeStyle=orthogonalEdgeStyle;rounded=0;orthogonalLoop=1;jettySize=auto;html=1;exitX=0;exitY=0.5;exitDx=0;exitDy=0;entryX=0.5;entryY=0;entryDx=0;entryDy=0;strokeColor=#33FF33;" edge="1" parent="1" source="64" target="30">
                    <mxGeometry relative="1" as="geometry">
                        <mxPoint x="196.69" y="277" as="targetPoint"/>
                    </mxGeometry>
                </mxCell>
                <mxCell id="64" value="" style="shape=image;imageAspect=0;aspect=fixed;verticalLabelPosition=bottom;verticalAlign=top;image=data:image/svg+xml,PHN2ZyB4bWxucz0iaHR0cDovL3d3dy53My5vcmcvMjAwMC9zdmciIHdpZHRoPSIxOC4wMDM4NjA0NzM2MzI4MTIiIGhlaWdodD0iMTYuNzA3ODA5NDQ4MjQyMTg4IiB2aWV3Qm94PSItMC4wMDQ1NTU5ODA2NzQ5MjI0NjYgMC42NDk5OTk2NzgxMzQ5MTgyIDE4LjAwMzg2MDQ3MzYzMjgxMiAxNi43MDc4MDk0NDgyNDIxODgiPiYjeGE7ICA8ZGVmcz4mI3hhOyAgICA8bGluZWFyR3JhZGllbnQgaWQ9ImZkMDYxMjI4LTIyYmUtNDI1ZS05MTMxLTBiOGNjYTBlNWQxNyIgeDE9IjcuNjk5IiB5MT0iMjU5LjIyIiB4Mj0iNy42OTkiIHkyPSIyNjMuNzExIiBncmFkaWVudFRyYW5zZm9ybT0idHJhbnNsYXRlKDAgLTI1MCkiIGdyYWRpZW50VW5pdHM9InVzZXJTcGFjZU9uVXNlIj4mI3hhOyAgICAgIDxzdG9wIG9mZnNldD0iMC4yMyIgc3RvcC1jb2xvcj0iIzVlYTBlZiIvPiYjeGE7ICAgICAgPHN0b3Agb2Zmc2V0PSIwLjMyIiBzdG9wLWNvbG9yPSIjNWI5ZmVlIi8+JiN4YTsgICAgICA8c3RvcCBvZmZzZXQ9IjAuNDgiIHN0b3AtY29sb3I9IiM1MDlhZWIiLz4mI3hhOyAgICAgIDxzdG9wIG9mZnNldD0iMC41NyIgc3RvcC1jb2xvcj0iIzNmOTJlNiIvPiYjeGE7ICAgICAgPHN0b3Agb2Zmc2V0PSIwLjc1IiBzdG9wLWNvbG9yPSIjMjY4OGRmIi8+JiN4YTsgICAgICA8c3RvcCBvZmZzZXQ9IjAuOTMiIHN0b3AtY29sb3I9IiMxMjdmZDkiLz4mI3hhOyAgICA8L2xpbmVhckdyYWRpZW50PiYjeGE7ICAgIDxsaW5lYXJHcmFkaWVudCBpZD0iZWE5NjQ5YTYtMDRiNS00N2Q2LTgyNDctZWQzYWI5ZmY5ZDA2IiB4MT0iOS45MjciIHkxPSIyNjEuMDkxIiB4Mj0iOS45MjciIHkyPSIyNjUuNTgyIiBncmFkaWVudFRyYW5zZm9ybT0idHJhbnNsYXRlKDAgLTI1MCkiIGdyYWRpZW50VW5pdHM9InVzZXJTcGFjZU9uVXNlIj4mI3hhOyAgICAgIDxzdG9wIG9mZnNldD0iMC4wMiIgc3RvcC1jb2xvcj0iIzVlYTBlZiIvPiYjeGE7ICAgICAgPHN0b3Agb2Zmc2V0PSIwLjE0IiBzdG9wLWNvbG9yPSIjNWI5ZmVlIi8+JiN4YTsgICAgICA8c3RvcCBvZmZzZXQ9IjAuMjMiIHN0b3AtY29sb3I9IiM1YjlmZWUiLz4mI3hhOyAgICAgIDxzdG9wIG9mZnNldD0iMC4zNCIgc3RvcC1jb2xvcj0iIzUwOWFlYiIvPiYjeGE7ICAgICAgPHN0b3Agb2Zmc2V0PSIwLjQ0IiBzdG9wLWNvbG9yPSIjM2Y5MmU2Ii8+JiN4YTsgICAgICA8c3RvcCBvZmZzZXQ9IjAuNjMiIHN0b3AtY29sb3I9IiMyNjg4ZGYiLz4mI3hhOyAgICAgIDxzdG9wIG9mZnNldD0iMC45MyIgc3RvcC1jb2xvcj0iIzEyN2ZkOSIvPiYjeGE7ICAgIDwvbGluZWFyR3JhZGllbnQ+JiN4YTsgIDwvZGVmcz4mI3hhOyAgPHBhdGggZD0iTTguMjUyLDIuNTIxSDkuMzc0VjkuNTk0SDguMjUyWiIgZmlsbD0iIzdhN2E3YSIvPiYjeGE7ICA8cGF0aCBkPSJNMTAuNDU5LDIuM0ExLjY0NywxLjY0NywwLDEsMSw4LjgxMy42NWgwQTEuNjQ2LDEuNjQ2LDAsMCwxLDEwLjQ1OSwyLjNaIiBmaWxsPSIjMTQ5MGRmIi8+JiN4YTsgIDxwYXRoIGQ9Ik04LjU4OCw5LjIyaC0xLjhhMi4yNDYsMi4yNDYsMCwwLDAtLjM0OCw0LjQ2MSwyLjQxNSwyLjQxNSwwLDAsMSwuMDIyLS44MzUsMS40MTgsMS40MTgsMCwwLDEsLjMyNi0yLjhoMS44YTEuNDIyLDEuNDIyLDAsMCwxLDAsMi44NDRIOC4wOTRhMS4wNzgsMS4wNzgsMCwwLDAtLjEuNDUsMS4wMjIsMS4wMjIsMCwwLDAsLjA3MS4zNzRoLjUyN2EyLjI0NiwyLjI0NiwwLDEsMCwwLTQuNDkxWiIgZmlsbD0idXJsKCNmZDA2MTIyOC0yMmJlLTQyNWUtOTEzMS0wYjhjY2EwZTVkMTcpIi8+JiN4YTsgIDxwYXRoIGQ9Ik0xMS4xODIsMTEuMTIxYTIuNjQyLDIuNjQyLDAsMCwxLC4wMjYuMzQ0LDIuMzE3LDIuMzE3LDAsMCwxLS4wNDkuNDkxLDEuNDE4LDEuNDE4LDAsMCwxLS4zMjUsMi44aC0xLjhhMS40MjMsMS40MjMsMCwwLDEsMC0yLjg0NWguNDk0YTEuMDQyLDEuMDQyLDAsMCwwLC4xLS40NDksMS4wMTgsMS4wMTgsMCwwLDAtLjA3MS0uMzc0SDkuMDM3YTIuMjQ2LDIuMjQ2LDAsMCwwLDAsNC40OTFoMS44YTIuMjQ2LDIuMjQ2LDAsMCwwLC4zNDgtNC40NjFaIiBmaWxsPSJ1cmwoI2VhOTY0OWE2LTA0YjUtNDdkNi04MjQ3LWVkM2FiOWZmOWQwNikiLz4mI3hhOyAgPHBhdGggZD0iTTUuNTgsMTYuNTI1bC0uNDEyLjQxNWEuMjguMjgsMCwwLDEtLjQsMGwtNC42MDctNC42YS41NjYuNTY2LDAsMCwxLDAtLjhsLjQxNi0uNDEyLDUsNC45OTJhLjI3Ni4yNzYsMCwwLDEsMCwuMzkxaDBaIiBmaWxsPSIjNTBlNmZmIi8+JiN4YTsgIDxwYXRoIGQ9Ik01LjA4Miw3LjAybC40Ni40NmEuMjgyLjI4MiwwLDAsMSwwLC40TC42MjUsMTIuODA5bC0uNDYxLS40NTdhLjU2Ni41NjYsMCwwLDEsMC0uOEw0LjY4NSw3LjAyQS4yOC4yOCwwLDAsMSw1LjA4Miw3LjAyWiIgZmlsbD0iIzE0OTBkZiIvPiYjeGE7ICA8cGF0aCBkPSJNMTIuNDE3LDE2Ljg1MWEuMjc4LjI3OCwwLDAsMS0uMDA2LS4zOTJoMGwuMDA2LDAsNS00Ljk4OS40MTYuNDE2YS41NjYuNTY2LDAsMCwxLDAsLjhsLTQuNjExLDQuNTg4YS4yNzcuMjc3LDAsMCwxLS4zOTEuMDA2aDBsLS4wMDYtLjAwNVoiIGZpbGw9IiM1MGU2ZmYiLz4mI3hhOyAgPHBhdGggZD0iTTEzLjMxMSw3LjM0OWw0LjUyNSw0LjUzNmEuNTYzLjU2MywwLDAsMSwwLC43OTNsLS40NjEuNDZMMTIuNDU0LDguMjA2YS4yODkuMjg5LDAsMCwxLDAtLjRsLjQ2LS40NTZBLjI4Mi4yODIsMCwwLDEsMTMuMzExLDcuMzQ5WiIgZmlsbD0iIzE0OTBkZiIvPiYjeGE7PC9zdmc+;" vertex="1" parent="1">
                    <mxGeometry x="403.97999999999996" y="138" width="25.41" height="24" as="geometry"/>
                </mxCell>
                <mxCell id="69" value="" style="group" vertex="1" connectable="0" parent="1">
                    <mxGeometry x="546.69" y="110" width="128.71" height="140" as="geometry"/>
                </mxCell>
                <mxCell id="51" value="&lt;font style=&quot;font-size: 8px&quot;&gt;&lt;b&gt;Application/User Subnet&lt;/b&gt;&lt;/font&gt;" style="text;html=1;resizable=0;autosize=1;align=center;verticalAlign=middle;points=[];fillColor=none;strokeColor=none;rounded=0;" vertex="1" parent="69">
                    <mxGeometry x="5.36291666666667" width="110" height="20" as="geometry"/>
                </mxCell>
                <mxCell id="52" value="" style="whiteSpace=wrap;html=1;aspect=fixed;fillColor=#E6E6E6;" vertex="1" parent="69">
                    <mxGeometry y="20" width="120" height="120" as="geometry"/>
                </mxCell>
                <mxCell id="75" value="" style="shape=image;verticalLabelPosition=bottom;labelBackgroundColor=#ffffff;verticalAlign=top;aspect=fixed;imageAspect=0;image=data:image/svg+xml,PHN2ZyB4bWxucz0iaHR0cDovL3d3dy53My5vcmcvMjAwMC9zdmciIGlkPSJmZDQ1NGYxYy01NTA2LTQ0YjgtODc0ZS04ODE0YjhiMmY3MGIiIHdpZHRoPSIxOCIgaGVpZ2h0PSIxNi42MzAwMDEwNjgxMTUyMzQiIHZpZXdCb3g9Ii0wLjExOTk5OTk5NzMxNzc5MDk5IDAuMjA5OTk5OTkzNDQzNDg5MDcgMTggMTYuNjMwMDAxMDY4MTE1MjM0Ij4KICA8ZGVmcz4KICAgIDxsaW5lYXJHcmFkaWVudCBpZD0iZjM0ZDk1NjktMmJkMC00MDAyLThmMTYtM2QwMWQ4MTA2Y2I1IiB4MT0iOC44OCIgeTE9IjEyLjIxIiB4Mj0iOC44OCIgeTI9IjAuMjEiIGdyYWRpZW50VW5pdHM9InVzZXJTcGFjZU9uVXNlIj4KICAgICAgPHN0b3Agb2Zmc2V0PSIwIiBzdG9wLWNvbG9yPSIjMDA3OGQ0Ii8+CiAgICAgIDxzdG9wIG9mZnNldD0iMC44MiIgc3RvcC1jb2xvcj0iIzVlYTBlZiIvPgogICAgPC9saW5lYXJHcmFkaWVudD4KICAgIDxsaW5lYXJHcmFkaWVudCBpZD0iYmRiNDVhMGItZWI1OC00OTcwLWE2MGEtZmIyY2UzMTRmODY2IiB4MT0iOC44OCIgeTE9IjE2Ljg0IiB4Mj0iOC44OCIgeTI9IjEyLjIxIiBncmFkaWVudFVuaXRzPSJ1c2VyU3BhY2VPblVzZSI+CiAgICAgIDxzdG9wIG9mZnNldD0iMC4xNSIgc3RvcC1jb2xvcj0iI2NjYyIvPgogICAgICA8c3RvcCBvZmZzZXQ9IjEiIHN0b3AtY29sb3I9IiM3MDcwNzAiLz4KICAgIDwvbGluZWFyR3JhZGllbnQ+CiAgPC9kZWZzPgogIDx0aXRsZT5JY29uLWNvbXB1dGUtMjE8L3RpdGxlPgogIDxyZWN0IHg9Ii0wLjEyIiB5PSIwLjIxIiB3aWR0aD0iMTgiIGhlaWdodD0iMTIiIHJ4PSIwLjYiIGZpbGw9InVybCgjZjM0ZDk1NjktMmJkMC00MDAyLThmMTYtM2QwMWQ4MTA2Y2I1KSIvPgogIDxwb2x5Z29uIHBvaW50cz0iMTEuODggNC40NiAxMS44OCA3Ljk1IDguODggOS43MSA4Ljg4IDYuMjEgMTEuODggNC40NiIgZmlsbD0iIzUwZTZmZiIvPgogIDxwb2x5Z29uIHBvaW50cz0iMTEuODggNC40NiA4Ljg4IDYuMjIgNS44OCA0LjQ2IDguODggMi43MSAxMS44OCA0LjQ2IiBmaWxsPSIjYzNmMWZmIi8+CiAgPHBvbHlnb24gcG9pbnRzPSI4Ljg4IDYuMjIgOC44OCA5LjcxIDUuODggNy45NSA1Ljg4IDQuNDYgOC44OCA2LjIyIiBmaWxsPSIjOWNlYmZmIi8+CiAgPHBvbHlnb24gcG9pbnRzPSI1Ljg4IDcuOTUgOC44OCA2LjIxIDguODggOS43MSA1Ljg4IDcuOTUiIGZpbGw9IiNjM2YxZmYiLz4KICA8cG9seWdvbiBwb2ludHM9IjExLjg4IDcuOTUgOC44OCA2LjIxIDguODggOS43MSAxMS44OCA3Ljk1IiBmaWxsPSIjOWNlYmZmIi8+CiAgPHBhdGggZD0iTTEyLjQ5LDE1Ljg0Yy0xLjc4LS4yOC0xLjg1LTEuNTYtMS44NS0zLjYzSDcuMTFjMCwyLjA3LS4wNiwzLjM1LTEuODQsMy42M2ExLDEsMCwwLDAtLjg5LDFoOUExLDEsMCwwLDAsMTIuNDksMTUuODRaIiBmaWxsPSJ1cmwoI2JkYjQ1YTBiLWViNTgtNDk3MC1hNjBhLWZiMmNlMzE0Zjg2NikiLz4KPC9zdmc+;" vertex="1" parent="69">
                    <mxGeometry x="40" y="50" width="30" height="28.33" as="geometry"/>
                </mxCell>
                <mxCell id="70" style="edgeStyle=orthogonalEdgeStyle;rounded=0;orthogonalLoop=1;jettySize=auto;html=1;exitX=0;exitY=0.5;exitDx=0;exitDy=0;entryX=1;entryY=0.5;entryDx=0;entryDy=0;strokeColor=#33FF33;" edge="1" parent="1" source="52" target="64">
                    <mxGeometry relative="1" as="geometry">
                        <Array as="points">
                            <mxPoint x="516.69" y="190"/>
                            <mxPoint x="516.69" y="150"/>
                        </Array>
                    </mxGeometry>
                </mxCell>
            </root>
        </mxGraphModel>
    </diagram>
</mxfile>